<?xml version="1.0" encoding="UTF-8"?>
<svg version="1.1" xmlns="http://www.w3.org/2000/svg" width="256" height="256">
<path d="M0 0 C0.68002414 -0.00226556 1.36004827 -0.00453111 2.0606792 -0.00686532 C4.32658281 -0.01316701 6.59242602 -0.01237843 8.8583374 -0.0115509 C10.48829729 -0.01454482 12.11825647 -0.01794789 13.74821472 -0.02172852 C18.1678152 -0.03054992 22.58739631 -0.03290587 27.00700474 -0.0335443 C29.77136244 -0.03425597 32.53571524 -0.03639251 35.30007172 -0.03904152 C44.95312308 -0.04828944 54.60616066 -0.05237718 64.25921631 -0.05158997 C73.24210843 -0.05098962 82.22494041 -0.06153442 91.20781732 -0.07733363 C98.93202503 -0.09043253 106.65621316 -0.09577286 114.38043189 -0.09513456 C118.98836619 -0.09488022 123.59624704 -0.09769568 128.20417023 -0.10831261 C132.54129384 -0.11803295 136.87831335 -0.1180459 141.21544075 -0.11079597 C142.80122849 -0.10975495 144.38702285 -0.11208419 145.9727993 -0.11815643 C158.60857363 -0.16338131 169.72342065 0.04237864 180.00579834 8.13371277 C189.36109197 17.64727264 190.45494189 26.89347306 190.40985107 39.74455261 C190.41556103 41.21717851 190.42252771 42.68979998 190.4306488 44.16241455 C190.44852772 48.14395456 190.44742166 52.12527354 190.44170642 56.10684156 C190.43860649 59.43914156 190.44471604 62.7713996 190.45074517 66.1036936 C190.46477189 73.96985559 190.46324496 81.83590893 190.45184326 89.70207214 C190.44036755 97.79783178 190.45443262 105.89325992 190.48123974 113.98897588 C190.5034441 120.9574123 190.51002336 127.92574502 190.50416332 134.89421427 C190.50080339 139.04834028 190.50314412 143.20225392 190.52041435 147.35634995 C190.53595694 151.26519069 190.53184778 155.17354307 190.51310921 159.08236504 C190.50944323 160.5101214 190.51247321 161.93791453 190.522995 163.36563683 C190.60180753 174.95183038 188.96113771 183.78747589 180.87689209 192.37590027 C177.29670789 195.73933011 173.71835052 198.56286204 169.00579834 200.13371277 C168.18820538 202.82558372 168.18820538 202.82558372 167.69329834 206.07121277 C165.81804776 214.93250046 162.16446415 222.23587753 154.92767334 227.88761902 C147.31696156 232.82220654 139.99391715 234.25215363 130.98709106 234.27415466 C130.30439451 234.27712579 129.62169795 234.28009691 128.91831362 234.28315806 C126.64326334 234.29179137 124.36826601 234.29334875 122.09320068 234.29484558 C120.45663339 234.29947763 118.82006717 234.30450281 117.1835022 234.30989075 C112.74517718 234.32298111 108.30686727 234.32945335 103.86852598 234.33390141 C101.09142194 234.3368381 98.31432198 234.34094407 95.53722 234.34540558 C86.83619532 234.35907283 78.13518 234.36874277 69.43414533 234.37260747 C59.41291626 234.3770838 49.39182387 234.39461521 39.37063634 234.42360806 C31.60987967 234.44527636 23.84916131 234.45531452 16.08837473 234.45664859 C11.46022377 234.45769311 6.83220143 234.46352513 2.20408249 234.4814682 C-2.15442199 234.49803773 -6.51270237 234.50006164 -10.87122726 234.49132919 C-12.46262974 234.4905635 -14.0540447 234.49483917 -15.64541626 234.50478745 C-29.15605477 234.58423095 -41.62351154 233.71091592 -51.99420166 224.13371277 C-57.43091946 217.64800171 -60.23570031 211.23972484 -60.2616272 202.70223999 C-60.27015717 201.42804703 -60.27868713 200.15385406 -60.28747559 198.84104919 C-60.28677666 197.4414519 -60.28585365 196.04185471 -60.284729 194.64225769 C-60.29071779 193.15845401 -60.29752414 191.67465344 -60.30508423 190.19085693 C-60.32271643 186.17005827 -60.32743845 182.14934478 -60.3287158 178.12851119 C-60.3301396 175.61340883 -60.33441354 173.09832798 -60.33971024 170.58323097 C-60.3582017 161.80015824 -60.366382 153.01714612 -60.36480713 144.23405457 C-60.36360614 136.06107839 -60.3847022 127.88836647 -60.41629446 119.71545714 C-60.44249052 112.68679099 -60.45317302 105.65821096 -60.45189631 98.6294964 C-60.45138763 94.43679367 -60.45701846 90.24432586 -60.47825241 86.05167198 C-60.49769102 82.10594798 -60.49772128 78.16068166 -60.48321915 74.21494102 C-60.48113685 72.77224556 -60.48579731 71.32952102 -60.49794006 69.88687515 C-60.5620169 61.74232502 -60.20373118 55.22753845 -55.99420166 48.13371277 C-55.61568243 47.48145312 -55.2371632 46.82919348 -54.84717369 46.15716839 C-51.29606633 40.3177158 -45.42227277 36.27640314 -38.99420166 34.13371277 C-38.17688872 31.17665193 -38.17688872 31.17665193 -37.68170166 27.63371277 C-35.91435659 18.6230001 -32.18596459 12.16497032 -24.98248291 6.41496277 C-17.26256607 1.44024229 -9.05251281 0.01250671 0 0 Z " fill="#F47E7E" transform="translate(62.99420166015625,10.866287231445313)"/>
<path d="M0 0 C0.68002414 -0.00226556 1.36004827 -0.00453111 2.0606792 -0.00686532 C4.32658281 -0.01316701 6.59242602 -0.01237843 8.8583374 -0.0115509 C10.48829729 -0.01454482 12.11825647 -0.01794789 13.74821472 -0.02172852 C18.1678152 -0.03054992 22.58739631 -0.03290587 27.00700474 -0.0335443 C29.77136244 -0.03425597 32.53571524 -0.03639251 35.30007172 -0.03904152 C44.95312308 -0.04828944 54.60616066 -0.05237718 64.25921631 -0.05158997 C73.24210843 -0.05098962 82.22494041 -0.06153442 91.20781732 -0.07733363 C98.93202503 -0.09043253 106.65621316 -0.09577286 114.38043189 -0.09513456 C118.98836619 -0.09488022 123.59624704 -0.09769568 128.20417023 -0.10831261 C132.54129384 -0.11803295 136.87831335 -0.1180459 141.21544075 -0.11079597 C142.80122849 -0.10975495 144.38702285 -0.11208419 145.9727993 -0.11815643 C158.60857363 -0.16338131 169.72342065 0.04237864 180.00579834 8.13371277 C189.36109197 17.64727264 190.45494189 26.89347306 190.40985107 39.74455261 C190.41556103 41.21717851 190.42252771 42.68979998 190.4306488 44.16241455 C190.44852772 48.14395456 190.44742166 52.12527354 190.44170642 56.10684156 C190.43860649 59.43914156 190.44471604 62.7713996 190.45074517 66.1036936 C190.46477189 73.96985559 190.46324496 81.83590893 190.45184326 89.70207214 C190.44036755 97.79783178 190.45443262 105.89325992 190.48123974 113.98897588 C190.5034441 120.9574123 190.51002336 127.92574502 190.50416332 134.89421427 C190.50080339 139.04834028 190.50314412 143.20225392 190.52041435 147.35634995 C190.53595694 151.26519069 190.53184778 155.17354307 190.51310921 159.08236504 C190.50944323 160.5101214 190.51247321 161.93791453 190.522995 163.36563683 C190.60180753 174.95183038 188.96113771 183.78747589 180.87689209 192.37590027 C177.29670789 195.73933011 173.71835052 198.56286204 169.00579834 200.13371277 C168.18820538 202.82558372 168.18820538 202.82558372 167.69329834 206.07121277 C165.81804776 214.93250046 162.16446415 222.23587753 154.92767334 227.88761902 C147.31696156 232.82220654 139.99391715 234.25215363 130.98709106 234.27415466 C130.30439451 234.27712579 129.62169795 234.28009691 128.91831362 234.28315806 C126.64326334 234.29179137 124.36826601 234.29334875 122.09320068 234.29484558 C120.45663339 234.29947763 118.82006717 234.30450281 117.1835022 234.30989075 C112.74517718 234.32298111 108.30686727 234.32945335 103.86852598 234.33390141 C101.09142194 234.3368381 98.31432198 234.34094407 95.53722 234.34540558 C86.83619532 234.35907283 78.13518 234.36874277 69.43414533 234.37260747 C59.41291626 234.3770838 49.39182387 234.39461521 39.37063634 234.42360806 C31.60987967 234.44527636 23.84916131 234.45531452 16.08837473 234.45664859 C11.46022377 234.45769311 6.83220143 234.46352513 2.20408249 234.4814682 C-2.15442199 234.49803773 -6.51270237 234.50006164 -10.87122726 234.49132919 C-12.46262974 234.4905635 -14.0540447 234.49483917 -15.64541626 234.50478745 C-29.15605477 234.58423095 -41.62351154 233.71091592 -51.99420166 224.13371277 C-57.43091946 217.64800171 -60.23570031 211.23972484 -60.2616272 202.70223999 C-60.27015717 201.42804703 -60.27868713 200.15385406 -60.28747559 198.84104919 C-60.28677666 197.4414519 -60.28585365 196.04185471 -60.284729 194.64225769 C-60.29071779 193.15845401 -60.29752414 191.67465344 -60.30508423 190.19085693 C-60.32271643 186.17005827 -60.32743845 182.14934478 -60.3287158 178.12851119 C-60.3301396 175.61340883 -60.33441354 173.09832798 -60.33971024 170.58323097 C-60.3582017 161.80015824 -60.366382 153.01714612 -60.36480713 144.23405457 C-60.36360614 136.06107839 -60.3847022 127.88836647 -60.41629446 119.71545714 C-60.44249052 112.68679099 -60.45317302 105.65821096 -60.45189631 98.6294964 C-60.45138763 94.43679367 -60.45701846 90.24432586 -60.47825241 86.05167198 C-60.49769102 82.10594798 -60.49772128 78.16068166 -60.48321915 74.21494102 C-60.48113685 72.77224556 -60.48579731 71.32952102 -60.49794006 69.88687515 C-60.5620169 61.74232502 -60.20373118 55.22753845 -55.99420166 48.13371277 C-55.61568243 47.48145312 -55.2371632 46.82919348 -54.84717369 46.15716839 C-51.29606633 40.3177158 -45.42227277 36.27640314 -38.99420166 34.13371277 C-38.17688872 31.17665193 -38.17688872 31.17665193 -37.68170166 27.63371277 C-35.91435659 18.6230001 -32.18596459 12.16497032 -24.98248291 6.41496277 C-17.26256607 1.44024229 -9.05251281 0.01250671 0 0 Z M-46.43170166 48.44621277 C-52.63821552 56.09782538 -52.43685982 63.91371087 -52.41412354 73.3556366 C-52.42147101 74.79856012 -52.43005922 76.24147778 -52.43978882 77.68438721 C-52.46194454 81.58953064 -52.46493843 85.4944627 -52.46304131 89.39966035 C-52.46292131 92.66729454 -52.47149761 95.93488443 -52.47981882 99.20250624 C-52.49903227 106.91666591 -52.50194456 114.63071738 -52.49517822 122.34489441 C-52.48854185 130.28448435 -52.51138999 138.22360919 -52.54849195 146.16310483 C-52.57925427 152.99564458 -52.59054184 159.82803524 -52.58665514 166.6606428 C-52.58459402 170.73436198 -52.58996728 174.80771928 -52.61454773 178.88137245 C-52.63692034 182.71558959 -52.63485105 186.54905445 -52.61462021 190.38327599 C-52.61122837 191.78362495 -52.61621995 193.18402561 -52.63060379 194.58430481 C-52.71830969 203.76199683 -51.90905595 211.65986408 -45.55153656 218.7404604 C-40.08208188 223.60955316 -34.88444265 225.50827621 -27.64486694 225.5146637 C-26.56758609 225.52168365 -26.56758609 225.52168365 -25.46854198 225.52884543 C-23.07342162 225.54076599 -20.67887657 225.53134996 -18.28375244 225.52189636 C-16.56187609 225.52596345 -14.84000235 225.5313061 -13.11813354 225.53782654 C-8.44861392 225.55149165 -3.77929336 225.54620425 0.8902297 225.53668928 C5.78187688 225.5290861 10.67350717 225.53614036 15.56515503 225.54084778 C23.7815659 225.54630444 31.99789585 225.53911714 40.21429443 225.52482605 C49.70395651 225.50851058 59.1934251 225.51378039 68.68308246 225.53030527 C76.83784254 225.54393565 84.99254449 225.54583188 93.14731228 225.53798926 C98.01452944 225.53331988 102.88165577 225.53266744 107.74886703 225.54259872 C112.32735077 225.5512883 116.90558611 225.54521016 121.48404312 225.52791595 C123.16096841 225.52396127 124.83791472 225.52506767 126.51483154 225.53170395 C139.48044498 225.74523312 139.48044498 225.74523312 151.17767334 220.62590027 C151.69845459 220.09222839 152.21923584 219.55855652 152.75579834 219.00871277 C153.28689209 218.49050964 153.81798584 217.97230652 154.36517334 217.43840027 C160.16666351 209.28868789 160.58786277 201.68089619 160.53924561 191.86833191 C160.54631518 190.44481517 160.55506454 189.02130595 160.56535339 187.59780884 C160.58774125 183.75469314 160.58493276 179.91199134 160.57603192 176.0688355 C160.57089998 172.85079836 160.57823242 169.63283749 160.585504 166.41480821 C160.60246936 158.81851831 160.59897128 151.22242946 160.58221436 143.62614441 C160.56529523 135.81032478 160.581132 127.99506377 160.61343724 120.17930514 C160.64019527 113.44862034 160.64739247 106.71810877 160.63892215 99.98737615 C160.6340111 95.97630149 160.63610903 91.96556273 160.65670967 87.95453072 C160.67516515 84.18099349 160.66898959 80.4082551 160.64451027 76.6347599 C160.63717557 74.60426173 160.65428096 72.57372036 160.67233276 70.54328918 C160.57881766 61.45922512 158.84715873 54.752227 152.97845459 47.69621277 C152.34810303 47.18058777 151.71775146 46.66496277 151.06829834 46.13371277 C150.12663818 45.32933777 150.12663818 45.32933777 149.16595459 44.50871277 C144.24208906 41.37453435 139.48601185 40.88150072 133.74584961 40.86628723 C133.03724061 40.86175612 132.32863161 40.85722501 131.5985496 40.85255659 C129.23585955 40.83994657 126.87340102 40.84153074 124.51068115 40.84318542 C122.81175441 40.83719798 121.11283038 40.83039193 119.41390991 40.8228302 C114.80628811 40.80518336 110.19874063 40.80047533 105.59108829 40.79919863 C102.70946801 40.79777554 99.82786653 40.79350291 96.94625092 40.78820419 C86.88470768 40.7697071 76.82321739 40.76153304 66.76165771 40.7631073 C57.39697334 40.76430808 48.03251967 40.74321741 38.66789365 40.71161997 C30.61671661 40.6854267 22.56561477 40.67474131 14.51439548 40.67601812 C9.71078041 40.67652693 4.90737037 40.67088898 0.10379791 40.64966202 C-4.41727438 40.63022859 -8.93794719 40.6301899 -13.45903397 40.64469528 C-15.11255353 40.64677828 -16.76609842 40.64211301 -18.41957474 40.62997437 C-33.78639192 40.50805271 -33.78639192 40.50805271 -46.43170166 48.44621277 Z " fill="#655047" transform="translate(62.99420166015625,10.866287231445313)"/>
<path d="M0 0 C0.71269255 -0.00523668 1.42538511 -0.01047336 2.15967441 -0.01586872 C4.53617433 -0.03081195 6.91245787 -0.03157261 9.28900146 -0.03224182 C10.99778097 -0.03986718 12.70655706 -0.04829532 14.41532898 -0.0574646 C19.0498015 -0.0793804 23.68420805 -0.08820467 28.31872654 -0.09329104 C31.21709789 -0.09693831 34.11545205 -0.10318033 37.01381683 -0.11029243 C47.13371029 -0.13477758 57.25355256 -0.14783664 67.37347412 -0.15138245 C76.79273565 -0.15501615 86.21167103 -0.18490208 95.63083291 -0.22678703 C103.72871901 -0.26152859 111.82649722 -0.27693156 119.92445731 -0.27762848 C124.75607205 -0.27842003 129.58735446 -0.28710226 134.41889191 -0.31562614 C138.96628899 -0.34187286 143.51307976 -0.34397535 148.06051826 -0.3279705 C149.72372069 -0.32616121 151.38695852 -0.33279964 153.05008507 -0.34878922 C162.86029692 -0.43730991 171.5457793 -0.15096455 179.29909134 6.68148136 C186.34741255 14.39849982 186.14169303 22.52152149 186.10614014 32.40428162 C186.11184876 33.83735179 186.11881493 35.27041743 186.12693787 36.70347595 C186.14483331 40.58177431 186.14370738 44.45984595 186.13799548 48.33817315 C186.13489738 51.58343693 186.1410032 54.82865756 186.14703423 58.07391518 C186.16106692 65.73534361 186.15952957 73.39666051 186.14813232 81.05809021 C186.13666115 88.94309058 186.15071264 96.82775042 186.1775288 104.71270591 C186.19973676 111.49853408 186.20631148 118.28425575 186.20045239 125.07011765 C186.19709268 129.11583148 186.19943138 133.16132724 186.21670341 137.20701027 C186.23225132 141.01488676 186.2281311 144.82226207 186.20939827 148.63011932 C186.20573347 150.020786 186.20875878 151.41149045 186.21928406 152.80212212 C186.28043547 161.55590424 186.10205811 170.41550921 179.9227972 177.23892689 C176.94354702 180.00524505 174.66010233 181.36497776 170.7020874 182.27415466 C170.70154263 181.58761873 170.70099787 180.9010828 170.70043659 180.19374275 C170.68544323 163.45794852 170.64289354 146.72247139 170.56999683 129.98683357 C170.53540242 121.89344926 170.50999862 113.8002343 170.50653076 105.70677185 C170.50348311 98.64920456 170.4828856 91.59193928 170.44156283 84.53448856 C170.42030324 80.80050476 170.40759557 77.06694956 170.41593361 73.33290482 C170.42493179 69.15551289 170.39473344 64.97925643 170.36151123 60.80198669 C170.37013687 59.57558975 170.37876251 58.34919281 170.38764954 57.08563232 C170.26237828 47.66491186 167.91332647 40.54067424 161.5770874 33.46165466 C152.1588215 24.93839431 141.59494483 24.54563868 129.57244873 24.61473083 C127.86640253 24.60626416 126.160366 24.59561391 124.4543457 24.58296204 C119.85376775 24.55496085 115.25365837 24.55726144 110.6530211 24.56525588 C105.83367007 24.56839307 101.01446513 24.54331119 96.19517517 24.52130127 C87.0829864 24.48393283 77.97094685 24.47171754 68.85868901 24.46867687 C58.47887421 24.46397821 48.09920817 24.43102903 37.71945918 24.39577901 C16.38035214 24.32393976 -4.95869396 24.28734297 -26.2979126 24.27415466 C-25.30064003 14.91141126 -22.53513623 9.98400634 -15.4932251 3.75462341 C-10.60804861 0.46017165 -5.77788485 0.02112443 0 0 Z " fill="#F2837E" transform="translate(59.29791259765625,19.725845336914063)"/>
<path d="M0 0 C1.58669495 -0.00472824 1.58669495 -0.00472824 3.20544434 -0.009552 C4.93196228 -0.00651566 4.93196228 -0.00651566 6.69335938 -0.00341797 C8.45226501 -0.00485306 8.45226501 -0.00485306 10.2467041 -0.00631714 C12.73169 -0.00699917 15.21667766 -0.00514331 17.70166016 -0.00097656 C21.52054825 0.00437134 25.33931872 -0.00092083 29.15820312 -0.00732422 C31.56575547 -0.00666344 33.97330774 -0.00538229 36.38085938 -0.00341797 C38.10737732 -0.00645432 38.10737732 -0.00645432 39.86877441 -0.009552 C40.92657104 -0.00639984 41.98436768 -0.00324768 43.07421875 0 C44.47867249 0.00119339 44.47867249 0.00119339 45.91149902 0.00241089 C48.03710938 0.12939453 48.03710938 0.12939453 49.03710938 1.12939453 C49.42713822 7.50453571 48.33687988 12.89855448 46.66601562 19.02783203 C46.4242308 19.94400299 46.18244598 20.86017395 45.93333435 21.80410767 C45.16460892 24.70673636 44.38206203 27.60543998 43.59960938 30.50439453 C43.07727031 32.47422017 42.55577741 34.4442704 42.03515625 36.41455078 C41.53785806 38.28584366 41.03983686 40.15694457 40.54101562 42.02783203 C40.30556534 42.91111176 40.07011505 43.79439148 39.82752991 44.70443726 C39.60737717 45.51933624 39.38722443 46.33423523 39.16040039 47.17382812 C38.96720718 47.89138275 38.77401398 48.60893738 38.57496643 49.34823608 C38.03710938 51.12939453 38.03710938 51.12939453 37.03710938 53.12939453 C36.91483011 55.10576867 36.86161008 57.08677763 36.84960938 59.06689453 C36.83542969 60.12779297 36.82125 61.18869141 36.80664062 62.28173828 C36.82145871 65.33217122 36.82145871 65.33217122 39.03710938 68.12939453 C45.30714953 69.00940017 48.66947351 67.62785455 53.86132812 64.12548828 C56.63709728 62.85471425 58.16189014 63.28848103 61.03710938 64.12939453 C61.75976562 66.26220703 61.75976562 66.26220703 62.03710938 69.12939453 C59.86363364 73.4527853 56.91514148 77.24715698 54.03710938 81.12939453 C53.54726562 81.80744141 53.05742187 82.48548828 52.55273438 83.18408203 C46.51649194 90.88916797 36.83670402 98.27059156 27.03710938 99.50830078 C20.17393254 99.88164489 15.44123849 99.24751496 9.97070312 94.96142578 C3.15660103 88.50523612 -0.82603581 81.07350703 -1.42724609 71.58520508 C-1.45996998 69.99998506 -1.46834543 68.41411551 -1.45507812 66.82861328 C-1.4503952 65.96821945 -1.44571228 65.10782562 -1.44088745 64.22135925 C-1.18981257 54.4137956 1.24864912 45.32789926 3.91210938 35.94189453 C4.37930772 34.23094721 4.84415816 32.51935699 5.30664062 30.80712891 C5.9580863 28.3963495 6.61214252 25.98688494 7.28585815 23.58222961 C8.71619538 18.46610091 9.93168177 13.32526669 11.03710938 8.12939453 C9.98910156 8.16419922 8.94109375 8.19900391 7.86132812 8.23486328 C6.48243791 8.2630039 5.10353035 8.29030377 3.72460938 8.31689453 C2.68916992 8.35459961 2.68916992 8.35459961 1.6328125 8.39306641 C-3.47406117 8.46707907 -3.47406117 8.46707907 -5.95898438 6.75048828 C-6.96289062 5.12939453 -6.96289062 5.12939453 -6.71289062 3.00439453 C-5.27347515 -0.59414415 -3.67821999 0.00312545 0 0 Z " fill="#675148" transform="translate(88.962890625,116.87060546875)"/>
<path d="M0 0 C6.6 0 13.2 0 20 0 C18.86803739 8.02664395 17.10941623 15.64712561 14.8527832 23.41552734 C13.54399234 27.93607185 12.41647516 32.45158014 11.45947266 37.06030273 C11 39 11 39 9.875 41.875 C7.73119193 49.5314574 8.41529681 56.95420408 12 64 C15.59085076 68.11891705 19.00039182 68.5481521 24.20703125 68.921875 C24.79871094 68.94765625 25.39039063 68.9734375 26 69 C20.30633904 76.28961138 13.64483003 82.96635977 4.1875 84.4375 C-1.14416124 83.70570336 -5.20696604 81.2302516 -8.5859375 77.02734375 C-14.46479805 67.9371981 -14.44009188 56.27822931 -12.61767578 45.80224609 C-11.77066568 42.2119725 -10.67772578 38.7096463 -9.57421875 35.19140625 C-7.4905324 28.54217342 -5.90437281 21.76602097 -4.25 15 C-3.65319822 12.56197109 -3.05439316 10.12443125 -2.453125 7.6875 C-2.19692383 6.63949219 -1.94072266 5.59148437 -1.67675781 4.51171875 C-1 2 -1 2 0 0 Z " fill="#F3837E" transform="translate(109,125)"/>
<path d="M0 0 C5.61704684 3.90337153 8.78289454 8.64465462 10.01953125 15.359375 C10.44349196 21.30404143 8.98796107 25.29597639 5.3984375 30.0234375 C0.90074312 34.75227677 -3.60144941 36.1526302 -10.05078125 36.44140625 C-15.7131291 36.20677858 -18.83740649 34.58039169 -22.82421875 30.515625 C-27.06370778 25.77376877 -28.98737883 21.55964103 -28.8046875 15.12890625 C-27.96733375 10.29469903 -25.49286371 5.82245129 -21.86328125 2.51953125 C-15.63640325 -1.77701457 -7.04086573 -3.07258392 0 0 Z " fill="#655047" transform="translate(133.42578125,73.05859375)"/>
<path d="M0 0 C3.62359556 0.70361079 5.241693 2.59561615 7.4140625 5.46875 C7.7440625 5.79875 8.0740625 6.12875 8.4140625 6.46875 C8.99576113 11.08419489 9.0382302 14.47008167 6.5390625 18.46875 C2.84544377 21.94509704 -0.18201388 21.87257632 -5.1015625 21.80859375 C-7.5859375 21.46875 -7.5859375 21.46875 -10.6484375 19.40625 C-12.95707063 15.90606429 -13.51127496 13.64985238 -13.5859375 9.46875 C-11.62770163 1.81382796 -7.51805417 -0.26612581 0 0 Z " fill="#F2827D" transform="translate(126.5859375,79.53125)"/>
</svg>
