<?xml version="1.0" encoding="UTF-8"?>
<svg version="1.1" xmlns="http://www.w3.org/2000/svg" width="512" height="512">
<path d="M0 0 C8.03900513 7.95482706 13.64769978 18.0653249 19.4375 27.6875 C20.17496925 28.90764939 20.91260381 30.12769886 21.65039062 31.34765625 C27.61920321 41.23158902 33.51020669 51.16171795 39.39221191 61.09747314 C44.93231941 70.45533861 50.52626456 79.77743719 56.1875 89.0625 C62.67076787 99.69578845 69.05227342 110.3861673 75.39550781 121.10351562 C80.93455071 130.45934031 86.52746139 139.77940012 92.1875 149.0625 C98.66745941 159.69036221 105.0475241 170.37427254 111.38543701 181.08740234 C116.76968767 190.18655204 122.21169224 199.24717767 127.72009277 208.271698 C144.23159994 235.3392964 160.04774925 262.6003119 152.125 295.5 C147.23786903 313.58440871 135.10675896 328.80383701 119.0625 338.25 C105.33045719 346.00165766 90.42570063 349.37523586 74.74168396 349.32992554 C73.57723836 349.33445665 72.41279275 349.33898776 71.21306092 349.34365618 C68.0075811 349.35406752 64.80224371 349.35563616 61.59675252 349.35326743 C58.12893367 349.35285702 54.66114749 349.36391983 51.19334412 349.37338257 C44.40845417 349.38994642 37.62359899 349.39549006 30.83869051 349.39660732 C25.31799817 349.39756019 19.79731723 349.40168234 14.27662849 349.40800858 C-1.40471266 349.42560997 -17.08602652 349.43484941 -32.76737762 349.43334763 C-33.61153803 349.43326772 -34.45569843 349.4331878 -35.32543945 349.43310547 C-36.17064099 349.43302371 -37.01584252 349.43294195 -37.88665622 349.43285771 C-51.57068627 349.43204557 -65.25460606 349.45116782 -78.93860424 349.4793822 C-93.01783524 349.50818037 -107.09701259 349.52191863 -121.17627376 349.52019465 C-129.06913249 349.51953304 -136.96187567 349.52492407 -144.85470772 349.54655075 C-151.57741264 349.56485429 -158.29994966 349.56903543 -165.02266885 349.5555319 C-168.44563735 349.54904751 -171.86828463 349.54871819 -175.29122162 349.5662384 C-203.13980448 349.68260083 -226.74740712 345.39832527 -247.61328125 325.9140625 C-261.91867957 310.96978231 -266.79746777 292.36751518 -266.51953125 272.234375 C-265.77376169 247.21678014 -251.86180962 226.76424116 -239.3125 206.0625 C-238.60021533 204.88544395 -237.88797471 203.70836124 -237.17578125 202.53125 C-234.40102304 197.94846144 -231.62096138 193.36894037 -228.83056641 188.7956543 C-223.42126461 179.92558766 -218.10343705 171.00359184 -212.8125 162.0625 C-206.53226973 151.45106002 -200.189573 140.88150445 -193.77050781 130.35351562 C-188.04798064 120.96407441 -182.41310119 111.52511639 -176.8125 102.0625 C-170.19738404 90.88578832 -163.50701305 79.75924058 -156.74414062 68.67138672 C-152.90471262 62.36898253 -149.1029306 56.0459536 -145.34375 49.6953125 C-144.92371704 48.98590515 -144.50368408 48.2764978 -144.07092285 47.54559326 C-142.04097893 44.11497045 -140.01494474 40.68210775 -137.99414062 37.24609375 C-121.84577822 9.85466749 -105.07537748 -14.6811238 -72.609375 -23.1875 C-45.33692394 -29.39165948 -19.68169099 -18.96707588 0 0 Z M-84.40942383 34.62597656 C-88.0734853 39.31710337 -91.03224925 44.44997033 -94.0625 49.5625 C-94.79947661 50.79205866 -95.53712383 52.02121558 -96.27539062 53.25 C-98.63281984 57.18055986 -100.9735411 61.12092998 -103.3125 65.0625 C-104.10084351 66.38936329 -104.88925488 67.71618627 -105.67773438 69.04296875 C-108.86321301 74.40482157 -112.0464531 79.76799054 -115.22363281 85.13476562 C-120.70360993 94.38641505 -126.25682047 103.59067321 -131.85449219 112.77148438 C-137.57701936 122.16092559 -143.21189881 131.59988361 -148.8125 141.0625 C-155.09296857 151.67380098 -161.435425 162.24349227 -167.85449219 172.77148438 C-173.98479519 182.82999837 -180.01105142 192.94774462 -186.00942993 203.08538818 C-192.43483601 213.94205778 -198.94207774 224.74581539 -205.53125 235.50390625 C-220.03142045 257.35133378 -220.03142045 257.35133378 -222.75 282.625 C-220.56444178 290.76332863 -215.81303318 296.51240745 -208.6796875 300.84765625 C-199.56727146 305.52416019 -190.50340066 306.21146552 -180.42147827 306.20294189 C-178.77264993 306.20739858 -178.77264993 306.20739858 -177.09051192 306.2119453 C-173.40587393 306.22061932 -169.72126848 306.22213946 -166.03662109 306.22363281 C-163.39514005 306.22826192 -160.75366194 306.23326632 -158.11218262 306.23867798 C-150.93427684 306.25223937 -143.75637667 306.25828269 -136.57846022 306.26268864 C-132.09275794 306.26545497 -127.6070578 306.26969305 -123.12135696 306.27419281 C-110.69109673 306.28638298 -98.26083821 306.29668255 -85.83057213 306.3000679 C-85.03554656 306.30028747 -84.24052099 306.30050703 -83.42140374 306.30073325 C-82.22608098 306.30106067 -82.22608098 306.30106067 -81.00661027 306.3013947 C-79.3919394 306.30183816 -77.77726853 306.30228472 -76.16259766 306.30273438 C-75.3616724 306.3029558 -74.56074715 306.30317723 -73.73555143 306.30340537 C-60.76569507 306.30735108 -47.79589498 306.32479928 -34.82606034 306.3480939 C-21.49618393 306.37184103 -8.16633572 306.38427129 5.16356218 306.38543582 C12.64214988 306.38635073 20.12066428 306.3920565 27.59923172 306.41025543 C33.9689835 306.42570192 40.33863932 306.43075021 46.70840628 306.42251733 C49.95449443 306.41862673 53.20035044 306.42111446 56.44642258 306.43357468 C59.97597138 306.44632492 63.50503047 306.44040016 67.03457642 306.42999268 C68.04608564 306.43804908 69.05759486 306.44610548 70.09975588 306.45440602 C82.02626526 306.37259788 94.87687992 303.63499522 103.6875 295.0625 C108.02808908 289.00043083 109.90587258 284.19137729 110.0625 276.6875 C110.11148437 275.38039063 110.16046875 274.07328125 110.2109375 272.7265625 C109.56683706 261.43970866 102.79385619 251.34356312 96.9375 242.0625 C95.40640294 239.59686765 93.88327628 237.12633428 92.359375 234.65625 C91.97096436 234.02900024 91.58255371 233.40175049 91.18237305 232.75549316 C87.4319286 226.68621716 83.82453006 220.53735862 80.23846436 214.3699646 C74.02524213 203.68436982 67.69852658 193.07598883 61.25976562 182.52490234 C55.49712085 173.07938431 49.82234863 163.58476394 44.1875 154.0625 C38.24718925 144.02540768 32.2591568 134.0207 26.1875 124.0625 C20.11583701 114.10428984 14.12850947 104.09918602 8.1875 94.0625 C0.05125287 80.32115377 -8.17666285 66.63929774 -16.51171875 53.01757812 C-18.12590592 50.36870048 -19.72265835 47.71040422 -21.3125 45.046875 C-28.31665559 33.39739601 -35.79270661 23.68174543 -49.3515625 19.421875 C-63.89586751 16.75638484 -75.22345065 23.95180028 -84.40942383 34.62597656 Z " fill="#FBA733" transform="translate(312.3125,98.9375)"/>
<path d="M0 0 C6.24940729 4.51507566 10.04784802 10.32370933 11.34277344 18.04345703 C12.49801302 29.75290155 9.83605718 40.05521356 6 51 C5.05849926 53.74043061 4.12264899 56.48261552 3.19360352 59.22729492 C2.58200787 61.02442086 1.95945239 62.81786893 1.32397461 64.60668945 C-1.29831807 72.18979822 -3.48342411 79.68076794 -0.0625 87.33203125 C1.85500508 90.34223224 3.59177221 91.07048333 7 92 C13.96635402 92.15641209 20.45930993 90.21270154 27 88 C25.48924894 92.15456541 22.53431259 94.12311426 19 96.5 C18.41476562 96.89582275 17.82953125 97.29164551 17.2265625 97.69946289 C5.96389323 105.1244022 -6.65474277 108.14800182 -20.14453125 106.59765625 C-27.36745828 105.08588083 -33.31158982 101.76707769 -37.8203125 95.8828125 C-44.25206981 85.61755746 -43.35750759 74.41585665 -41 63 C-39.24844263 56.42186971 -36.87196517 50.01619789 -34.58984375 43.60766602 C-31.45852871 34.74773599 -28.628076 26.5665239 -30 17 C-31.9533076 12.93060916 -33.4151854 12.24623773 -37.5625 10.5 C-42.1906534 9.55706781 -46.00835722 10.80434803 -50.43359375 12.1953125 C-53.26320391 13.08252665 -56.06335983 13.60315673 -59 14 C-47.55572239 -1.86529439 -17.21338567 -12.17715493 0 0 Z " fill="#FBA733" transform="translate(261,269)"/>
<path d="M0 0 C7.11445138 4.98116684 12.24521072 10.33727262 14 19 C15.15884242 29.12137902 13.49617203 36.64640294 7.375 44.75 C2.17055054 50.38706113 -5.08567664 53.6324677 -12.71875 54.0625 C-21.13221428 53.83199413 -27.60538423 51.55096666 -34 46 C-40.65841056 38.8425651 -42.49635169 32.01745765 -42.30859375 22.3203125 C-41.5899299 14.58785333 -38.66435298 8.69421648 -32.93359375 3.46875 C-23.4314398 -3.74904775 -10.77734595 -5.74547815 0 0 Z " fill="#FBA633" transform="translate(270,188)"/>
</svg>
