<?xml version="1.0" encoding="UTF-8"?>
<svg version="1.1" xmlns="http://www.w3.org/2000/svg" width="512" height="512">
<path d="M0 0 C3.68113805 0.00477347 7.36222595 -0.00781481 11.04334736 -0.01801741 C18.2366524 -0.03513056 25.4298698 -0.03606095 32.6231899 -0.03080451 C38.47651073 -0.026747 44.32980587 -0.02822504 50.1831255 -0.03355277 C51.01931723 -0.03430119 51.85550896 -0.03504961 52.71703984 -0.03582071 C54.41631594 -0.03735235 56.11559203 -0.0388907 57.81486812 -0.04043568 C73.71704726 -0.05413403 89.61917707 -0.04874216 105.52135506 -0.03725047 C120.03143322 -0.02732426 134.54138375 -0.04025292 149.05144224 -0.06418466 C163.99191604 -0.08863839 178.93233056 -0.09816796 193.87282395 -0.09153193 C202.2440924 -0.08805318 210.61526282 -0.09018217 218.986516 -0.10778296 C226.11381969 -0.12258386 233.24095633 -0.12303851 240.36825702 -0.10571205 C243.99604699 -0.09726334 247.6235396 -0.09489962 251.25131321 -0.1103636 C289.19636324 -0.26035529 319.73703443 9.12936323 347.5239687 35.65683305 C358.00462181 46.5228043 365.72031056 58.64728249 371.8364687 72.40683305 C372.55963276 74.00591508 372.55963276 74.00591508 373.2974062 75.6373018 C380.9740994 93.99157736 381.42862273 112.38655532 381.34470832 131.99406099 C381.333451 135.66620843 381.34558897 139.33829664 381.35455036 143.01044023 C381.36838465 150.17682793 381.36100055 157.34303777 381.34587478 164.50941678 C381.32889809 172.87536465 381.33223942 181.24126966 381.33596886 189.60722945 C381.34182918 204.54380289 381.32774653 219.48029168 381.30302143 234.41684282 C381.27909314 248.87390632 381.27202458 263.33085682 381.28251362 277.78793657 C381.29394923 293.57769797 381.29582131 309.36740729 381.28141552 325.15716809 C381.27988987 326.84393906 381.27836951 328.53071004 381.27685452 330.21748102 C381.2760967 331.04715027 381.27533889 331.87681952 381.27455811 332.73163026 C381.26983669 338.54827061 381.27165133 344.36488752 381.27591991 350.1815275 C381.2808706 357.27806468 381.27475563 364.37449553 381.25502562 371.4710085 C381.24522392 375.08422408 381.23997043 378.69727851 381.24791813 382.31050241 C381.30282084 410.19795961 381.30282084 410.19795961 377.8364687 423.40683305 C377.51063879 424.64973116 377.51063879 424.64973116 377.17822647 425.91773832 C372.55359543 441.84601933 364.42871712 456.70317298 353.8364687 469.40683305 C353.03982807 470.37878618 352.24318745 471.3507393 351.4224062 472.35214555 C338.16906536 487.68758223 321.26174302 498.83410716 302.2739687 505.71933305 C301.63846088 505.94999467 301.00295307 506.18065629 300.34818745 506.41830766 C289.2246073 510.20171536 278.17852796 511.85534501 266.46053791 511.79451311 C265.1905858 511.79989864 263.92063368 511.80528418 262.61219817 511.81083292 C259.1306843 511.82513735 255.64941015 511.82109056 252.16788399 511.81366611 C248.39610498 511.80889902 244.62437524 511.82147534 240.8526125 511.83168352 C233.48003456 511.84880847 226.10754208 511.84972463 218.73494943 511.84447061 C212.73713688 511.84041562 206.73934942 511.84188819 200.74153805 511.84721887 C199.45703975 511.8483415 199.45703975 511.8483415 198.14659199 511.84948682 C196.4064839 511.85101843 194.66637581 511.85255677 192.92626772 511.85410178 C176.63739378 511.8678042 160.34856798 511.86240521 144.05969516 511.85091657 C129.18931128 511.84098815 114.3190519 511.85392213 99.44868722 511.87785076 C84.14439105 511.90229027 68.84015275 511.91183764 53.53583747 511.90519804 C44.95782081 511.90171637 36.37989981 511.90386787 27.801898 511.92144907 C20.49921076 511.93623197 13.19668654 511.9367276 5.89400228 511.91937815 C2.17533256 511.91091523 -1.54304671 511.90860164 -5.26170063 511.92402971 C-23.84449705 511.99564739 -40.6695185 511.32863529 -57.9135313 503.65683305 C-59.09773663 503.14249712 -59.09773663 503.14249712 -60.30586529 502.61777055 C-71.32210499 497.70622831 -80.99797495 491.23948987 -90.1635313 483.40683305 C-90.97306255 482.74296587 -91.7825938 482.07909868 -92.6166563 481.3951143 C-114.13838519 463.08810907 -127.60573915 435.18905081 -131.1635313 407.40683305 C-131.4242661 403.13121456 -131.44268437 398.87126252 -131.43095684 394.58858049 C-131.43548795 393.35441678 -131.44001907 392.12025306 -131.44468749 390.84869045 C-131.45508332 387.4577364 -131.4566702 384.06699612 -131.45429873 380.6760416 C-131.45388774 377.00508304 -131.46495651 373.33415518 -131.47441387 369.66321123 C-131.49096492 362.48355107 -131.49652076 355.30392376 -131.49763863 348.12424611 C-131.49859203 342.28182269 -131.50271687 336.43941001 -131.50903988 330.59698999 C-131.52663721 313.9968588 -131.53588126 297.39675338 -131.53437893 280.79661279 C-131.53429902 279.90332972 -131.53421911 279.01004664 -131.53413677 278.08969438 C-131.53405501 277.19530802 -131.53397325 276.30092166 -131.53388901 275.37943269 C-131.53307683 260.89826751 -131.55220137 246.41720651 -131.58041351 231.93607145 C-131.60921843 217.03185886 -131.62294959 202.12769695 -131.62122595 187.22345585 C-131.62056461 178.87002096 -131.62594385 170.51669527 -131.64758205 162.16328561 C-131.66589447 155.04872672 -131.6700595 147.93432651 -131.65656321 140.81975412 C-131.65008345 137.19805425 -131.64973235 133.57665788 -131.66726971 129.95498788 C-131.83745 92.42332656 -122.58138145 61.12803334 -96.0385313 33.78183305 C-81.38379716 19.23384516 -62.14854959 8.55204898 -42.1635313 3.40683305 C-41.28591011 3.15933274 -40.40828892 2.91183242 -39.50407314 2.6568321 C-26.50148151 -0.49944587 -13.30146967 -0.0291151 0 0 Z " fill="#0076DE" transform="translate(131.16353130340576,0.5931669473648071)"/>
<path d="M0 0 C0.62648438 0.39445313 1.25296875 0.78890625 1.8984375 1.1953125 C5.27828152 4.48339605 6.53277712 7.94252805 6.99249268 12.59074402 C7.00414873 14.00470732 6.99944617 15.41886691 6.98144531 16.83276367 C6.98346703 17.61584931 6.98548874 18.39893496 6.98757172 19.20575047 C6.99053528 21.81838714 6.97191344 24.43040472 6.953125 27.04296875 C6.95038895 28.91733668 6.94889385 30.79170677 6.94854736 32.66607666 C6.94351407 37.74187748 6.91917695 42.81742104 6.89089966 47.89313889 C6.8696864 52.12168767 6.85964144 56.35023245 6.84960938 60.57882023 C6.7407373 105.34617599 6.2285919 150.11191662 5.625 194.875 C6.62660156 194.85179687 7.62820313 194.82859375 8.66015625 194.8046875 C10.00259664 194.78591211 11.34504518 194.76771382 12.6875 194.75 C13.99847656 194.72679687 15.30945313 194.70359375 16.66015625 194.6796875 C23.07653927 194.99576548 28.02467707 196.27467707 32.625 200.875 C36.36584892 206.47723751 36.07388657 211.88119116 36 218.375 C36.01160156 219.39464844 36.02320313 220.41429687 36.03515625 221.46484375 C36.01035286 227.82277986 35.59409259 232.61982297 31.125 237.51953125 C26.75359324 240.92330891 23.91330705 241.99713485 18.44523621 242.02217102 C17.37277145 242.02932632 16.3003067 242.03648163 15.19534302 242.04385376 C14.01866058 242.04654266 12.84197815 242.04923157 11.62963867 242.05200195 C10.39038132 242.05857315 9.15112396 242.06514435 7.87431335 242.07191467 C3.76386271 242.09166302 -0.34654892 242.10331449 -4.45703125 242.11328125 C-5.87312019 242.11732951 -7.28920893 242.12144645 -8.70529747 242.12563133 C-15.35813819 242.14467767 -22.01096784 242.15891029 -28.66383058 242.1672433 C-36.33920934 242.17701631 -44.01429976 242.20333949 -51.68957692 242.24374419 C-57.62514101 242.2739167 -63.56062249 242.28871321 -69.49626178 242.29202431 C-73.0400505 242.29437339 -76.58353098 242.30331478 -80.12723732 242.32848549 C-84.08207022 242.35612324 -88.03652438 242.35193155 -91.99145508 242.3449707 C-93.74736969 242.36418579 -93.74736969 242.36418579 -95.53875732 242.38378906 C-101.80496584 242.34353517 -105.63213686 242.11900612 -110.375 237.875 C-115.6757695 232.36219972 -114.97082021 226.07748555 -114.875 218.875 C-114.89046875 217.71226562 -114.9059375 216.54953125 -114.921875 215.3515625 C-114.89255716 208.94561441 -114.80871828 204.67547807 -110.375 199.875 C-101.94260822 193.76151596 -94.42839191 195.875 -83.375 195.875 C-83.375 150.335 -83.375 104.795 -83.375 57.875 C-90.635 57.875 -97.895 57.875 -105.375 57.875 C-114.83762626 53.14368687 -114.83762626 53.14368687 -117.375 47.875 C-117.89257812 44.53515625 -117.89257812 44.53515625 -117.90625 40.9375 C-117.91140625 39.63039062 -117.9165625 38.32328125 -117.921875 36.9765625 C-117.91349609 36.30270508 -117.90511719 35.62884766 -117.89648438 34.93457031 C-117.8750486 32.87965877 -117.89632507 30.82824182 -117.921875 28.7734375 C-117.91671875 27.46632812 -117.9115625 26.15921875 -117.90625 24.8125 C-117.90173828 23.62527344 -117.89722656 22.43804687 -117.89257812 21.21484375 C-117.0486935 15.76939958 -114.74726712 12.94896318 -110.46166992 9.5949707 C-105.05748187 6.82595576 -98.9377343 6.81092432 -92.98828125 6.35546875 C-90.97638258 6.17833784 -88.96448789 6.00114044 -86.95288944 5.82063198 C-85.55416792 5.69551165 -84.15527484 5.57229573 -82.75622463 5.4509058 C-75.83262068 4.84636035 -68.93059318 4.08020412 -62.02654648 3.285923 C-59.97930268 3.05064724 -57.93174782 2.81829377 -55.88406372 2.58688354 C-50.36303611 1.96267128 -44.84244304 1.33474715 -39.32250977 0.70092773 C-35.86488678 0.30413817 -32.40673408 -0.0877243 -28.94820595 -0.47654152 C-27.0418915 -0.6922679 -25.13618996 -0.91338914 -23.23051453 -1.13468933 C-4.7751027 -3.20354992 -4.7751027 -3.20354992 0 0 Z " fill="#FEFEFE" transform="translate(297.375,201.125)"/>
<path d="M0 0 C6.34547713 -0.10311101 12.69073145 -0.17216504 19.03686523 -0.21972656 C21.1866869 -0.23959523 23.33645637 -0.26669965 25.48608398 -0.30175781 C61.58426153 -0.87487854 91.46899857 10.21987257 117.6875 35.25 C128.16815311 46.11597124 135.88384187 58.24044944 142 72 C142.72316406 73.59908203 142.72316406 73.59908203 143.4609375 75.23046875 C151.1376307 93.58474431 151.59215404 111.97972227 151.50823963 131.58722794 C151.49698231 135.25937538 151.50912027 138.93146359 151.51808167 142.60360718 C151.53191595 149.76999487 151.52453185 156.93620472 151.50940608 164.10258373 C151.4924294 172.4685316 151.49577072 180.8344366 151.49950016 189.2003964 C151.50536049 204.13696984 151.49127784 219.07345863 151.46655273 234.01000977 C151.44262444 248.46707327 151.43555588 262.92402376 151.44604492 277.38110352 C151.45748054 293.17086492 151.45935261 308.96057424 151.44494683 324.75033504 C151.44342117 326.43710601 151.44190081 328.12387698 151.44038582 329.81064796 C151.439628 330.64031722 151.43887019 331.46998647 151.43808941 332.32479721 C151.43336799 338.14143756 151.43518263 343.95805447 151.43945122 349.77469444 C151.4444019 356.87123163 151.43828693 363.96766247 151.41855692 371.06417545 C151.40875522 374.67739102 151.40350174 378.29044545 151.41144943 381.90366936 C151.46635215 409.79112656 151.46635215 409.79112656 148 423 C147.78278007 423.82859874 147.56556013 424.65719748 147.34175777 425.51090527 C142.71712674 441.43918628 134.59224842 456.29633993 124 469 C123.20335937 469.97195313 122.40671875 470.94390625 121.5859375 471.9453125 C108.33259667 487.28074917 91.42527433 498.4272741 72.4375 505.3125 C71.80199219 505.54316162 71.16648437 505.77382324 70.51171875 506.01147461 C68.35653171 506.7445076 66.1917141 507.38424323 64 508 C62.576875 508.40931763 62.576875 508.40931763 61.125 508.8269043 C50.15344452 511.59670022 39.36790533 511.33932792 28.125 511.1875 C26.16537494 511.17241598 24.20573857 511.1587342 22.24609375 511.14648438 C17.49711076 511.11379624 12.74868407 511.06222238 8 511 C8 510.67 8 510.34 8 510 C8.92558716 509.80591553 8.92558716 509.80591553 9.86987305 509.60791016 C31.04532805 505.04836759 50.13958097 497.87042005 67 484 C67.51852539 483.57638184 68.03705078 483.15276367 68.57128906 482.71630859 C91.79822017 463.40411041 106.4009932 434.87189021 110 405 C110.64674178 395.92775028 110.56658848 386.82783125 110.53755772 377.73749173 C110.53046231 374.12928902 110.54664071 370.52117077 110.55955505 366.91299438 C110.581031 359.87208009 110.58111062 352.83132843 110.57292951 345.79039224 C110.56659061 340.05878609 110.56780186 334.32722683 110.57420158 328.59562111 C110.57510324 327.77513852 110.57600489 326.95465594 110.57693387 326.10931024 C110.57878537 324.44168973 110.58064793 322.77406923 110.58252143 321.10644875 C110.59904311 305.52124484 110.59042928 289.93613186 110.57353585 274.35093347 C110.55884808 260.14453838 110.57346432 245.93835498 110.60230602 231.73198714 C110.63181667 217.08512922 110.64263821 202.43836858 110.63312382 187.79148227 C110.63210144 186.12959693 110.63110682 184.46771156 110.6301403 182.80582619 C110.62966391 181.98849335 110.62918752 181.17116051 110.6286967 180.32906001 C110.62654769 174.61735752 110.63625529 168.90574876 110.65091133 163.194067 C110.66857366 156.21445165 110.66812106 149.23510559 110.64555968 142.25550016 C110.63454113 138.70610504 110.63096606 135.15718181 110.64986038 131.60780907 C110.74984504 107.66178069 108.0838239 86.43569717 97 65 C96.68160156 64.36771484 96.36320312 63.73542969 96.03515625 63.08398438 C91.22890543 53.64099781 85.12724533 45.76218924 78 38 C77.27039063 37.18789063 76.54078125 36.37578125 75.7890625 35.5390625 C56.28873549 14.87886474 27.93020932 3.40777667 0 1 C0 0.67 0 0.34 0 0 Z " fill="#005EB0" transform="translate(361,1)"/>
<path d="M0 0 C0.62648438 0.39445313 1.25296875 0.78890625 1.8984375 1.1953125 C5.27828152 4.48339605 6.53277712 7.94252805 6.99249268 12.59074402 C7.00414873 14.00470732 6.99944617 15.41886691 6.98144531 16.83276367 C6.98346703 17.61584931 6.98548874 18.39893496 6.98757172 19.20575047 C6.99053528 21.81838714 6.97191344 24.43040472 6.953125 27.04296875 C6.95038895 28.91733668 6.94889385 30.79170677 6.94854736 32.66607666 C6.94351407 37.74187748 6.91917695 42.81742104 6.89089966 47.89313889 C6.8696864 52.12168767 6.85964144 56.35023245 6.84960938 60.57882023 C6.7407373 105.34617599 6.2285919 150.11191662 5.625 194.875 C6.62660156 194.85179687 7.62820313 194.82859375 8.66015625 194.8046875 C10.00259664 194.78591211 11.34504518 194.76771382 12.6875 194.75 C13.99847656 194.72679687 15.30945313 194.70359375 16.66015625 194.6796875 C23.07653927 194.99576548 28.02467707 196.27467707 32.625 200.875 C36.36584892 206.47723751 36.07388657 211.88119116 36 218.375 C36.01160156 219.39464844 36.02320313 220.41429687 36.03515625 221.46484375 C36.01035286 227.82277986 35.59409259 232.61982297 31.125 237.51953125 C25.63062033 241.79770709 21.59578776 242.01712177 14.83911133 241.98852539 C13.49246147 241.98874443 13.49246147 241.98874443 12.11860657 241.9889679 C9.14805697 241.98827064 6.17756991 241.98048697 3.20703125 241.97265625 C1.14865656 241.97079141 -0.90971858 241.96936782 -2.96809387 241.96836853 C-8.38830794 241.96454859 -13.80849524 241.95472273 -19.22869873 241.94366455 C-24.75858193 241.93343921 -30.28846945 241.9288685 -35.81835938 241.92382812 C-46.67058468 241.91310003 -57.52279011 241.89602984 -68.375 241.875 C-68.375 241.545 -68.375 241.215 -68.375 240.875 C-67.71180756 240.87135437 -67.04861511 240.86770874 -66.36532593 240.86395264 C-59.45429614 240.82209853 -52.54392865 240.75273176 -45.63330078 240.66748047 C-43.05524321 240.63927841 -40.47709929 240.61806013 -37.89892578 240.60400391 C-34.18998025 240.58256491 -30.48207207 240.53590604 -26.7734375 240.484375 C-25.62322113 240.48314636 -24.47300476 240.48191772 -23.28793335 240.48065186 C-17.04538538 240.36674588 -13.082115 240.14223442 -8.375 235.875 C-4.56838811 230.60677764 -4.92546408 225.11945347 -5 218.875 C-4.98839844 217.90304687 -4.97679687 216.93109375 -4.96484375 215.9296875 C-4.98701097 210.50610856 -5.2819968 206.52930385 -8.375 201.875 C-12.26337578 198.2782524 -15.40221279 196.89338162 -20.60546875 196.33984375 C-21.40791016 196.25283203 -22.21035156 196.16582031 -23.03710938 196.07617188 C-23.87048828 195.98916016 -24.70386719 195.90214844 -25.5625 195.8125 C-26.40748047 195.72162109 -27.25246094 195.63074219 -28.12304688 195.53710938 C-30.20671485 195.3134388 -32.29081795 195.09382849 -34.375 194.875 C-34.37085193 193.45313542 -34.37085193 193.45313542 -34.36662006 192.00254631 C-34.30003487 168.94267159 -34.25072911 145.88280934 -34.21956348 122.82285881 C-34.20409161 111.67125915 -34.1829959 100.51972298 -34.14868164 89.36816406 C-34.11878918 79.64898484 -34.09942733 69.92985159 -34.09273452 60.21062768 C-34.08882202 55.06390258 -34.07962031 49.91730903 -34.05780983 44.77062607 C-34.03744716 39.92633942 -34.03116579 35.08223851 -34.03567696 30.23791313 C-34.03485166 28.46015984 -34.02888471 26.68240034 -34.01738358 24.90468407 C-34.00244279 22.47617572 -34.00605198 20.0483673 -34.01423645 17.61984253 C-34.00112866 16.56631995 -34.00112866 16.56631995 -33.98775607 15.49151409 C-34.02955126 10.89874238 -34.97902731 7.78345769 -37.375 3.875 C-39.42446399 2.02184743 -39.42446399 2.02184743 -41.375 0.875 C-36.89670835 0.36695283 -32.41724835 -0.12997554 -27.9375 -0.625 C-26.67744141 -0.76808594 -25.41738281 -0.91117188 -24.11914062 -1.05859375 C-4.74476774 -3.18319861 -4.74476774 -3.18319861 0 0 Z " fill="#E4E5E6" transform="translate(297.375,201.125)"/>
<path d="M0 0 C9.38666873 8.0648119 14.80988438 19.18370395 17.46875 31.12109375 C18.52638173 48.30327481 15.71599811 62.85858056 4.28125 76.24609375 C-5.67126863 86.82166956 -18.15668744 93.41273776 -32.79296875 94.32421875 C-49.23741156 94.54922823 -62.46475396 89.37503113 -74.53125 78.12109375 C-85.55738547 66.23689326 -90.26923181 51.95326751 -89.875 35.85546875 C-88.62240458 22.2477276 -82.12964253 9.54910208 -72.17578125 0.22265625 C-49.44630158 -17.84006171 -22.95558456 -17.03956199 0 0 Z " fill="#FDFEFE" transform="translate(288.53125,76.87890625)"/>
<path d="M0 0 C9.38666873 8.0648119 14.80988438 19.18370395 17.46875 31.12109375 C18.52638173 48.30327481 15.71599811 62.85858056 4.28125 76.24609375 C-5.67126863 86.82166956 -18.15668744 93.41273776 -32.79296875 94.32421875 C-41.54544769 94.44397901 -50.05857948 94.1028741 -57.53125 89.12109375 C-56.603125 88.95609375 -55.675 88.79109375 -54.71875 88.62109375 C-44.4810565 85.67230576 -35.78168849 76.79772865 -30.62109375 67.78515625 C-23.0571517 53.55019752 -21.29506614 40.08446047 -25.5 24.1796875 C-29.92512853 11.05515857 -38.66867285 1.07343587 -50.53125 -5.87890625 C-51.541875 -6.49765625 -52.5525 -7.11640625 -53.59375 -7.75390625 C-54.233125 -8.12515625 -54.8725 -8.49640625 -55.53125 -8.87890625 C-41.72610833 -22.68404792 -11.99707018 -8.90523265 0 0 Z " fill="#E4E5E6" transform="translate(288.53125,76.87890625)"/>
</svg>
