<?xml version="1.0" encoding="UTF-8"?>
<svg version="1.1" xmlns="http://www.w3.org/2000/svg" width="512" height="512">
<path d="M0 0 C0.91297852 0.16628906 1.82595703 0.33257812 2.76660156 0.50390625 C47.36977944 8.7102831 89.06279656 28.98564534 123 59 C124.25296875 60.08667969 124.25296875 60.08667969 125.53125 61.1953125 C136.60647413 70.9400714 146.95114912 81.33962414 156 93 C156.763125 93.93457031 157.52625 94.86914062 158.3125 95.83203125 C166.15338144 105.62056753 172.62186966 116.21751208 179 127 C179.58394531 127.97743164 179.58394531 127.97743164 180.1796875 128.97460938 C195.3115154 154.60200963 204.68826154 184.6455857 209 214 C209.17732666 215.20462891 209.35465332 216.40925781 209.53735352 217.65039062 C211.136325 229.30767354 211.3584053 240.87186098 211.3125 252.625 C211.30976578 254.07983292 211.30976578 254.07983292 211.30697632 255.5640564 C211.26159053 269.91321045 210.76572938 283.88280259 208 298 C207.83371094 298.91297852 207.66742188 299.82595703 207.49609375 300.76660156 C199.83636923 342.3986228 181.59375117 381.16052206 155 414 C154.55994629 414.54446777 154.11989258 415.08893555 153.66650391 415.64990234 C142.18825137 429.72173929 129.42280936 442.93680647 115 454 C114.06929688 454.75925781 113.13859375 455.51851563 112.1796875 456.30078125 C102.39049585 464.14965998 91.78703526 470.61917978 81 477 C80.34837891 477.38929688 79.69675781 477.77859375 79.02539062 478.1796875 C53.39799037 493.3115154 23.3544143 502.68826154 -6 507 C-7.20462891 507.17732666 -8.40925781 507.35465332 -9.65039062 507.53735352 C-21.30767354 509.136325 -32.87186098 509.3584053 -44.625 509.3125 C-46.07983292 509.30976578 -46.07983292 509.30976578 -47.5640564 509.30697632 C-61.91321045 509.26159053 -75.88280259 508.76572938 -90 506 C-90.91297852 505.83371094 -91.82595703 505.66742188 -92.76660156 505.49609375 C-134.3986228 497.83636923 -173.16052206 479.59375117 -206 453 C-206.54446777 452.55994629 -207.08893555 452.11989258 -207.64990234 451.66650391 C-221.72173929 440.18825137 -234.93680647 427.42280936 -246 413 C-246.75925781 412.06929688 -247.51851562 411.13859375 -248.30078125 410.1796875 C-274.1596216 377.92831086 -290.62794761 338.47485354 -298 298 C-298.16371094 297.16436523 -298.32742188 296.32873047 -298.49609375 295.46777344 C-303.78656862 267.75836479 -303.41678597 235.64906696 -298 208 C-297.83371094 207.08702148 -297.66742188 206.17404297 -297.49609375 205.23339844 C-289.2897169 160.63022056 -269.01435466 118.93720344 -239 85 C-238.27554688 84.1646875 -237.55109375 83.329375 -236.8046875 82.46875 C-227.0599286 71.39352587 -216.66037586 61.04885088 -205 52 C-204.06542969 51.236875 -203.13085938 50.47375 -202.16796875 49.6875 C-169.90395064 23.84315173 -130.47895618 7.37279964 -90 0 C-89.16436523 -0.16371094 -88.32873047 -0.32742188 -87.46777344 -0.49609375 C-59.75836479 -5.78656862 -27.64906696 -5.41678597 0 0 Z M-201.52197266 77.72167969 C-202.86760772 78.8854962 -204.22052834 80.04087546 -205.57421875 81.1953125 C-209.7982655 84.85280629 -213.61136907 88.63278977 -217.2109375 92.90625 C-218.43041215 94.3334081 -219.68792852 95.72871479 -220.9765625 97.09375 C-231.87592761 108.66689405 -241.22093418 122.16299562 -249 136 C-249.41991211 136.74556152 -249.83982422 137.49112305 -250.27246094 138.25927734 C-264.31580612 163.48048741 -273.55581017 190.47941177 -278 219 C-278.11859375 219.75506836 -278.2371875 220.51013672 -278.359375 221.28808594 C-287.28979221 281.27603723 -270.0358334 343.7915094 -234.4375 392.375 C-229.90446779 398.24659063 -225.13191634 403.91426707 -220.27832031 409.52197266 C-219.1145038 410.86760772 -217.95912454 412.22052834 -216.8046875 413.57421875 C-213.14719371 417.7982655 -209.36721023 421.61136907 -205.09375 425.2109375 C-203.6665919 426.43041215 -202.27128521 427.68792852 -200.90625 428.9765625 C-189.33310595 439.87592761 -175.83700438 449.22093418 -162 457 C-161.25443848 457.41991211 -160.50887695 457.83982422 -159.74072266 458.27246094 C-134.51951259 472.31580612 -107.52058823 481.55581017 -79 486 C-77.86739746 486.17789063 -77.86739746 486.17789063 -76.71191406 486.359375 C-16.72396277 495.28979221 45.7915094 478.0358334 94.375 442.4375 C100.24659063 437.90446779 105.91426707 433.13191634 111.52197266 428.27832031 C112.86760772 427.1145038 114.22052834 425.95912454 115.57421875 424.8046875 C119.7982655 421.14719371 123.61136907 417.36721023 127.2109375 413.09375 C128.43041215 411.6665919 129.68792852 410.27128521 130.9765625 408.90625 C141.87592761 397.33310595 151.22093418 383.83700438 159 370 C159.41991211 369.25443848 159.83982422 368.50887695 160.27246094 367.74072266 C174.31580612 342.51951259 183.55581017 315.52058823 188 287 C188.17789063 285.86739746 188.17789063 285.86739746 188.359375 284.71191406 C197.28979221 224.72396277 180.0358334 162.2084906 144.4375 113.625 C139.90446779 107.75340937 135.13191634 102.08573293 130.27832031 96.47802734 C129.1145038 95.13239228 127.95912454 93.77947166 126.8046875 92.42578125 C123.14719371 88.2017345 119.36721023 84.38863093 115.09375 80.7890625 C113.6665919 79.56958785 112.27128521 78.31207148 110.90625 77.0234375 C99.33310595 66.12407239 85.83700438 56.77906582 72 49 C71.25443848 48.58008789 70.50887695 48.16017578 69.74072266 47.72753906 C44.51951259 33.68419388 17.52058823 24.44418983 -11 20 C-11.75506836 19.88140625 -12.51013672 19.7628125 -13.28808594 19.640625 C-81.67641931 9.45964139 -149.95114218 33.08595933 -201.52197266 77.72167969 Z " fill="#FF791C" transform="translate(301,3)"/>
<path d="M0 0 C0.86124481 -0.00960754 1.72248962 -0.01921509 2.60983276 -0.02911377 C3.53281158 -0.03336365 4.45579041 -0.03761353 5.40673828 -0.04199219 C6.8418425 -0.0505423 6.8418425 -0.0505423 8.30593872 -0.05926514 C10.3282969 -0.06870203 12.35067036 -0.07524391 14.37304688 -0.07910156 C17.45877 -0.08880967 20.54382756 -0.11984663 23.62939453 -0.15136719 C25.5968385 -0.15789749 27.56428723 -0.16314785 29.53173828 -0.16699219 C30.45066864 -0.17933899 31.369599 -0.19168579 32.31637573 -0.20440674 C37.46144702 -0.18660848 41.2463773 0.10991661 45.60205078 3.16113281 C48.33388203 6.89533794 48.96499406 9.44725678 48.88638306 14.03887939 C48.8683387 15.80455261 48.8683387 15.80455261 48.84992981 17.605896 C48.80771553 19.53057709 48.80771553 19.53057709 48.76464844 21.49414062 C48.74582177 22.86627207 48.72857433 24.23842596 48.71278381 25.6105957 C48.67710306 28.56320978 48.63352978 31.5155676 48.58482742 34.46799469 C48.51093849 39.15245736 48.4751572 43.83672609 48.44833374 48.52166748 C48.44363182 49.3142657 48.43892989 50.10686392 48.43408549 50.92348027 C48.42453981 52.5443746 48.41508036 54.16526944 48.40570521 55.78616476 C48.34107096 66.68662533 48.25190262 77.58538891 48.05712891 88.484375 C47.9258956 95.84399797 47.85638676 103.20147319 47.85552442 110.56230044 C47.85264929 114.45016953 47.81986567 118.33225963 47.71113968 122.21872711 C46.80045507 141.69106338 46.80045507 141.69106338 55.71028709 158.29728317 C58.61742157 161.00013331 61.60388477 163.48110891 64.84259605 165.7765007 C67.14553203 167.58883441 68.44577773 169.29751858 68.97314453 172.21191406 C69.09590148 176.39287134 69.00272107 179.29274257 66.35205078 182.66113281 C62.16610798 186.46653536 58.89528146 186.28741271 53.35229492 186.30639648 C52.08740738 186.31277634 50.82251984 186.31915619 49.51930237 186.32572937 C48.14193765 186.32725808 46.76457241 186.32837202 45.38720703 186.32910156 C43.97000597 186.33231639 42.55280523 186.33568063 41.13560486 186.33918762 C38.16746247 186.34516943 35.19934916 186.34702847 32.23120117 186.34643555 C28.43377386 186.34633391 24.63653344 186.35999231 20.83915043 186.37720776 C17.91286874 186.38834222 14.98663205 186.39035432 12.06033134 186.38982582 C10.6605407 186.39100351 9.2607488 186.39541347 7.86097908 186.40315819 C5.90107774 186.412988 3.9411214 186.40880807 1.98120117 186.40405273 C0.86741592 186.40547775 -0.24636932 186.40690277 -1.39390564 186.40837097 C-5.73342596 186.05122069 -8.46628193 184.99207931 -11.71044922 182.09863281 C-13.66179209 178.70185077 -14.28409826 176.5075646 -14.09716797 172.61425781 C-12.93245355 168.52799717 -10.27467324 165.98748142 -7.34326172 163.00878906 C-6.91722153 162.56740601 -6.49118134 162.12602295 -6.05223083 161.67126465 C-4.39794922 160.16113281 -4.39794922 160.16113281 -1.97816467 158.58557129 C3.21985285 154.64667759 5.70001907 151.39201729 6.60113525 144.96983337 C7.17632243 138.26991245 7.18120238 131.56485753 7.17626953 124.84472656 C7.20081932 122.34381727 7.22728471 119.84292612 7.25556946 117.34205627 C7.30181328 112.10570579 7.3084883 106.87102679 7.2902832 101.63452148 C7.26756624 94.96289439 7.37766903 88.30091113 7.51640606 81.63050747 C7.60565334 76.46437258 7.61577753 71.30021301 7.60434914 66.1334095 C7.61055902 63.67712664 7.64352762 61.22074487 7.70511436 58.76522636 C7.97231103 46.8187992 8.01815495 37.49757967 -0.5227766 28.45040226 C-3.44767751 25.69016254 -6.453459 23.09638027 -9.64227581 20.64575291 C-11.99918399 18.65272093 -13.27423126 16.92948643 -13.76904297 13.85644531 C-13.94849773 6.91049051 -13.94849773 6.91049051 -11.14794922 3.09863281 C-7.41731731 0.47023306 -4.49517819 0.04067057 0 0 Z " fill="#FF7422" transform="translate(228.39794921875,203.8388671875)"/>
<path d="M0 0 C6.47596946 5.76926644 10.34708791 12.52765432 11.37890625 21.17578125 C11.72302899 30.62250554 9.74979652 37.95348184 3.75 45.3125 C-2.08028092 51.45290224 -8.48593766 55.23574558 -17 56 C-27.16999054 56.23395107 -35.35915679 53.66079827 -42.875 46.6875 C-49.70609383 39.30862977 -51.43918435 31.34711949 -51.33984375 21.5234375 C-50.5439024 13.27126394 -47.10414325 5.91215598 -40.875 0.39453125 C-28.58234936 -8.74812767 -12.43397208 -9.39721352 0 0 Z " fill="#FF8410" transform="translate(276,129)"/>
</svg>
