<?xml version="1.0" encoding="UTF-8"?>
<svg version="1.1" xmlns="http://www.w3.org/2000/svg" width="512" height="512">
<path d="M0 0 C1.4172188 -0.00462449 2.83443278 -0.01098767 4.25163698 -0.01890898 C8.09547174 -0.03541344 11.93890287 -0.02744352 15.78273797 -0.0149641 C19.94779029 -0.00583739 24.11277775 -0.01992074 28.27781677 -0.03088379 C36.41716621 -0.04859302 44.55636741 -0.0448631 52.69572246 -0.03323323 C59.31563899 -0.0241691 65.93551422 -0.02298773 72.55543518 -0.02732849 C73.50059668 -0.02794142 74.44575818 -0.02855436 75.41956094 -0.02918586 C77.34013571 -0.03046487 79.26071046 -0.03176173 81.1812852 -0.03307623 C99.15549289 -0.04445977 117.12961873 -0.03140334 135.10381299 -0.00987476 C150.49873366 0.00799419 165.89353365 0.00488945 181.28845215 -0.0135498 C199.20198599 -0.03499594 217.11544824 -0.04336134 235.02899313 -0.03110075 C236.94217522 -0.02982666 238.85535732 -0.02856918 240.76853943 -0.02732849 C241.70965805 -0.02671139 242.65077668 -0.02609429 243.62041405 -0.02545848 C250.22600998 -0.0220168 256.8315602 -0.02780834 263.43714905 -0.0372467 C271.49629541 -0.04850977 279.5552861 -0.04533664 287.61441481 -0.02412373 C291.7197854 -0.01367093 295.82489723 -0.00939183 299.93026543 -0.02272034 C303.6993386 -0.03477121 307.46791683 -0.02787672 311.23694605 -0.00681013 C313.22259875 -0.0003308 315.20828672 -0.01316563 317.19390154 -0.02703905 C337.6523789 0.14834159 353.85569513 7.05239643 368.1619873 21.50793457 C368.76913574 22.09316895 369.37628418 22.67840332 370.00183105 23.28137207 C380.8488628 34.61752726 384.63165002 50.82804316 384.54966736 65.9805603 C384.55774567 67.79399703 384.55774567 67.79399703 384.56598717 69.64406884 C384.57774523 72.96915967 384.57623051 76.29374399 384.56882036 79.61881375 C384.56406471 83.21674449 384.5766196 86.81462297 384.58683777 90.41253662 C384.60398451 97.44930131 384.60487437 104.48597654 384.59962486 111.52275668 C384.59557416 117.24559947 384.59703739 122.96841593 384.60237312 128.69125748 C384.60312155 129.50752062 384.60386997 130.32378376 384.60464107 131.16478214 C384.60617264 132.82332277 384.60771098 134.48186339 384.60925604 136.140404 C384.6229662 151.67422264 384.61755388 167.20799084 384.60607082 182.74180831 C384.5961404 196.93286891 384.60907845 211.1237991 384.63300502 225.31483959 C384.65742525 239.90937431 384.66699668 254.50384836 384.66035229 269.0984031 C384.65686651 277.2828635 384.65904962 285.46722366 384.67660332 293.65166855 C384.69136196 300.61894374 384.69191314 307.58604807 384.67453241 314.55332004 C384.66604992 318.10338111 384.66380467 321.65313745 384.67918396 325.20318222 C384.69569611 329.06272269 384.68081558 332.92179859 384.66319275 336.78134155 C384.67279776 337.88769199 384.68240276 338.99404243 384.69229883 340.13391864 C384.53703846 356.74766303 377.69360042 371.99212107 366.09558105 383.74230957 C359.43382726 390.18045515 349.94129162 398.50793457 340.1619873 398.50793457 C340.13620605 399.51211426 340.1104248 400.51629395 340.0838623 401.55090332 C339.42349365 419.51337235 333.83171521 435.34927422 321.1619873 448.50793457 C305.52823512 462.04710946 288.75532059 467.15862228 268.32397461 467.01586914 C266.90675581 467.02049363 265.48954183 467.02685681 264.07233763 467.03477812 C260.22850287 467.05128259 256.38507174 467.04331266 252.54123664 467.03083324 C248.37618431 467.02170653 244.21119686 467.03578988 240.04615784 467.04675293 C231.9068084 467.06446216 223.7676072 467.06073224 215.62825215 467.04910237 C209.00833562 467.04003824 202.38846039 467.03885688 195.76853943 467.04319763 C194.82337793 467.04381056 193.87821643 467.0444235 192.90441367 467.045055 C190.9838389 467.04633401 189.06326415 467.04763087 187.14268941 467.04894537 C169.16848172 467.06032891 151.19435588 467.04727248 133.22016162 467.0257439 C117.82524095 467.00787495 102.43044096 467.01097969 87.03552246 467.02941895 C69.12198862 467.05086508 51.20852636 467.05923048 33.29498148 467.04696989 C31.38179939 467.04569581 29.46861729 467.04443832 27.55543518 467.04319763 C26.61431656 467.04258053 25.67319793 467.04196343 24.70356056 467.04132763 C18.09796463 467.03788594 11.49241441 467.04367748 4.88682556 467.05311584 C-3.1723208 467.06437891 -11.23131149 467.06120578 -19.2904402 467.03999287 C-23.39581079 467.02954007 -27.50092262 467.02526097 -31.60629082 467.03858948 C-35.37536399 467.05064035 -39.14394222 467.04374586 -42.91297144 467.02267927 C-44.89862415 467.01619994 -46.88431212 467.02903477 -48.86992693 467.04290819 C-68.47272581 466.87486287 -84.96718455 460.55061368 -98.8380127 446.50793457 C-99.47352051 445.89434082 -100.10902832 445.28074707 -100.76379395 444.64855957 C-112.10809378 432.87664755 -116.31182997 416.95264906 -116.22569275 401.04203796 C-116.23107829 399.83378571 -116.23646382 398.62553346 -116.24201256 397.38066751 C-116.2537706 394.05750718 -116.25225589 390.73485367 -116.24484575 387.41171443 C-116.24009004 383.81580957 -116.25264511 380.21995698 -116.26286316 376.62406921 C-116.28001031 369.59097952 -116.2808996 362.55797933 -116.27565026 355.52487417 C-116.2715993 349.80442365 -116.27306308 344.08399946 -116.27839851 338.36355019 C-116.27914694 337.54757577 -116.27989536 336.73160135 -116.28066646 335.89090044 C-116.28219803 334.23292554 -116.28373638 332.57495066 -116.28528143 330.91697577 C-116.29899197 315.38789576 -116.29357921 299.8588662 -116.28209621 284.32978735 C-116.27216774 270.1458688 -116.2851004 255.96208077 -116.30903041 241.77818235 C-116.33345687 227.18929286 -116.34302043 212.60046406 -116.33637768 198.01155454 C-116.33289302 189.83097463 -116.33506743 181.65049502 -116.35262871 173.46993065 C-116.36739524 166.50524589 -116.36792842 159.54073205 -116.3505578 152.57605048 C-116.34208138 149.02789074 -116.33981492 145.48003575 -116.35520935 141.9318924 C-116.44722138 119.04880293 -114.72038109 101.19486185 -98.20910645 83.82043457 C-92.12694302 77.88857172 -87.03010613 73.85717715 -78.9005127 71.19543457 C-74.54644717 69.37380466 -74.54644717 69.37380466 -72.03625488 65.57141113 C-70.85808275 60.69758714 -70.49717221 55.73034869 -70.08166504 50.7442627 C-68.68276697 37.90467722 -59.90741843 24.40765634 -50.14660645 16.26184082 C-34.80018285 4.32573358 -19.30657429 -0.13489439 0 0 Z " fill="#FEFEFE" transform="translate(121.8380126953125,22.4920654296875)"/>
<path d="M0 0 C1.4172188 -0.00462449 2.83443278 -0.01098767 4.25163698 -0.01890898 C8.09547174 -0.03541344 11.93890287 -0.02744352 15.78273797 -0.0149641 C19.94779029 -0.00583739 24.11277775 -0.01992074 28.27781677 -0.03088379 C36.41716621 -0.04859302 44.55636741 -0.0448631 52.69572246 -0.03323323 C59.31563899 -0.0241691 65.93551422 -0.02298773 72.55543518 -0.02732849 C73.50059668 -0.02794142 74.44575818 -0.02855436 75.41956094 -0.02918586 C77.34013571 -0.03046487 79.26071046 -0.03176173 81.1812852 -0.03307623 C99.15549289 -0.04445977 117.12961873 -0.03140334 135.10381299 -0.00987476 C150.49873366 0.00799419 165.89353365 0.00488945 181.28845215 -0.0135498 C199.20198599 -0.03499594 217.11544824 -0.04336134 235.02899313 -0.03110075 C236.94217522 -0.02982666 238.85535732 -0.02856918 240.76853943 -0.02732849 C241.70965805 -0.02671139 242.65077668 -0.02609429 243.62041405 -0.02545848 C250.22600998 -0.0220168 256.8315602 -0.02780834 263.43714905 -0.0372467 C271.49629541 -0.04850977 279.5552861 -0.04533664 287.61441481 -0.02412373 C291.7197854 -0.01367093 295.82489723 -0.00939183 299.93026543 -0.02272034 C303.6993386 -0.03477121 307.46791683 -0.02787672 311.23694605 -0.00681013 C313.22259875 -0.0003308 315.20828672 -0.01316563 317.19390154 -0.02703905 C337.6523789 0.14834159 353.85569513 7.05239643 368.1619873 21.50793457 C368.76913574 22.09316895 369.37628418 22.67840332 370.00183105 23.28137207 C380.8488628 34.61752726 384.63165002 50.82804316 384.54966736 65.9805603 C384.55774567 67.79399703 384.55774567 67.79399703 384.56598717 69.64406884 C384.57774523 72.96915967 384.57623051 76.29374399 384.56882036 79.61881375 C384.56406471 83.21674449 384.5766196 86.81462297 384.58683777 90.41253662 C384.60398451 97.44930131 384.60487437 104.48597654 384.59962486 111.52275668 C384.59557416 117.24559947 384.59703739 122.96841593 384.60237312 128.69125748 C384.60312155 129.50752062 384.60386997 130.32378376 384.60464107 131.16478214 C384.60617264 132.82332277 384.60771098 134.48186339 384.60925604 136.140404 C384.6229662 151.67422264 384.61755388 167.20799084 384.60607082 182.74180831 C384.5961404 196.93286891 384.60907845 211.1237991 384.63300502 225.31483959 C384.65742525 239.90937431 384.66699668 254.50384836 384.66035229 269.0984031 C384.65686651 277.2828635 384.65904962 285.46722366 384.67660332 293.65166855 C384.69136196 300.61894374 384.69191314 307.58604807 384.67453241 314.55332004 C384.66604992 318.10338111 384.66380467 321.65313745 384.67918396 325.20318222 C384.69569611 329.06272269 384.68081558 332.92179859 384.66319275 336.78134155 C384.67279776 337.88769199 384.68240276 338.99404243 384.69229883 340.13391864 C384.53703846 356.74766303 377.69360042 371.99212107 366.09558105 383.74230957 C359.43382726 390.18045515 349.94129162 398.50793457 340.1619873 398.50793457 C340.13620605 399.51211426 340.1104248 400.51629395 340.0838623 401.55090332 C339.42349365 419.51337235 333.83171521 435.34927422 321.1619873 448.50793457 C305.52823512 462.04710946 288.75532059 467.15862228 268.32397461 467.01586914 C266.90675581 467.02049363 265.48954183 467.02685681 264.07233763 467.03477812 C260.22850287 467.05128259 256.38507174 467.04331266 252.54123664 467.03083324 C248.37618431 467.02170653 244.21119686 467.03578988 240.04615784 467.04675293 C231.9068084 467.06446216 223.7676072 467.06073224 215.62825215 467.04910237 C209.00833562 467.04003824 202.38846039 467.03885688 195.76853943 467.04319763 C194.82337793 467.04381056 193.87821643 467.0444235 192.90441367 467.045055 C190.9838389 467.04633401 189.06326415 467.04763087 187.14268941 467.04894537 C169.16848172 467.06032891 151.19435588 467.04727248 133.22016162 467.0257439 C117.82524095 467.00787495 102.43044096 467.01097969 87.03552246 467.02941895 C69.12198862 467.05086508 51.20852636 467.05923048 33.29498148 467.04696989 C31.38179939 467.04569581 29.46861729 467.04443832 27.55543518 467.04319763 C26.61431656 467.04258053 25.67319793 467.04196343 24.70356056 467.04132763 C18.09796463 467.03788594 11.49241441 467.04367748 4.88682556 467.05311584 C-3.1723208 467.06437891 -11.23131149 467.06120578 -19.2904402 467.03999287 C-23.39581079 467.02954007 -27.50092262 467.02526097 -31.60629082 467.03858948 C-35.37536399 467.05064035 -39.14394222 467.04374586 -42.91297144 467.02267927 C-44.89862415 467.01619994 -46.88431212 467.02903477 -48.86992693 467.04290819 C-68.47272581 466.87486287 -84.96718455 460.55061368 -98.8380127 446.50793457 C-99.47352051 445.89434082 -100.10902832 445.28074707 -100.76379395 444.64855957 C-112.10809378 432.87664755 -116.31182997 416.95264906 -116.22569275 401.04203796 C-116.23107829 399.83378571 -116.23646382 398.62553346 -116.24201256 397.38066751 C-116.2537706 394.05750718 -116.25225589 390.73485367 -116.24484575 387.41171443 C-116.24009004 383.81580957 -116.25264511 380.21995698 -116.26286316 376.62406921 C-116.28001031 369.59097952 -116.2808996 362.55797933 -116.27565026 355.52487417 C-116.2715993 349.80442365 -116.27306308 344.08399946 -116.27839851 338.36355019 C-116.27914694 337.54757577 -116.27989536 336.73160135 -116.28066646 335.89090044 C-116.28219803 334.23292554 -116.28373638 332.57495066 -116.28528143 330.91697577 C-116.29899197 315.38789576 -116.29357921 299.8588662 -116.28209621 284.32978735 C-116.27216774 270.1458688 -116.2851004 255.96208077 -116.30903041 241.77818235 C-116.33345687 227.18929286 -116.34302043 212.60046406 -116.33637768 198.01155454 C-116.33289302 189.83097463 -116.33506743 181.65049502 -116.35262871 173.46993065 C-116.36739524 166.50524589 -116.36792842 159.54073205 -116.3505578 152.57605048 C-116.34208138 149.02789074 -116.33981492 145.48003575 -116.35520935 141.9318924 C-116.44722138 119.04880293 -114.72038109 101.19486185 -98.20910645 83.82043457 C-92.12694302 77.88857172 -87.03010613 73.85717715 -78.9005127 71.19543457 C-74.54644717 69.37380466 -74.54644717 69.37380466 -72.03625488 65.57141113 C-70.85808275 60.69758714 -70.49717221 55.73034869 -70.08166504 50.7442627 C-68.68276697 37.90467722 -59.90741843 24.40765634 -50.14660645 16.26184082 C-34.80018285 4.32573358 -19.30657429 -0.13489439 0 0 Z M-90.8380127 99.50793457 C-97.93881383 109.48133252 -100.29198013 118.44397817 -100.22569275 130.5881958 C-100.23107829 131.77911056 -100.23646382 132.97002532 -100.24201256 134.1970284 C-100.25379438 137.48096429 -100.2522442 140.7645721 -100.24484575 144.04851055 C-100.24009911 147.59876004 -100.25263725 151.14895609 -100.26286316 154.69918823 C-100.28002859 161.64665777 -100.28089569 168.59403677 -100.27565026 175.541522 C-100.27160231 181.19194897 -100.27305952 186.84234926 -100.27839851 192.49277496 C-100.27952115 193.70092398 -100.27952115 193.70092398 -100.28066646 194.93348004 C-100.28219801 196.56995573 -100.28373636 198.20643142 -100.28528143 199.8429071 C-100.29899887 215.17832962 -100.2935746 230.51370109 -100.28209621 245.84912243 C-100.27216953 259.85924812 -100.28509607 273.86924164 -100.30903041 287.87934694 C-100.33345221 302.28397644 -100.34302141 316.68854447 -100.33637768 331.09319425 C-100.33289166 339.17260916 -100.33507633 347.25192252 -100.35262871 355.33132172 C-100.36738949 362.2108114 -100.367936 369.09012805 -100.3505578 375.96961448 C-100.3420762 379.47510714 -100.33982771 382.98029122 -100.35520935 386.48576736 C-100.36845434 390.29737929 -100.3568389 394.10816184 -100.33921814 397.91973877 C-100.34882315 399.01188966 -100.35842815 400.10404054 -100.36832422 401.22928691 C-100.23187221 415.65385443 -95.2313131 426.77383884 -85.5255127 437.25793457 C-74.19715155 447.95694232 -60.63675938 451.11949515 -45.46755981 451.02259827 C-44.052367 451.02793485 -42.63717986 451.03500689 -41.22200334 451.04364532 C-37.36528043 451.06215274 -33.50894462 451.05600923 -29.65220642 451.04549229 C-25.48029814 451.03846614 -21.30846668 451.05452404 -17.13658142 451.06748962 C-8.97597244 451.08907837 -0.81550318 451.08901585 7.34512495 451.08086408 C13.98136472 451.07455167 20.61756389 451.07571248 27.25380325 451.08213615 C28.67322461 451.08348864 28.67322461 451.08348864 30.12132115 451.08486844 C32.04399351 451.08671974 33.96666587 451.0885823 35.88933821 451.090456 C53.89970746 451.1070168 71.90999826 451.09833011 89.92036279 451.08147042 C106.37722031 451.06677709 122.8338952 451.08139976 139.29072921 451.11024059 C156.2120023 451.1396732 173.13319122 451.15059547 190.05448878 451.14105839 C191.97050578 451.14003589 193.8865228 451.13904128 195.80253983 451.13807487 C197.21640982 451.13736029 197.21640982 451.13736029 198.65884285 451.13663127 C205.28137725 451.13447213 211.90383148 451.1442446 218.52634811 451.1588459 C226.60543422 451.17641101 234.68428764 451.1761922 242.76336478 451.15349425 C246.88066681 451.14238952 250.99755953 451.1391032 255.11484337 451.15779495 C258.89269736 451.17472422 262.669789 451.1680831 266.44759472 451.14357816 C268.44287818 451.13646139 270.43820416 451.15362124 272.43341577 451.1719895 C286.40820203 451.02914549 298.57200483 446.40791863 308.9119873 437.00793457 C310.0257373 435.77043457 310.0257373 435.77043457 311.1619873 434.50793457 C311.9663623 433.66230957 312.7707373 432.81668457 313.5994873 431.94543457 C319.26662869 425.05491029 323.27543736 416.40379304 323.29900169 407.46054935 C323.30407624 406.43648395 323.30915078 405.41241854 323.3143791 404.35732085 C323.31487685 403.23390097 323.31537461 402.11048109 323.31588745 400.95301819 C323.32026971 399.75820845 323.32465196 398.56339871 323.32916701 397.33238262 C323.34022506 394.0144435 323.34677742 390.69655146 323.35134816 387.37860072 C323.35731023 383.80032884 323.36891873 380.22207427 323.37963867 376.64381409 C323.40415144 368.00018847 323.41878952 359.35655713 323.43169874 350.71290746 C323.43541192 348.27031481 323.43938507 345.82772273 323.4434514 343.38513064 C323.46869255 328.20824198 323.49073989 313.03135239 323.50317955 297.85444736 C323.50610913 294.33961038 323.5090708 290.82477343 323.51208496 287.30993652 C323.51320404 285.99958347 323.51320404 285.99958347 323.51434572 284.66275864 C323.52698947 270.52297377 323.56019973 256.38331493 323.60188679 242.24358893 C323.64436193 227.71708929 323.66788114 213.19065405 323.67310011 198.66409248 C323.67650824 190.51189748 323.68819232 182.35989931 323.72120285 174.20776558 C323.74928153 167.26227579 323.76016866 160.31702319 323.74900739 153.37148107 C323.74384029 149.83151234 323.74657871 146.29203968 323.77147293 142.75214386 C323.79831332 138.90313257 323.78583842 135.05478753 323.76998901 131.20570374 C323.7838711 130.10236035 323.79775319 128.99901697 323.81205595 127.86223894 C323.67599559 114.38051408 318.32561382 103.8583223 309.06433105 94.35559082 C297.02235702 82.95075827 283.18264551 80.04447955 267.01895142 80.12025452 C265.61628637 80.11607382 264.21362471 80.11059229 262.81096923 80.10393471 C258.98431657 80.08955777 255.15788071 80.09370034 251.33121657 80.10110152 C247.19340639 80.10585022 243.05564198 80.09330834 238.91784668 80.08308411 C230.82229265 80.06592396 222.72681633 80.06505031 214.63124885 80.07029701 C208.0483766 80.07434517 201.46552725 80.07288749 194.8826561 80.06754875 C193.47508755 80.06642612 193.47508755 80.06642612 192.03908326 80.06528081 C190.13251464 80.06374926 188.22594602 80.06221092 186.31937741 80.06066584 C168.45641559 80.04695085 150.59349761 80.05237143 132.7305368 80.06385105 C116.40552903 80.07378217 100.08063462 80.06084306 83.75564434 80.03691686 C66.97340737 80.01250673 50.19122316 80.00292271 33.40896881 80.00956959 C23.99490364 80.01305758 14.58092563 80.01085751 5.16687393 79.99331856 C-2.84709083 79.97857263 -10.86090705 79.97799231 -18.87486897 79.99538947 C-22.95958643 80.00388223 -27.04403882 80.00609149 -31.12874222 79.99073792 C-34.87564603 79.97682899 -38.62205924 79.9817326 -42.36893512 80.00097715 C-44.35009098 80.00647674 -46.33127222 79.99251758 -48.31237972 79.97762305 C-65.1817888 80.11519475 -79.99370652 86.33305383 -90.8380127 99.50793457 Z " fill="#020326" transform="translate(121.8380126953125,22.4920654296875)"/>
<path d="M0 0 C1.41173614 -0.0044571 2.82346979 -0.00977269 4.23519981 -0.01586872 C8.10085568 -0.03000263 11.96643097 -0.03171289 15.83210897 -0.03127182 C20.00679773 -0.03292411 24.18145368 -0.04599832 28.35612488 -0.0574646 C37.47820062 -0.08028197 46.60025305 -0.08823171 55.72235346 -0.09329104 C61.42252987 -0.09655189 67.12269956 -0.10307671 72.82287216 -0.11029243 C88.61764114 -0.12985417 104.41240388 -0.14626086 120.20718575 -0.14916897 C121.21727357 -0.14935654 122.22736139 -0.14954411 123.26805793 -0.14973736 C125.31558378 -0.1501036 127.36310964 -0.1504673 129.41063549 -0.15082847 C130.42697362 -0.15101128 131.44331174 -0.1511941 132.490448 -0.15138245 C133.50803251 -0.151563 134.52561702 -0.15174354 135.57403742 -0.15192956 C152.05700532 -0.15547009 168.53984248 -0.18248678 185.02276506 -0.21988034 C201.9619788 -0.25800025 218.90112774 -0.27732671 235.84038532 -0.27762848 C245.34454394 -0.27821222 254.84854658 -0.28665052 264.35266495 -0.31562614 C272.44646846 -0.34018934 280.54005912 -0.34738967 288.63388987 -0.33237862 C292.7592785 -0.32522985 296.88424721 -0.32597866 301.00958824 -0.34878922 C304.79498192 -0.36951851 308.57963659 -0.3666508 312.36502348 -0.34591437 C314.36449096 -0.34081766 316.36397622 -0.3600914 318.36334527 -0.38057607 C333.1492003 -0.24472374 345.56704575 4.98024382 356.29806519 15.02415466 C366.13430778 25.31106176 369.57468474 36.36179753 369.49824524 50.31645203 C369.50632355 52.09669883 369.50632355 52.09669883 369.51456505 53.91291022 C369.52634647 57.18544493 369.52479689 60.45765038 369.51739824 63.73018765 C369.51265145 67.26816717 369.52518987 70.80609307 369.53541565 74.34405518 C369.55258079 81.26746133 369.55344824 88.19077663 369.54820275 95.11419854 C369.54415475 100.74507939 369.54561208 106.37593347 369.550951 112.00681305 C369.55169943 112.80947036 369.55244785 113.61212768 369.55321895 114.43910794 C369.5547505 116.06994663 369.55628885 117.70078532 369.55783392 119.331624 C369.57155125 134.61411146 369.56612717 149.89654768 369.5546487 165.17903396 C369.54472205 179.14066088 369.55764852 193.10215516 369.5815829 207.06376162 C369.60600497 221.41867063 369.61557383 235.77351794 369.60893017 250.12844729 C369.60544421 258.17991667 369.60762843 266.23128413 369.6251812 274.28273773 C369.63994232 281.13843905 369.64048805 287.99396673 369.62311029 294.84966478 C369.61462897 298.34300622 369.61237951 301.83603801 369.62776184 305.32936287 C369.64100756 309.12783857 369.62939077 312.92548213 369.61177063 316.72392273 C369.62137564 317.81218267 369.63098064 318.90044261 369.64087671 320.02168012 C369.50919679 333.89504512 364.83361448 346.49929306 355.23556519 356.58665466 C346.05465748 365.27415466 346.05465748 365.27415466 340.11056519 365.27415466 C340.11023913 364.44851792 340.11023913 364.44851792 340.10990649 363.60620165 C340.09636886 330.92981177 340.05678138 298.25357089 339.98370956 265.57726285 C339.97494359 261.64728839 339.96639364 257.71731348 339.95797729 253.78733826 C339.95629823 253.00500354 339.95461917 252.22266882 339.95288923 251.41662699 C339.92627322 238.77567029 339.91712803 226.13475895 339.91452376 213.4937771 C339.91145629 200.50753424 339.88941819 187.52142176 339.85004061 174.53523779 C339.82636339 166.53232068 339.8172027 158.52966441 339.82705208 150.52671719 C339.83303347 144.37349243 339.81252615 138.22060561 339.78250504 132.0674572 C339.77430508 129.55537667 339.77448214 127.04325161 339.78396797 124.53117561 C339.86445071 100.86179017 336.14928192 83.67668741 319.11056519 66.27415466 C318.3332605 65.44270935 318.3332605 65.44270935 317.54025269 64.59446716 C313.67066723 60.84643936 309.04680923 58.4742313 304.29806519 56.02415466 C303.64636353 55.68239197 302.99466187 55.34062927 302.32321167 54.98851013 C292.59188053 50.17738029 282.68925808 49.97969754 272.00030518 49.99568176 C270.58923927 49.99067087 269.17817622 49.98479277 267.76711714 49.97812903 C263.91316062 49.96241091 260.05927716 49.95890289 256.20529246 49.95748043 C252.04044591 49.953772 247.87563877 49.93860938 243.71081543 49.92486572 C236.50276481 49.90263427 229.29472829 49.88759628 222.08665085 49.87749863 C211.66509426 49.86288878 201.2435868 49.83734551 190.82205911 49.80916734 C173.9122187 49.7637412 157.0023712 49.72710914 140.09249878 49.69602966 C123.66996008 49.665827 107.24743871 49.63146884 90.82492065 49.59153748 C89.81196939 49.58907593 88.79901813 49.58661438 87.75537138 49.58407824 C82.67349333 49.5717033 77.59161548 49.55924683 72.50973773 49.54674983 C30.37670434 49.4432446 -11.7563504 49.35402073 -53.88943481 49.27415466 C-53.90741341 47.50677659 -53.92026676 45.73934586 -53.93093872 43.97190857 C-53.93864288 42.98767914 -53.94634705 42.00344971 -53.95428467 40.98939514 C-53.7237841 31.33841782 -47.74010357 22.5197638 -41.45193481 15.58665466 C-40.60630981 14.82352966 -39.76068481 14.06040466 -38.88943481 13.27415466 C-38.38927856 12.79333435 -37.88912231 12.31251404 -37.37380981 11.81712341 C-26.41838104 1.70638891 -14.37370695 -0.0266671 0 0 Z " fill="#FACC0E" transform="translate(120.88943481445313,38.72584533691406)"/>
<path d="M0 0 C0.9778093 -0.00554901 1.95561859 -0.01109802 2.96305847 -0.01681519 C6.19136748 -0.02861436 9.41827378 -0.00433254 12.64648438 0.02148438 C14.89180436 0.02319546 17.13712635 0.02312982 19.38244629 0.0213623 C24.08670174 0.02301571 28.79048076 0.04171827 33.49462891 0.07324219 C39.52404007 0.11291941 45.55282712 0.11728746 51.58234406 0.10977936 C56.2183402 0.10670954 60.85419609 0.11883071 65.49015808 0.13591003 C67.71330383 0.14294039 69.93646548 0.14606452 72.15962219 0.1452179 C75.26686319 0.14701597 78.37335698 0.16839946 81.48046875 0.1953125 C82.39906174 0.1923819 83.31765472 0.18945129 84.26408386 0.18643188 C89.05386571 0.25042776 92.37603763 0.45115905 96.24023438 3.61523438 C99.08264703 9.30005969 95.81911202 17.92478555 94.42773438 23.86523438 C94.27473877 24.51886963 94.12174316 25.17250488 93.96411133 25.84594727 C92.88881279 30.28068913 91.65767252 34.65904783 90.38476562 39.04101562 C87.95089229 47.49135139 85.84389107 56.0152598 83.74023438 64.55273438 C76.4996274 93.87009398 76.4996274 93.87009398 72.99023438 104.55273438 C70.13047479 114.52233104 69.04448693 127.20913986 74.24023438 136.61523438 C76.57339357 139.36502915 77.78332357 139.56040508 81.36523438 139.99023438 C90.1854205 139.13666798 97.21794349 135.85196472 104.7109375 131.30859375 C109.44193863 128.57975636 112.77965899 128.11881843 118.24023438 128.61523438 C120.74023438 130.17773438 120.74023438 130.17773438 122.24023438 132.61523438 C123.18930622 139.4126408 120.5696561 143.06025179 116.80273438 148.36523438 C116.25576904 149.15800781 115.70880371 149.95078125 115.14526367 150.76757812 C110.80744969 156.98492133 106.23025463 162.90453478 101.24023438 168.61523438 C100.52480469 169.4634375 99.809375 170.31164062 99.07226562 171.18554688 C86.81803736 185.3700872 69.16019103 199.36028284 49.77148438 200.88867188 C35.5825778 201.39712093 25.00310646 197.08720726 14.24023438 187.61523438 C7.82819953 181.04364656 3.46981606 174.18506924 0.24023438 165.61523438 C-0.21996094 164.40480469 -0.21996094 164.40480469 -0.68945312 163.16992188 C-7.00275537 145.43254889 -5.50771955 122.60424947 -0.75976562 104.61523438 C-0.48132813 103.51308594 -0.20289063 102.4109375 0.08398438 101.27539062 C0.89337214 98.17390043 1.73756136 95.08377541 2.59082031 91.99414062 C6.75866436 76.72666978 10.59319426 61.38487502 14.09765625 45.95239258 C16.33022165 36.13500385 18.75186052 26.37054072 21.24023438 16.61523438 C20.29180664 16.64141846 19.34337891 16.66760254 18.36621094 16.69458008 C14.84001447 16.77990522 11.31491772 16.84252967 7.78808594 16.88989258 C6.26317007 16.91500541 4.73837422 16.9491032 3.21386719 16.99243164 C1.01923011 17.05323482 -1.17381372 17.08147325 -3.36914062 17.10351562 C-4.68881836 17.12969971 -6.00849609 17.15588379 -7.36816406 17.18286133 C-10.75976562 16.61523438 -10.75976562 16.61523438 -13.18652344 14.2722168 C-15.13233402 10.98601931 -15.46412368 9.37181067 -14.75976562 5.61523438 C-10.53596438 -0.196744 -6.65126064 -0.09603524 0 0 Z " fill="#040527" transform="translate(179.759765625,232.384765625)"/>
<path d="M0 0 C13.86 0 27.72 0 42 0 C41.09744562 5.41532629 39.96065823 10.6674406 38.6875 16 C38.48705078 16.85722656 38.28660156 17.71445312 38.08007812 18.59765625 C36.88410867 23.62591174 35.55722734 28.59570021 34.11328125 33.55859375 C31.44795355 42.7738559 29.20305986 52.08982738 26.92724609 61.4074707 C26.36096648 63.72167318 25.79087488 66.03489232 25.21875 68.34765625 C24.94272194 69.4700621 24.94272194 69.4700621 24.66111755 70.61514282 C23.54194358 75.08721443 22.22537264 79.43655547 20.75390625 83.80859375 C18.72290663 90.25153859 18.34512331 96.27407359 18.4375 103 C18.44845703 104.1341333 18.45941406 105.2682666 18.47070312 106.43676758 C18.71354057 115.81771288 19.58980721 123.87848579 25.9375 131.25 C31.89686034 136.84818698 37.34749826 138.28333773 45.3125 138.625 C46.42334961 138.68300781 46.42334961 138.68300781 47.55664062 138.7421875 C49.37071309 138.83581705 51.18532116 138.91896851 53 139 C46.64694926 150.64371842 35.31471034 158.63809135 24 165 C22.94232422 165.60328125 22.94232422 165.60328125 21.86328125 166.21875 C15.48703958 169.2063166 7.82290863 168.87362111 1 168 C-7.89288435 164.7412652 -15.43946779 157.42855521 -19.8125 149.125 C-33.098241 119.95899618 -22.25488039 89.46945108 -14.7326355 60.30319214 C-10.09078619 42.30336172 -5.51249835 24.30867849 -1.48974609 6.15844727 C-1.02241205 4.09877614 -0.51224111 2.04896444 0 0 Z " fill="#F9CC0E" transform="translate(217,249)"/>
<path d="M0 0 C7.41402178 4.72462172 13.80201459 12.23490706 16.55078125 20.7578125 C18.6908927 32.9356148 17.59708215 44.25670855 10.3828125 54.5703125 C3.12276371 63.41225266 -5.9220537 69.36702059 -17.4375 70.65234375 C-28.60765572 71.01897906 -37.43681033 68.41307854 -46.01171875 61.16796875 C-53.81912471 53.74252981 -59.10803843 43.68876369 -59.5703125 32.76953125 C-58.90991376 20.84759602 -54.56021588 11.39566304 -45.90625 3.3046875 C-32.39433742 -7.98706983 -15.07233512 -9.04861642 0 0 Z " fill="#040527" transform="translate(269.0078125,148.73046875)"/>
<path d="M0 0 C6.56753424 2.9103191 11.27941513 8.31708414 14.1171875 14.8203125 C15.17441433 22.35305368 14.04469374 29.08620931 9.6171875 35.3828125 C5.63493154 39.55955073 1.53047553 43.05140672 -4.3359375 43.71875 C-12.09156436 43.81064131 -18.03912858 43.44147779 -23.87109375 37.9921875 C-29.37775857 31.81952487 -30.96789296 26.47635479 -30.7265625 18.3515625 C-29.90630158 11.26749096 -26.58550489 7.02045767 -21.1640625 2.609375 C-14.83712978 -1.74732867 -7.3928048 -1.91485764 0 0 Z " fill="#F9CB0E" transform="translate(256.3828125,159.6171875)"/>
</svg>
