<?xml version="1.0" encoding="UTF-8"?>
<svg version="1.1" xmlns="http://www.w3.org/2000/svg" width="256" height="256">
<path d="M0 0 C0.68002414 -0.00226556 1.36004827 -0.00453111 2.0606792 -0.00686532 C4.32658281 -0.01316701 6.59242602 -0.01237843 8.8583374 -0.0115509 C10.48829729 -0.01454482 12.11825647 -0.01794789 13.74821472 -0.02172852 C18.1678152 -0.03054992 22.58739631 -0.03290587 27.00700474 -0.0335443 C29.77136244 -0.03425597 32.53571524 -0.03639251 35.30007172 -0.03904152 C44.95312308 -0.04828944 54.60616066 -0.05237718 64.25921631 -0.05158997 C73.24210843 -0.05098962 82.22494041 -0.06153442 91.20781732 -0.07733363 C98.93202503 -0.09043253 106.65621316 -0.09577286 114.38043189 -0.09513456 C118.98836619 -0.09488022 123.59624704 -0.09769568 128.20417023 -0.10831261 C132.54129384 -0.11803295 136.87831335 -0.1180459 141.21544075 -0.11079597 C142.80122849 -0.10975495 144.38702285 -0.11208419 145.9727993 -0.11815643 C158.60857363 -0.16338131 169.72342065 0.04237864 180.00579834 8.13371277 C189.36109197 17.64727264 190.45494189 26.89347306 190.40985107 39.74455261 C190.41556103 41.21717851 190.42252771 42.68979998 190.4306488 44.16241455 C190.44852772 48.14395456 190.44742166 52.12527354 190.44170642 56.10684156 C190.43860649 59.43914156 190.44471604 62.7713996 190.45074517 66.1036936 C190.46477189 73.96985559 190.46324496 81.83590893 190.45184326 89.70207214 C190.44036755 97.79783178 190.45443262 105.89325992 190.48123974 113.98897588 C190.5034441 120.9574123 190.51002336 127.92574502 190.50416332 134.89421427 C190.50080339 139.04834028 190.50314412 143.20225392 190.52041435 147.35634995 C190.53595694 151.26519069 190.53184778 155.17354307 190.51310921 159.08236504 C190.50944323 160.5101214 190.51247321 161.93791453 190.522995 163.36563683 C190.60180753 174.95183038 188.96113771 183.78747589 180.87689209 192.37590027 C177.29670789 195.73933011 173.71835052 198.56286204 169.00579834 200.13371277 C168.18820538 202.82558372 168.18820538 202.82558372 167.69329834 206.07121277 C165.81804776 214.93250046 162.16446415 222.23587753 154.92767334 227.88761902 C147.31696156 232.82220654 139.99391715 234.25215363 130.98709106 234.27415466 C130.30439451 234.27712579 129.62169795 234.28009691 128.91831362 234.28315806 C126.64326334 234.29179137 124.36826601 234.29334875 122.09320068 234.29484558 C120.45663339 234.29947763 118.82006717 234.30450281 117.1835022 234.30989075 C112.74517718 234.32298111 108.30686727 234.32945335 103.86852598 234.33390141 C101.09142194 234.3368381 98.31432198 234.34094407 95.53722 234.34540558 C86.83619532 234.35907283 78.13518 234.36874277 69.43414533 234.37260747 C59.41291626 234.3770838 49.39182387 234.39461521 39.37063634 234.42360806 C31.60987967 234.44527636 23.84916131 234.45531452 16.08837473 234.45664859 C11.46022377 234.45769311 6.83220143 234.46352513 2.20408249 234.4814682 C-2.15442199 234.49803773 -6.51270237 234.50006164 -10.87122726 234.49132919 C-12.46262974 234.4905635 -14.0540447 234.49483917 -15.64541626 234.50478745 C-29.15605477 234.58423095 -41.62351154 233.71091592 -51.99420166 224.13371277 C-57.43091946 217.64800171 -60.23570031 211.23972484 -60.2616272 202.70223999 C-60.27015717 201.42804703 -60.27868713 200.15385406 -60.28747559 198.84104919 C-60.28677666 197.4414519 -60.28585365 196.04185471 -60.284729 194.64225769 C-60.29071779 193.15845401 -60.29752414 191.67465344 -60.30508423 190.19085693 C-60.32271643 186.17005827 -60.32743845 182.14934478 -60.3287158 178.12851119 C-60.3301396 175.61340883 -60.33441354 173.09832798 -60.33971024 170.58323097 C-60.3582017 161.80015824 -60.366382 153.01714612 -60.36480713 144.23405457 C-60.36360614 136.06107839 -60.3847022 127.88836647 -60.41629446 119.71545714 C-60.44249052 112.68679099 -60.45317302 105.65821096 -60.45189631 98.6294964 C-60.45138763 94.43679367 -60.45701846 90.24432586 -60.47825241 86.05167198 C-60.49769102 82.10594798 -60.49772128 78.16068166 -60.48321915 74.21494102 C-60.48113685 72.77224556 -60.48579731 71.32952102 -60.49794006 69.88687515 C-60.5620169 61.74232502 -60.20373118 55.22753845 -55.99420166 48.13371277 C-55.61568243 47.48145312 -55.2371632 46.82919348 -54.84717369 46.15716839 C-51.29606633 40.3177158 -45.42227277 36.27640314 -38.99420166 34.13371277 C-38.17688872 31.17665193 -38.17688872 31.17665193 -37.68170166 27.63371277 C-35.91435659 18.6230001 -32.18596459 12.16497032 -24.98248291 6.41496277 C-17.26256607 1.44024229 -9.05251281 0.01250671 0 0 Z " fill="#FEFEFE" transform="translate(62.99420166015625,10.866287231445313)"/>
<path d="M0 0 C0.68002414 -0.00226556 1.36004827 -0.00453111 2.0606792 -0.00686532 C4.32658281 -0.01316701 6.59242602 -0.01237843 8.8583374 -0.0115509 C10.48829729 -0.01454482 12.11825647 -0.01794789 13.74821472 -0.02172852 C18.1678152 -0.03054992 22.58739631 -0.03290587 27.00700474 -0.0335443 C29.77136244 -0.03425597 32.53571524 -0.03639251 35.30007172 -0.03904152 C44.95312308 -0.04828944 54.60616066 -0.05237718 64.25921631 -0.05158997 C73.24210843 -0.05098962 82.22494041 -0.06153442 91.20781732 -0.07733363 C98.93202503 -0.09043253 106.65621316 -0.09577286 114.38043189 -0.09513456 C118.98836619 -0.09488022 123.59624704 -0.09769568 128.20417023 -0.10831261 C132.54129384 -0.11803295 136.87831335 -0.1180459 141.21544075 -0.11079597 C142.80122849 -0.10975495 144.38702285 -0.11208419 145.9727993 -0.11815643 C158.60857363 -0.16338131 169.72342065 0.04237864 180.00579834 8.13371277 C189.36109197 17.64727264 190.45494189 26.89347306 190.40985107 39.74455261 C190.41556103 41.21717851 190.42252771 42.68979998 190.4306488 44.16241455 C190.44852772 48.14395456 190.44742166 52.12527354 190.44170642 56.10684156 C190.43860649 59.43914156 190.44471604 62.7713996 190.45074517 66.1036936 C190.46477189 73.96985559 190.46324496 81.83590893 190.45184326 89.70207214 C190.44036755 97.79783178 190.45443262 105.89325992 190.48123974 113.98897588 C190.5034441 120.9574123 190.51002336 127.92574502 190.50416332 134.89421427 C190.50080339 139.04834028 190.50314412 143.20225392 190.52041435 147.35634995 C190.53595694 151.26519069 190.53184778 155.17354307 190.51310921 159.08236504 C190.50944323 160.5101214 190.51247321 161.93791453 190.522995 163.36563683 C190.60180753 174.95183038 188.96113771 183.78747589 180.87689209 192.37590027 C177.29670789 195.73933011 173.71835052 198.56286204 169.00579834 200.13371277 C168.18820538 202.82558372 168.18820538 202.82558372 167.69329834 206.07121277 C165.81804776 214.93250046 162.16446415 222.23587753 154.92767334 227.88761902 C147.31696156 232.82220654 139.99391715 234.25215363 130.98709106 234.27415466 C130.30439451 234.27712579 129.62169795 234.28009691 128.91831362 234.28315806 C126.64326334 234.29179137 124.36826601 234.29334875 122.09320068 234.29484558 C120.45663339 234.29947763 118.82006717 234.30450281 117.1835022 234.30989075 C112.74517718 234.32298111 108.30686727 234.32945335 103.86852598 234.33390141 C101.09142194 234.3368381 98.31432198 234.34094407 95.53722 234.34540558 C86.83619532 234.35907283 78.13518 234.36874277 69.43414533 234.37260747 C59.41291626 234.3770838 49.39182387 234.39461521 39.37063634 234.42360806 C31.60987967 234.44527636 23.84916131 234.45531452 16.08837473 234.45664859 C11.46022377 234.45769311 6.83220143 234.46352513 2.20408249 234.4814682 C-2.15442199 234.49803773 -6.51270237 234.50006164 -10.87122726 234.49132919 C-12.46262974 234.4905635 -14.0540447 234.49483917 -15.64541626 234.50478745 C-29.15605477 234.58423095 -41.62351154 233.71091592 -51.99420166 224.13371277 C-57.43091946 217.64800171 -60.23570031 211.23972484 -60.2616272 202.70223999 C-60.27015717 201.42804703 -60.27868713 200.15385406 -60.28747559 198.84104919 C-60.28677666 197.4414519 -60.28585365 196.04185471 -60.284729 194.64225769 C-60.29071779 193.15845401 -60.29752414 191.67465344 -60.30508423 190.19085693 C-60.32271643 186.17005827 -60.32743845 182.14934478 -60.3287158 178.12851119 C-60.3301396 175.61340883 -60.33441354 173.09832798 -60.33971024 170.58323097 C-60.3582017 161.80015824 -60.366382 153.01714612 -60.36480713 144.23405457 C-60.36360614 136.06107839 -60.3847022 127.88836647 -60.41629446 119.71545714 C-60.44249052 112.68679099 -60.45317302 105.65821096 -60.45189631 98.6294964 C-60.45138763 94.43679367 -60.45701846 90.24432586 -60.47825241 86.05167198 C-60.49769102 82.10594798 -60.49772128 78.16068166 -60.48321915 74.21494102 C-60.48113685 72.77224556 -60.48579731 71.32952102 -60.49794006 69.88687515 C-60.5620169 61.74232502 -60.20373118 55.22753845 -55.99420166 48.13371277 C-55.61568243 47.48145312 -55.2371632 46.82919348 -54.84717369 46.15716839 C-51.29606633 40.3177158 -45.42227277 36.27640314 -38.99420166 34.13371277 C-38.17688872 31.17665193 -38.17688872 31.17665193 -37.68170166 27.63371277 C-35.91435659 18.6230001 -32.18596459 12.16497032 -24.98248291 6.41496277 C-17.26256607 1.44024229 -9.05251281 0.01250671 0 0 Z M-46.11529541 48.19621277 C-46.54970947 48.83558777 -46.98412354 49.47496277 -47.43170166 50.13371277 C-47.8841626 50.77308777 -48.33662354 51.41246277 -48.80279541 52.07121277 C-51.38344071 56.53869053 -52.24506481 60.14433286 -52.25489807 65.30653381 C-52.26198288 66.54858582 -52.26906769 67.79063782 -52.27636719 69.07032776 C-52.27407356 70.43894995 -52.27156389 71.80757179 -52.26885986 73.17619324 C-52.27320913 74.62368533 -52.27839299 76.07117512 -52.28434753 77.5186615 C-52.29772665 81.44435605 -52.29831736 85.36995426 -52.29578424 89.29566717 C-52.29471365 92.5758994 -52.2996002 95.8561122 -52.30438966 99.13634026 C-52.31548136 106.87717846 -52.31592433 114.61796813 -52.30987549 122.35881042 C-52.30383694 130.33692723 -52.3161444 138.31486762 -52.33744556 146.29295433 C-52.35507636 153.14917017 -52.36106053 160.00532994 -52.35780782 166.86156762 C-52.35599696 170.95357124 -52.35861122 175.04544905 -52.37252235 179.1374321 C-52.38511998 182.98705165 -52.38313846 186.83639681 -52.37011147 190.68601227 C-52.36775022 192.09567738 -52.37046416 193.50536191 -52.37873459 194.91500473 C-52.43492646 205.24030535 -51.60240955 211.83046842 -44.54107666 219.62590027 C-39.20033968 224.83177016 -34.01341227 225.25668689 -26.84741211 225.28761292 C-25.7665692 225.2941863 -25.7665692 225.2941863 -24.66389108 225.30089247 C-22.2489268 225.31424908 -19.833999 225.32045223 -17.41900635 225.32658386 C-15.68757463 225.33448723 -13.95614455 225.34275633 -12.22471619 225.35136414 C-6.53851895 225.37755454 -0.85231445 225.39288765 4.83392334 225.40715027 C6.79262039 225.41251096 8.75131739 225.41788847 10.71001434 225.42328262 C18.85787951 225.44490594 27.00574272 225.46364256 35.1536293 225.47490501 C46.824981 225.49114497 58.49599985 225.52433022 70.16722608 225.58130586 C78.37713031 225.62001644 86.58694556 225.63953897 94.79693866 225.64482558 C99.69895735 225.64847715 104.60062079 225.66047817 109.50254059 225.69292831 C114.11554289 225.72302901 118.72797533 225.72931368 123.34105492 225.71754456 C125.03090478 225.717324 126.72078124 225.7256145 128.41053963 225.74319839 C140.64242959 226.03705036 140.64242959 226.03705036 151.00579834 220.13371277 C151.74572021 219.46468933 152.48564209 218.79566589 153.24798584 218.10636902 C153.78681396 217.47601746 154.32564209 216.84566589 154.88079834 216.19621277 C155.71224365 215.25455261 155.71224365 215.25455261 156.56048584 214.29386902 C159.57359156 209.79049749 160.25652709 205.26687788 160.279953 199.93675232 C160.2949157 198.103358 160.2949157 198.103358 160.31018066 196.23292542 C160.31107632 194.89158643 160.31173996 193.55024728 160.31219482 192.20890808 C160.31982261 190.7858385 160.32825118 189.36277302 160.3374176 187.93971252 C160.35931004 184.0841394 160.36815454 180.22864556 160.37324405 176.37301731 C160.37689423 173.96042258 160.38313775 171.5478484 160.39024544 169.13526154 C160.41472291 160.70765272 160.42778788 152.2801053 160.43133545 143.85246277 C160.4349681 136.01458816 160.46484824 128.17710575 160.50674003 120.33935094 C160.5415101 113.59601615 160.55688506 106.85281092 160.55758148 100.10938716 C160.5583721 96.08816931 160.56701054 92.06735119 160.59557915 88.0462265 C160.62187523 84.26047177 160.62390172 80.47544491 160.60792351 76.68964005 C160.60526259 74.65191803 160.6272143 72.61420944 160.65011597 70.57661438 C160.57803295 61.46961869 158.86154343 54.7695219 152.97845459 47.69621277 C152.34810303 47.18058777 151.71775146 46.66496277 151.06829834 46.13371277 C150.12663818 45.32933777 150.12663818 45.32933777 149.16595459 44.50871277 C144.21622062 41.35806836 139.43268843 40.88050901 133.66319275 40.85955811 C132.94571108 40.85432143 132.2282294 40.84908475 131.48900586 40.84368938 C129.09635282 40.82874514 126.70391468 40.82798547 124.31121826 40.82731628 C122.59096417 40.81969107 120.87071347 40.81126294 119.15046692 40.80209351 C114.48507084 40.780178 109.81974028 40.77135362 105.15429854 40.76626706 C102.23717396 40.76262015 99.32006645 40.75637836 96.40294838 40.74926567 C86.21936923 40.72478189 76.03584096 40.71172149 65.85223389 40.70817566 C56.3704694 40.70454073 46.88902867 40.67464561 37.40736312 40.63277107 C29.25768847 40.59804511 21.10812101 40.58262682 12.95837289 40.58192962 C8.09493294 40.58113763 3.23182298 40.57243455 -1.6315403 40.54393196 C-6.20766035 40.51771161 -10.78317772 40.51556814 -15.35933876 40.5315876 C-17.03424903 40.53339891 -18.70919429 40.52674013 -20.38402939 40.51076889 C-30.47989583 40.42040042 -38.50574506 40.79687099 -46.11529541 48.19621277 Z " fill="#3162A5" transform="translate(62.99420166015625,10.866287231445313)"/>
<path d="M0 0 C1.08590989 -0.00785502 1.08590989 -0.00785502 2.19375736 -0.01586872 C4.62026034 -0.03087366 7.04655255 -0.03157398 9.47309875 -0.03224182 C11.212762 -0.03986314 12.95242188 -0.04829059 14.69207764 -0.0574646 C19.41957351 -0.07942303 24.1470047 -0.08821066 28.87454581 -0.09329104 C31.82951675 -0.09693394 34.78447072 -0.10317374 37.7394352 -0.11029243 C48.05268218 -0.13479449 58.36587884 -0.14783984 68.67915344 -0.15138245 C78.28470668 -0.15501522 87.88993989 -0.18489018 97.49539536 -0.22678703 C105.74693954 -0.26151347 113.99837783 -0.27693132 122.24999458 -0.27762848 C127.17606083 -0.27842069 132.10180137 -0.2871329 137.02779198 -0.31562614 C141.66462049 -0.3418461 146.30085421 -0.34399013 150.93772316 -0.3279705 C152.63520736 -0.32615896 154.33272606 -0.33282013 156.03013611 -0.34878922 C165.78397043 -0.43492281 173.80296344 -0.2637191 181.35157299 6.68148136 C188.45615966 14.43173491 188.26183742 22.45033743 188.22602844 32.40428162 C188.23173707 33.83735179 188.23870323 35.27041743 188.24682617 36.70347595 C188.26472161 40.58177431 188.26359568 44.45984595 188.25788379 48.33817315 C188.25478569 51.58343693 188.26089151 54.82865756 188.26692253 58.07391518 C188.28095522 65.73534361 188.27941787 73.39666051 188.26802063 81.05809021 C188.25654946 88.94309058 188.27060095 96.82775042 188.2974171 104.71270591 C188.31962506 111.49853408 188.32619978 118.28425575 188.32034069 125.07011765 C188.31698099 129.11583148 188.31931969 133.16132724 188.33659172 137.20701027 C188.35213962 141.01488676 188.34801941 144.82226207 188.32928658 148.63011932 C188.32562178 150.020786 188.32864708 151.41149045 188.33917236 152.80212212 C188.40032377 161.55590424 188.22194641 170.41550921 182.04268551 177.23892689 C179.06343532 180.00524505 176.77999063 181.36497776 172.82197571 182.27415466 C172.82050915 181.5979262 172.81904259 180.92169773 172.81753159 180.22497749 C172.7804135 163.73956072 172.72133281 147.25438191 172.63807297 130.76913643 C172.59833312 122.79684759 172.56591506 114.82465674 172.55097961 106.85227966 C172.53793677 99.90021473 172.51090538 92.94836587 172.46736264 85.99642265 C172.44480659 82.31838922 172.42906148 78.64062169 172.43009186 74.96251297 C172.4309817 70.84750308 172.40062904 66.73327271 172.36787415 62.61839294 C172.37290451 61.41069748 172.37793488 60.20300201 172.38311768 58.95870972 C172.25801361 48.77230442 169.96459408 40.58196454 162.88838196 33.03196716 C156.03586758 27.20279614 148.6444934 25.16107374 139.84913635 25.11593628 C139.1474312 25.1109983 138.44572605 25.10606032 137.7227571 25.10097271 C135.37204326 25.08561757 133.0213567 25.07724248 130.67060852 25.0688324 C128.98530844 25.05925231 127.30001075 25.04924215 125.61471558 25.03883362 C121.03866743 25.01179262 116.46260898 24.99077868 111.88652515 24.97083163 C107.10455255 24.94896714 102.32261168 24.92158071 97.54066467 24.89477539 C88.48495241 24.84485479 79.42922252 24.7999136 70.37347579 24.75675303 C60.06400563 24.70737526 49.75456732 24.65245912 39.44512796 24.59707344 C18.23744021 24.4832631 -2.97027794 24.37642197 -24.17802429 24.27415466 C-23.17112263 14.82100995 -20.4055353 9.92341699 -13.17802429 3.75462341 C-8.72502264 0.45835852 -5.58510225 0.02002191 0 0 Z " fill="#477CB4" transform="translate(57.17802429199219,19.725845336914063)"/>
<path d="M0 0 C1.58669495 -0.00472824 1.58669495 -0.00472824 3.20544434 -0.009552 C4.93196228 -0.00651566 4.93196228 -0.00651566 6.69335938 -0.00341797 C8.45226501 -0.00485306 8.45226501 -0.00485306 10.2467041 -0.00631714 C12.73169 -0.00699917 15.21667766 -0.00514331 17.70166016 -0.00097656 C21.52054825 0.00437134 25.33931872 -0.00092083 29.15820312 -0.00732422 C31.56575547 -0.00666344 33.97330774 -0.00538229 36.38085938 -0.00341797 C38.10737732 -0.00645432 38.10737732 -0.00645432 39.86877441 -0.009552 C40.92657104 -0.00639984 41.98436768 -0.00324768 43.07421875 0 C44.47867249 0.00119339 44.47867249 0.00119339 45.91149902 0.00241089 C48.03710938 0.12939453 48.03710938 0.12939453 49.03710938 1.12939453 C49.1833107 13.76118909 44.43973198 27.02556545 40.91601562 39.02001953 C40.13144296 41.79566328 39.45562188 44.56031415 38.84960938 47.37939453 C38.03710938 51.12939453 38.03710938 51.12939453 37.03710938 53.12939453 C36.94014618 55.08576967 36.9073202 57.04562384 36.91210938 59.00439453 C36.90953125 60.05369141 36.90695313 61.10298828 36.90429688 62.18408203 C37.01712273 64.68616139 37.31202175 66.74696377 38.03710938 69.12939453 C44.51783246 68.82078867 48.49642755 67.71037012 53.89648438 64.09033203 C56.64606479 62.85603133 58.19658065 63.30504529 61.03710938 64.12939453 C61.75976562 66.26220703 61.75976562 66.26220703 62.03710938 69.12939453 C59.86363364 73.4527853 56.91514148 77.24715698 54.03710938 81.12939453 C53.54726562 81.80744141 53.05742187 82.48548828 52.55273438 83.18408203 C46.51649194 90.88916797 36.83670402 98.27059156 27.03710938 99.50830078 C20.17393254 99.88164489 15.44123849 99.24751496 9.97070312 94.96142578 C2.12824049 87.53089048 -1.01809669 79.93525282 -1.52539062 69.19189453 C-1.52539062 58.42314698 1.55838193 48.02433029 4.1640625 37.65478516 C5.65787617 31.62271877 7.02802247 25.56239135 8.41210938 19.50439453 C8.91937604 17.30374781 9.42713671 15.10321486 9.93554688 12.90283203 C10.14872559 11.97905762 10.3619043 11.0552832 10.58154297 10.10351562 C10.73187988 9.45205566 10.8822168 8.8005957 11.03710938 8.12939453 C9.98910156 8.16419922 8.94109375 8.19900391 7.86132812 8.23486328 C6.48243791 8.2630039 5.10353035 8.29030377 3.72460938 8.31689453 C2.68916992 8.35459961 2.68916992 8.35459961 1.6328125 8.39306641 C-3.47406117 8.46707907 -3.47406117 8.46707907 -5.95898438 6.75048828 C-6.96289062 5.12939453 -6.96289062 5.12939453 -6.71289062 3.00439453 C-5.27347515 -0.59414415 -3.67821999 0.00312545 0 0 Z " fill="#3061A4" transform="translate(88.962890625,116.87060546875)"/>
<path d="M0 0 C6.93 0 13.86 0 21 0 C20.3258674 6.06719342 19.55125562 11.44713696 17.96875 17.24609375 C17.77277222 17.9832814 17.57679443 18.72046906 17.37487793 19.47999573 C16.96438899 21.01929861 16.5508285 22.55778552 16.13427734 24.09545898 C15.49541427 26.45443262 14.86607992 28.81579454 14.23828125 31.17773438 C13.8364817 32.67983317 13.43415711 34.18179165 13.03125 35.68359375 C12.84268433 36.38874619 12.65411865 37.09389862 12.45983887 37.82041931 C11.11725112 42.76549776 11.11725112 42.76549776 10 45 C9.38937396 51.97522817 9.81208404 57.73409622 13 64 C16.59085076 68.11891705 20.00039182 68.5481521 25.20703125 68.921875 C25.79871094 68.94765625 26.39039063 68.9734375 27 69 C21.30633904 76.28961138 14.64483003 82.96635977 5.1875 84.4375 C-0.15028967 83.7048622 -4.23694797 81.23204123 -7.5859375 76.9921875 C-11.51334017 70.84001337 -12.23148933 65.99004504 -12.3125 58.8125 C-12.34150391 58.00619141 -12.37050781 57.19988281 -12.40039062 56.36914062 C-12.47784805 48.62935623 -10.58215436 41.53789035 -8.57235718 34.13534546 C-7.6197764 30.58146491 -6.74345558 27.00891237 -5.859375 23.4375 C-5.50817804 22.03115867 -5.15661689 20.62490823 -4.8046875 19.21875 C-4.63163086 18.52652344 -4.45857422 17.83429688 -4.28027344 17.12109375 C-2.85351562 11.4140625 -1.42675781 5.70703125 0 0 Z " fill="#477CB4" transform="translate(108,125)"/>
<path d="M0 0 C4.98339136 2.85339344 8.07721781 6.76628048 9.625 12.3125 C10.27859061 18.84840611 9.0474393 23.67880933 5.625 29.3125 C1.16034361 33.77715639 -3.53714201 35.59848783 -9.8125 35.6875 C-15.80102873 35.55103219 -18.82154328 33.90811284 -23.03125 29.62890625 C-27.41637895 24.81974361 -28.81842649 21.20102184 -28.71875 14.53515625 C-27.9680524 9.68121381 -25.4405623 5.19216169 -21.8125 1.890625 C-15.28554891 -2.61297126 -7.2072877 -3.35348471 0 0 Z " fill="#3061A4" transform="translate(133.375,73.6875)"/>
<path d="M0 0 C3.62359556 0.70361079 5.241693 2.59561615 7.4140625 5.46875 C7.7440625 5.79875 8.0740625 6.12875 8.4140625 6.46875 C8.99576113 11.08419489 9.0382302 14.47008167 6.5390625 18.46875 C2.84544377 21.94509704 -0.18201388 21.87257632 -5.1015625 21.80859375 C-7.5859375 21.46875 -7.5859375 21.46875 -10.6484375 19.40625 C-12.95707063 15.90606429 -13.51127496 13.64985238 -13.5859375 9.46875 C-11.62770163 1.81382796 -7.51805417 -0.26612581 0 0 Z " fill="#477CB4" transform="translate(126.5859375,79.53125)"/>
</svg>
