<?xml version="1.0" encoding="UTF-8"?>
<svg version="1.1" xmlns="http://www.w3.org/2000/svg" width="256" height="256">
<path d="M0 0 C0.68002414 -0.00226556 1.36004827 -0.00453111 2.0606792 -0.00686532 C4.32658281 -0.01316701 6.59242602 -0.01237843 8.8583374 -0.0115509 C10.48829729 -0.01454482 12.11825647 -0.01794789 13.74821472 -0.02172852 C18.1678152 -0.03054992 22.58739631 -0.03290587 27.00700474 -0.0335443 C29.77136244 -0.03425597 32.53571524 -0.03639251 35.30007172 -0.03904152 C44.95312308 -0.04828944 54.60616066 -0.05237718 64.25921631 -0.05158997 C73.24210843 -0.05098962 82.22494041 -0.06153442 91.20781732 -0.07733363 C98.93202503 -0.09043253 106.65621316 -0.09577286 114.38043189 -0.09513456 C118.98836619 -0.09488022 123.59624704 -0.09769568 128.20417023 -0.10831261 C132.54129384 -0.11803295 136.87831335 -0.1180459 141.21544075 -0.11079597 C142.80122849 -0.10975495 144.38702285 -0.11208419 145.9727993 -0.11815643 C158.60857363 -0.16338131 169.72342065 0.04237864 180.00579834 8.13371277 C189.36109197 17.64727264 190.45494189 26.89347306 190.40985107 39.74455261 C190.41556103 41.21717851 190.42252771 42.68979998 190.4306488 44.16241455 C190.44852772 48.14395456 190.44742166 52.12527354 190.44170642 56.10684156 C190.43860649 59.43914156 190.44471604 62.7713996 190.45074517 66.1036936 C190.46477189 73.96985559 190.46324496 81.83590893 190.45184326 89.70207214 C190.44036755 97.79783178 190.45443262 105.89325992 190.48123974 113.98897588 C190.5034441 120.9574123 190.51002336 127.92574502 190.50416332 134.89421427 C190.50080339 139.04834028 190.50314412 143.20225392 190.52041435 147.35634995 C190.53595694 151.26519069 190.53184778 155.17354307 190.51310921 159.08236504 C190.50944323 160.5101214 190.51247321 161.93791453 190.522995 163.36563683 C190.60180753 174.95183038 188.96113771 183.78747589 180.87689209 192.37590027 C177.29670789 195.73933011 173.71835052 198.56286204 169.00579834 200.13371277 C168.18820538 202.82558372 168.18820538 202.82558372 167.69329834 206.07121277 C165.81804776 214.93250046 162.16446415 222.23587753 154.92767334 227.88761902 C147.31696156 232.82220654 139.99391715 234.25215363 130.98709106 234.27415466 C130.30439451 234.27712579 129.62169795 234.28009691 128.91831362 234.28315806 C126.64326334 234.29179137 124.36826601 234.29334875 122.09320068 234.29484558 C120.45663339 234.29947763 118.82006717 234.30450281 117.1835022 234.30989075 C112.74517718 234.32298111 108.30686727 234.32945335 103.86852598 234.33390141 C101.09142194 234.3368381 98.31432198 234.34094407 95.53722 234.34540558 C86.83619532 234.35907283 78.13518 234.36874277 69.43414533 234.37260747 C59.41291626 234.3770838 49.39182387 234.39461521 39.37063634 234.42360806 C31.60987967 234.44527636 23.84916131 234.45531452 16.08837473 234.45664859 C11.46022377 234.45769311 6.83220143 234.46352513 2.20408249 234.4814682 C-2.15442199 234.49803773 -6.51270237 234.50006164 -10.87122726 234.49132919 C-12.46262974 234.4905635 -14.0540447 234.49483917 -15.64541626 234.50478745 C-29.15605477 234.58423095 -41.62351154 233.71091592 -51.99420166 224.13371277 C-57.43091946 217.64800171 -60.23570031 211.23972484 -60.2616272 202.70223999 C-60.27015717 201.42804703 -60.27868713 200.15385406 -60.28747559 198.84104919 C-60.28677666 197.4414519 -60.28585365 196.04185471 -60.284729 194.64225769 C-60.29071779 193.15845401 -60.29752414 191.67465344 -60.30508423 190.19085693 C-60.32271643 186.17005827 -60.32743845 182.14934478 -60.3287158 178.12851119 C-60.3301396 175.61340883 -60.33441354 173.09832798 -60.33971024 170.58323097 C-60.3582017 161.80015824 -60.366382 153.01714612 -60.36480713 144.23405457 C-60.36360614 136.06107839 -60.3847022 127.88836647 -60.41629446 119.71545714 C-60.44249052 112.68679099 -60.45317302 105.65821096 -60.45189631 98.6294964 C-60.45138763 94.43679367 -60.45701846 90.24432586 -60.47825241 86.05167198 C-60.49769102 82.10594798 -60.49772128 78.16068166 -60.48321915 74.21494102 C-60.48113685 72.77224556 -60.48579731 71.32952102 -60.49794006 69.88687515 C-60.5620169 61.74232502 -60.20373118 55.22753845 -55.99420166 48.13371277 C-55.61568243 47.48145312 -55.2371632 46.82919348 -54.84717369 46.15716839 C-51.29606633 40.3177158 -45.42227277 36.27640314 -38.99420166 34.13371277 C-38.17688872 31.17665193 -38.17688872 31.17665193 -37.68170166 27.63371277 C-35.91435659 18.6230001 -32.18596459 12.16497032 -24.98248291 6.41496277 C-17.26256607 1.44024229 -9.05251281 0.01250671 0 0 Z " fill="#FEFEFE" transform="translate(62.99420166015625,10.866287231445313)"/>
<path d="M0 0 C0.68002414 -0.00226556 1.36004827 -0.00453111 2.0606792 -0.00686532 C4.32658281 -0.01316701 6.59242602 -0.01237843 8.8583374 -0.0115509 C10.48829729 -0.01454482 12.11825647 -0.01794789 13.74821472 -0.02172852 C18.1678152 -0.03054992 22.58739631 -0.03290587 27.00700474 -0.0335443 C29.77136244 -0.03425597 32.53571524 -0.03639251 35.30007172 -0.03904152 C44.95312308 -0.04828944 54.60616066 -0.05237718 64.25921631 -0.05158997 C73.24210843 -0.05098962 82.22494041 -0.06153442 91.20781732 -0.07733363 C98.93202503 -0.09043253 106.65621316 -0.09577286 114.38043189 -0.09513456 C118.98836619 -0.09488022 123.59624704 -0.09769568 128.20417023 -0.10831261 C132.54129384 -0.11803295 136.87831335 -0.1180459 141.21544075 -0.11079597 C142.80122849 -0.10975495 144.38702285 -0.11208419 145.9727993 -0.11815643 C158.60857363 -0.16338131 169.72342065 0.04237864 180.00579834 8.13371277 C189.36109197 17.64727264 190.45494189 26.89347306 190.40985107 39.74455261 C190.41556103 41.21717851 190.42252771 42.68979998 190.4306488 44.16241455 C190.44852772 48.14395456 190.44742166 52.12527354 190.44170642 56.10684156 C190.43860649 59.43914156 190.44471604 62.7713996 190.45074517 66.1036936 C190.46477189 73.96985559 190.46324496 81.83590893 190.45184326 89.70207214 C190.44036755 97.79783178 190.45443262 105.89325992 190.48123974 113.98897588 C190.5034441 120.9574123 190.51002336 127.92574502 190.50416332 134.89421427 C190.50080339 139.04834028 190.50314412 143.20225392 190.52041435 147.35634995 C190.53595694 151.26519069 190.53184778 155.17354307 190.51310921 159.08236504 C190.50944323 160.5101214 190.51247321 161.93791453 190.522995 163.36563683 C190.60180753 174.95183038 188.96113771 183.78747589 180.87689209 192.37590027 C177.29670789 195.73933011 173.71835052 198.56286204 169.00579834 200.13371277 C168.18820538 202.82558372 168.18820538 202.82558372 167.69329834 206.07121277 C165.81804776 214.93250046 162.16446415 222.23587753 154.92767334 227.88761902 C147.31696156 232.82220654 139.99391715 234.25215363 130.98709106 234.27415466 C130.30439451 234.27712579 129.62169795 234.28009691 128.91831362 234.28315806 C126.64326334 234.29179137 124.36826601 234.29334875 122.09320068 234.29484558 C120.45663339 234.29947763 118.82006717 234.30450281 117.1835022 234.30989075 C112.74517718 234.32298111 108.30686727 234.32945335 103.86852598 234.33390141 C101.09142194 234.3368381 98.31432198 234.34094407 95.53722 234.34540558 C86.83619532 234.35907283 78.13518 234.36874277 69.43414533 234.37260747 C59.41291626 234.3770838 49.39182387 234.39461521 39.37063634 234.42360806 C31.60987967 234.44527636 23.84916131 234.45531452 16.08837473 234.45664859 C11.46022377 234.45769311 6.83220143 234.46352513 2.20408249 234.4814682 C-2.15442199 234.49803773 -6.51270237 234.50006164 -10.87122726 234.49132919 C-12.46262974 234.4905635 -14.0540447 234.49483917 -15.64541626 234.50478745 C-29.15605477 234.58423095 -41.62351154 233.71091592 -51.99420166 224.13371277 C-57.43091946 217.64800171 -60.23570031 211.23972484 -60.2616272 202.70223999 C-60.27015717 201.42804703 -60.27868713 200.15385406 -60.28747559 198.84104919 C-60.28677666 197.4414519 -60.28585365 196.04185471 -60.284729 194.64225769 C-60.29071779 193.15845401 -60.29752414 191.67465344 -60.30508423 190.19085693 C-60.32271643 186.17005827 -60.32743845 182.14934478 -60.3287158 178.12851119 C-60.3301396 175.61340883 -60.33441354 173.09832798 -60.33971024 170.58323097 C-60.3582017 161.80015824 -60.366382 153.01714612 -60.36480713 144.23405457 C-60.36360614 136.06107839 -60.3847022 127.88836647 -60.41629446 119.71545714 C-60.44249052 112.68679099 -60.45317302 105.65821096 -60.45189631 98.6294964 C-60.45138763 94.43679367 -60.45701846 90.24432586 -60.47825241 86.05167198 C-60.49769102 82.10594798 -60.49772128 78.16068166 -60.48321915 74.21494102 C-60.48113685 72.77224556 -60.48579731 71.32952102 -60.49794006 69.88687515 C-60.5620169 61.74232502 -60.20373118 55.22753845 -55.99420166 48.13371277 C-55.61568243 47.48145312 -55.2371632 46.82919348 -54.84717369 46.15716839 C-51.29606633 40.3177158 -45.42227277 36.27640314 -38.99420166 34.13371277 C-38.17688872 31.17665193 -38.17688872 31.17665193 -37.68170166 27.63371277 C-35.91435659 18.6230001 -32.18596459 12.16497032 -24.98248291 6.41496277 C-17.26256607 1.44024229 -9.05251281 0.01250671 0 0 Z M-46.43170166 48.44621277 C-52.63821552 56.09782538 -52.43685982 63.91371087 -52.41412354 73.3556366 C-52.42147101 74.79856012 -52.43005922 76.24147778 -52.43978882 77.68438721 C-52.46194454 81.58953064 -52.46493843 85.4944627 -52.46304131 89.39966035 C-52.46292131 92.66729454 -52.47149761 95.93488443 -52.47981882 99.20250624 C-52.49903227 106.91666591 -52.50194456 114.63071738 -52.49517822 122.34489441 C-52.48854185 130.28448435 -52.51138999 138.22360919 -52.54849195 146.16310483 C-52.57925427 152.99564458 -52.59054184 159.82803524 -52.58665514 166.6606428 C-52.58459402 170.73436198 -52.58996728 174.80771928 -52.61454773 178.88137245 C-52.63692034 182.71558959 -52.63485105 186.54905445 -52.61462021 190.38327599 C-52.61122837 191.78362495 -52.61621995 193.18402561 -52.63060379 194.58430481 C-52.71866538 203.79921681 -51.86176125 211.57616572 -45.58693695 218.7404604 C-39.94166572 223.85886161 -33.98664237 225.50722762 -26.56930542 225.52139282 C-25.85505288 225.52677836 -25.14080033 225.5321639 -24.40490377 225.53771263 C-22.0290545 225.55193642 -19.65376681 225.54490259 -17.27789307 225.5377655 C-15.56734268 225.54347205 -13.8567961 225.55043741 -12.14625549 225.55856323 C-7.5118609 225.57647948 -2.87765582 225.575329 1.75676298 225.56962085 C5.63090644 225.56652641 9.50501364 225.57262437 13.37915194 225.57865959 C22.52198414 225.59269852 31.66472288 225.59114912 40.80755615 225.57975769 C50.22739201 225.56828019 59.64694303 225.5823474 69.06674135 225.60915416 C77.16549027 225.63133526 85.26414995 225.63794302 93.36292708 225.63207775 C98.19498683 225.62871237 103.02686407 225.63109529 107.85889816 225.64832878 C112.40462124 225.66383399 116.9499236 225.65980283 121.49563026 225.64102364 C123.15923929 225.63734747 124.82287973 225.64041777 126.48645973 225.65090942 C136.30749148 225.70809501 144.70282026 225.58659513 152.56439209 218.98527527 C153.18443115 218.25050964 153.80447021 217.51574402 154.44329834 216.75871277 C155.08138428 216.02910339 155.71947021 215.29949402 156.37689209 214.54777527 C159.49396778 209.92822425 160.25579919 205.43249713 160.279953 199.93675232 C160.2949157 198.103358 160.2949157 198.103358 160.31018066 196.23292542 C160.31107632 194.89158643 160.31173996 193.55024728 160.31219482 192.20890808 C160.31982261 190.7858385 160.32825118 189.36277302 160.3374176 187.93971252 C160.35931004 184.0841394 160.36815454 180.22864556 160.37324405 176.37301731 C160.37689423 173.96042258 160.38313775 171.5478484 160.39024544 169.13526154 C160.41472291 160.70765272 160.42778788 152.2801053 160.43133545 143.85246277 C160.4349681 136.01458816 160.46484824 128.17710575 160.50674003 120.33935094 C160.5415101 113.59601615 160.55688506 106.85281092 160.55758148 100.10938716 C160.5583721 96.08816931 160.56701054 92.06735119 160.59557915 88.0462265 C160.62187523 84.26047177 160.62390172 80.47544491 160.60792351 76.68964005 C160.60526259 74.65191803 160.6272143 72.61420944 160.65011597 70.57661438 C160.57803295 61.46961869 158.86154343 54.7695219 152.97845459 47.69621277 C152.34810303 47.18058777 151.71775146 46.66496277 151.06829834 46.13371277 C150.12663818 45.32933777 150.12663818 45.32933777 149.16595459 44.50871277 C144.24208906 41.37453435 139.48601185 40.88150072 133.74584961 40.86628723 C133.03724061 40.86175612 132.32863161 40.85722501 131.5985496 40.85255659 C129.23585955 40.83994657 126.87340102 40.84153074 124.51068115 40.84318542 C122.81175441 40.83719798 121.11283038 40.83039193 119.41390991 40.8228302 C114.80628811 40.80518336 110.19874063 40.80047533 105.59108829 40.79919863 C102.70946801 40.79777554 99.82786653 40.79350291 96.94625092 40.78820419 C86.88470768 40.7697071 76.82321739 40.76153304 66.76165771 40.7631073 C57.39697334 40.76430808 48.03251967 40.74321741 38.66789365 40.71161997 C30.61671661 40.6854267 22.56561477 40.67474131 14.51439548 40.67601812 C9.71078041 40.67652693 4.90737037 40.67088898 0.10379791 40.64966202 C-4.41727438 40.63022859 -8.93794719 40.6301899 -13.45903397 40.64469528 C-15.11255353 40.64677828 -16.76609842 40.64211301 -18.41957474 40.62997437 C-33.78639192 40.50805271 -33.78639192 40.50805271 -46.43170166 48.44621277 Z " fill="#D53D3D" transform="translate(62.99420166015625,10.866287231445313)"/>
<path d="M0 0 C1.07622251 -0.00785502 1.07622251 -0.00785502 2.17418689 -0.01586872 C4.56683993 -0.03081297 6.95927807 -0.03157263 9.35197449 -0.03224182 C11.07222858 -0.03986704 12.79247927 -0.04829516 14.51272583 -0.0574646 C19.17812191 -0.07938011 23.84345247 -0.08820448 28.50889421 -0.09329104 C31.42601879 -0.09693795 34.3431263 -0.10317974 37.26024437 -0.11029243 C47.44382352 -0.13477622 57.62735179 -0.14783662 67.81095886 -0.15138245 C77.29272335 -0.15501738 86.77416408 -0.1849125 96.25582963 -0.22678703 C104.40550428 -0.26151299 112.55507174 -0.27693128 120.70481986 -0.27762848 C125.56825981 -0.27842047 130.43136977 -0.28712356 135.29473305 -0.31562614 C139.8708531 -0.3418465 144.44637047 -0.34398996 149.02253151 -0.3279705 C150.69744178 -0.3261592 152.37238703 -0.33281798 154.04722214 -0.34878922 C163.74196989 -0.43556726 171.68550574 -0.21734256 179.18783283 6.68148136 C186.29025542 14.43422113 186.09726086 22.44901967 186.06144714 32.40428162 C186.06715577 33.83735179 186.07412193 35.27041743 186.08224487 36.70347595 C186.10014031 40.58177431 186.09901438 44.45984595 186.09330249 48.33817315 C186.09020439 51.58343693 186.09631021 54.82865756 186.10234123 58.07391518 C186.11637393 65.73534361 186.11483657 73.39666051 186.10343933 81.05809021 C186.09196816 88.94309058 186.10601965 96.82775042 186.13283581 104.71270591 C186.15504376 111.49853408 186.16161848 118.28425575 186.15575939 125.07011765 C186.15239969 129.11583148 186.15473839 133.16132724 186.17201042 137.20701027 C186.18755832 141.01488676 186.18343811 144.82226207 186.16470528 148.63011932 C186.16104048 150.020786 186.16406579 151.41149045 186.17459106 152.80212212 C186.23574247 161.55590424 186.05736512 170.41550921 179.87810421 177.23892689 C176.89885402 180.00524505 174.61540933 181.36497776 170.65739441 182.27415466 C170.65795995 181.24573346 170.65795995 181.24573346 170.65853691 180.19653606 C170.66566887 163.47706231 170.6396228 146.75799784 170.57711601 130.03864574 C170.54767897 121.95309928 170.52927489 113.86781456 170.53727722 105.7822113 C170.54422751 98.73083157 170.53003535 91.67985733 170.49095833 84.62857705 C170.47101128 80.89839592 170.46131024 77.16885057 170.47697067 73.43863487 C170.49410051 69.26370407 170.46400519 65.0903427 170.43034363 60.91551208 C170.448675 59.08130959 170.448675 59.08130959 170.46737671 57.21005249 C170.3342984 48.01691101 167.87778522 41.23261686 161.8842907 34.19096661 C152.26074464 24.86946065 140.31700509 24.68473267 127.71134949 24.72825623 C126.0250097 24.71950671 124.33867819 24.70901616 122.65235901 24.69692993 C118.10556786 24.66921791 113.55904959 24.66566196 109.01218629 24.66664982 C104.24889753 24.66350792 99.48572938 24.63786326 94.72250366 24.6146698 C85.71659105 24.57420372 76.71075068 24.55379122 67.70476121 24.54069591 C57.44587009 24.52479397 47.18710135 24.48636494 36.92828143 24.44610262 C15.83802618 24.36383228 -5.25222315 24.30965988 -26.34260559 24.27415466 C-25.34533303 14.91141126 -22.57982923 9.98400634 -15.53791809 3.75462341 C-10.63809722 0.45029582 -5.79465534 0.02104227 0 0 Z " fill="#F46868" transform="translate(59.34260559082031,19.725845336914063)"/>
<path d="M0 0 C1.58669495 -0.00472824 1.58669495 -0.00472824 3.20544434 -0.009552 C4.93196228 -0.00651566 4.93196228 -0.00651566 6.69335938 -0.00341797 C8.45226501 -0.00485306 8.45226501 -0.00485306 10.2467041 -0.00631714 C12.73169 -0.00699917 15.21667766 -0.00514331 17.70166016 -0.00097656 C21.52054825 0.00437134 25.33931872 -0.00092083 29.15820312 -0.00732422 C31.56575547 -0.00666344 33.97330774 -0.00538229 36.38085938 -0.00341797 C38.10737732 -0.00645432 38.10737732 -0.00645432 39.86877441 -0.009552 C40.92657104 -0.00639984 41.98436768 -0.00324768 43.07421875 0 C44.47867249 0.00119339 44.47867249 0.00119339 45.91149902 0.00241089 C48.03710938 0.12939453 48.03710938 0.12939453 49.03710938 1.12939453 C49.42713822 7.50453571 48.33687988 12.89855448 46.66601562 19.02783203 C46.4242308 19.94400299 46.18244598 20.86017395 45.93333435 21.80410767 C45.16460892 24.70673636 44.38206203 27.60543998 43.59960938 30.50439453 C43.07727031 32.47422017 42.55577741 34.4442704 42.03515625 36.41455078 C41.53785806 38.28584366 41.03983686 40.15694457 40.54101562 42.02783203 C40.30556534 42.91111176 40.07011505 43.79439148 39.82752991 44.70443726 C39.60737717 45.51933624 39.38722443 46.33423523 39.16040039 47.17382812 C38.96720718 47.89138275 38.77401398 48.60893738 38.57496643 49.34823608 C38.03710938 51.12939453 38.03710938 51.12939453 37.03710938 53.12939453 C36.91483011 55.10576867 36.86161008 57.08677763 36.84960938 59.06689453 C36.83542969 60.12779297 36.82125 61.18869141 36.80664062 62.28173828 C36.82145871 65.33217122 36.82145871 65.33217122 39.03710938 68.12939453 C45.30714953 69.00940017 48.66947351 67.62785455 53.86132812 64.12548828 C56.63709728 62.85471425 58.16189014 63.28848103 61.03710938 64.12939453 C61.75976562 66.26220703 61.75976562 66.26220703 62.03710938 69.12939453 C59.86363364 73.4527853 56.91514148 77.24715698 54.03710938 81.12939453 C53.54726562 81.80744141 53.05742187 82.48548828 52.55273438 83.18408203 C46.51649194 90.88916797 36.83670402 98.27059156 27.03710938 99.50830078 C20.17393254 99.88164489 15.44123849 99.24751496 9.97070312 94.96142578 C3.15660103 88.50523612 -0.82603581 81.07350703 -1.42724609 71.58520508 C-1.45996998 69.99998506 -1.46834543 68.41411551 -1.45507812 66.82861328 C-1.4503952 65.96821945 -1.44571228 65.10782562 -1.44088745 64.22135925 C-1.18981257 54.4137956 1.24864912 45.32789926 3.91210938 35.94189453 C4.37930772 34.23094721 4.84415816 32.51935699 5.30664062 30.80712891 C5.9580863 28.3963495 6.61214252 25.98688494 7.28585815 23.58222961 C8.71619538 18.46610091 9.93168177 13.32526669 11.03710938 8.12939453 C9.98910156 8.16419922 8.94109375 8.19900391 7.86132812 8.23486328 C6.48243791 8.2630039 5.10353035 8.29030377 3.72460938 8.31689453 C2.68916992 8.35459961 2.68916992 8.35459961 1.6328125 8.39306641 C-3.47406117 8.46707907 -3.47406117 8.46707907 -5.95898438 6.75048828 C-6.96289062 5.12939453 -6.96289062 5.12939453 -6.71289062 3.00439453 C-5.27347515 -0.59414415 -3.67821999 0.00312545 0 0 Z " fill="#D53E3E" transform="translate(88.962890625,116.87060546875)"/>
<path d="M0 0 C6.6 0 13.2 0 20 0 C18.86803739 8.02664395 17.10941623 15.64712561 14.8527832 23.41552734 C13.54399234 27.93607185 12.41647516 32.45158014 11.45947266 37.06030273 C11 39 11 39 9.875 41.875 C7.73119193 49.5314574 8.41529681 56.95420408 12 64 C15.59085076 68.11891705 19.00039182 68.5481521 24.20703125 68.921875 C24.79871094 68.94765625 25.39039063 68.9734375 26 69 C20.30633904 76.28961138 13.64483003 82.96635977 4.1875 84.4375 C-1.14416124 83.70570336 -5.20696604 81.2302516 -8.5859375 77.02734375 C-14.46479805 67.9371981 -14.44009188 56.27822931 -12.61767578 45.80224609 C-11.77066568 42.2119725 -10.67772578 38.7096463 -9.57421875 35.19140625 C-7.4905324 28.54217342 -5.90437281 21.76602097 -4.25 15 C-3.65319822 12.56197109 -3.05439316 10.12443125 -2.453125 7.6875 C-2.19692383 6.63949219 -1.94072266 5.59148437 -1.67675781 4.51171875 C-1 2 -1 2 0 0 Z " fill="#F46868" transform="translate(109,125)"/>
<path d="M0 0 C5.3260456 3.77136186 8.89596924 7.98549188 10.01953125 14.48046875 C10.4222499 20.75762688 9.23991727 25.02682745 5.3984375 30.0234375 C0.86443023 34.7030767 -3.60205283 36.11750097 -10.05078125 36.40625 C-15.90264751 36.15603227 -18.97392774 34.39858223 -23.08203125 30.22265625 C-27.4671602 25.41349361 -28.86920774 21.79477184 -28.76953125 15.12890625 C-28.01883365 10.27496381 -25.49134355 5.78591169 -21.86328125 2.484375 C-15.65723454 -1.79779723 -6.99697591 -3.15483616 0 0 Z " fill="#D53D3D" transform="translate(133.42578125,73.09375)"/>
<path d="M0 0 C3.0625 2.4375 3.0625 2.4375 5 5 C5.33 5.33 5.66 5.66 6 6 C6.58169863 10.61544489 6.6241677 14.00133167 4.125 18 C0.43138127 21.47634704 -2.59607638 21.40382632 -7.515625 21.33984375 C-10 21 -10 21 -13.0625 18.9375 C-15.40980653 15.37868042 -16 13.26436569 -16 9 C-13.68250384 0.30938939 -8.33393312 -1.35575945 0 0 Z " fill="#F46767" transform="translate(129,80)"/>
</svg>
