<?xml version="1.0" encoding="UTF-8"?>
<svg version="1.1" xmlns="http://www.w3.org/2000/svg" width="512" height="512">
<path d="M0 0 C3.68113805 0.00477347 7.36222595 -0.00781481 11.04334736 -0.01801741 C18.2366524 -0.03513056 25.4298698 -0.03606095 32.6231899 -0.03080451 C38.47651073 -0.026747 44.32980587 -0.02822504 50.1831255 -0.03355277 C51.01931723 -0.03430119 51.85550896 -0.03504961 52.71703984 -0.03582071 C54.41631594 -0.03735235 56.11559203 -0.0388907 57.81486812 -0.04043568 C73.71704726 -0.05413403 89.61917707 -0.04874216 105.52135506 -0.03725047 C120.03143322 -0.02732426 134.54138375 -0.04025292 149.05144224 -0.06418466 C163.99191604 -0.08863839 178.93233056 -0.09816796 193.87282395 -0.09153193 C202.2440924 -0.08805318 210.61526282 -0.09018217 218.986516 -0.10778296 C226.11381969 -0.12258386 233.24095633 -0.12303851 240.36825702 -0.10571205 C243.99604699 -0.09726334 247.6235396 -0.09489962 251.25131321 -0.1103636 C289.19636324 -0.26035529 319.73703443 9.12936323 347.5239687 35.65683305 C358.00462181 46.5228043 365.72031056 58.64728249 371.8364687 72.40683305 C372.55963276 74.00591508 372.55963276 74.00591508 373.2974062 75.6373018 C380.9740994 93.99157736 381.42862273 112.38655532 381.34470832 131.99406099 C381.333451 135.66620843 381.34558897 139.33829664 381.35455036 143.01044023 C381.36838465 150.17682793 381.36100055 157.34303777 381.34587478 164.50941678 C381.32889809 172.87536465 381.33223942 181.24126966 381.33596886 189.60722945 C381.34182918 204.54380289 381.32774653 219.48029168 381.30302143 234.41684282 C381.27909314 248.87390632 381.27202458 263.33085682 381.28251362 277.78793657 C381.29394923 293.57769797 381.29582131 309.36740729 381.28141552 325.15716809 C381.27988987 326.84393906 381.27836951 328.53071004 381.27685452 330.21748102 C381.2760967 331.04715027 381.27533889 331.87681952 381.27455811 332.73163026 C381.26983669 338.54827061 381.27165133 344.36488752 381.27591991 350.1815275 C381.2808706 357.27806468 381.27475563 364.37449553 381.25502562 371.4710085 C381.24522392 375.08422408 381.23997043 378.69727851 381.24791813 382.31050241 C381.30282084 410.19795961 381.30282084 410.19795961 377.8364687 423.40683305 C377.51063879 424.64973116 377.51063879 424.64973116 377.17822647 425.91773832 C372.55359543 441.84601933 364.42871712 456.70317298 353.8364687 469.40683305 C353.03982807 470.37878618 352.24318745 471.3507393 351.4224062 472.35214555 C338.16906536 487.68758223 321.26174302 498.83410716 302.2739687 505.71933305 C301.63846088 505.94999467 301.00295307 506.18065629 300.34818745 506.41830766 C289.2246073 510.20171536 278.17852796 511.85534501 266.46053791 511.79451311 C265.1905858 511.79989864 263.92063368 511.80528418 262.61219817 511.81083292 C259.1306843 511.82513735 255.64941015 511.82109056 252.16788399 511.81366611 C248.39610498 511.80889902 244.62437524 511.82147534 240.8526125 511.83168352 C233.48003456 511.84880847 226.10754208 511.84972463 218.73494943 511.84447061 C212.73713688 511.84041562 206.73934942 511.84188819 200.74153805 511.84721887 C199.45703975 511.8483415 199.45703975 511.8483415 198.14659199 511.84948682 C196.4064839 511.85101843 194.66637581 511.85255677 192.92626772 511.85410178 C176.63739378 511.8678042 160.34856798 511.86240521 144.05969516 511.85091657 C129.18931128 511.84098815 114.3190519 511.85392213 99.44868722 511.87785076 C84.14439105 511.90229027 68.84015275 511.91183764 53.53583747 511.90519804 C44.95782081 511.90171637 36.37989981 511.90386787 27.801898 511.92144907 C20.49921076 511.93623197 13.19668654 511.9367276 5.89400228 511.91937815 C2.17533256 511.91091523 -1.54304671 511.90860164 -5.26170063 511.92402971 C-23.84449705 511.99564739 -40.6695185 511.32863529 -57.9135313 503.65683305 C-59.09773663 503.14249712 -59.09773663 503.14249712 -60.30586529 502.61777055 C-71.32210499 497.70622831 -80.99797495 491.23948987 -90.1635313 483.40683305 C-90.97306255 482.74296587 -91.7825938 482.07909868 -92.6166563 481.3951143 C-114.13838519 463.08810907 -127.60573915 435.18905081 -131.1635313 407.40683305 C-131.4242661 403.13121456 -131.44268437 398.87126252 -131.43095684 394.58858049 C-131.43548795 393.35441678 -131.44001907 392.12025306 -131.44468749 390.84869045 C-131.45508332 387.4577364 -131.4566702 384.06699612 -131.45429873 380.6760416 C-131.45388774 377.00508304 -131.46495651 373.33415518 -131.47441387 369.66321123 C-131.49096492 362.48355107 -131.49652076 355.30392376 -131.49763863 348.12424611 C-131.49859203 342.28182269 -131.50271687 336.43941001 -131.50903988 330.59698999 C-131.52663721 313.9968588 -131.53588126 297.39675338 -131.53437893 280.79661279 C-131.53429902 279.90332972 -131.53421911 279.01004664 -131.53413677 278.08969438 C-131.53405501 277.19530802 -131.53397325 276.30092166 -131.53388901 275.37943269 C-131.53307683 260.89826751 -131.55220137 246.41720651 -131.58041351 231.93607145 C-131.60921843 217.03185886 -131.62294959 202.12769695 -131.62122595 187.22345585 C-131.62056461 178.87002096 -131.62594385 170.51669527 -131.64758205 162.16328561 C-131.66589447 155.04872672 -131.6700595 147.93432651 -131.65656321 140.81975412 C-131.65008345 137.19805425 -131.64973235 133.57665788 -131.66726971 129.95498788 C-131.83745 92.42332656 -122.58138145 61.12803334 -96.0385313 33.78183305 C-81.38379716 19.23384516 -62.14854959 8.55204898 -42.1635313 3.40683305 C-41.28591011 3.15933274 -40.40828892 2.91183242 -39.50407314 2.6568321 C-26.50148151 -0.49944587 -13.30146967 -0.0291151 0 0 Z " fill="#E9BF33" transform="translate(131.16353130340576,0.5931669473648071)"/>
<path d="M0 0 C0.62648438 0.39445313 1.25296875 0.78890625 1.8984375 1.1953125 C5.31436508 4.51849997 6.53879212 7.98237762 6.99249268 12.68013 C7.00415449 14.13607652 6.99943798 15.59221366 6.98144531 17.0480957 C6.98346703 17.85385009 6.98548874 18.65960447 6.98757172 19.48977566 C6.99053492 22.17700174 6.97191877 24.86362585 6.953125 27.55078125 C6.95038977 29.47560494 6.94889395 31.40043074 6.94854736 33.32525635 C6.94351771 38.53044141 6.91919666 43.73537523 6.89089966 48.94047928 C6.86969516 53.27085215 6.8596484 57.60122116 6.84960938 61.93163204 C6.74421152 106.2482503 6.24210308 150.5628815 5.625 194.875 C6.65415527 194.86122314 7.68331055 194.84744629 8.74365234 194.83325195 C10.10774483 194.82210932 11.47184009 194.81130352 12.8359375 194.80078125 C13.51261475 194.7908313 14.18929199 194.78088135 14.88647461 194.77062988 C21.7932113 194.7306944 26.13667296 195.76533142 31.5 200.3125 C36.28985577 206.08850255 35.96010925 210.97886403 35.9375 218.25 C35.95361328 219.27867187 35.96972656 220.30734375 35.98632812 221.3671875 C35.99045769 227.77627631 35.63416105 232.57589375 31.125 237.51953125 C26.75359324 240.92330891 23.91330705 241.99713485 18.44523621 242.02217102 C17.37277145 242.02932632 16.3003067 242.03648163 15.19534302 242.04385376 C14.01866058 242.04654266 12.84197815 242.04923157 11.62963867 242.05200195 C10.39038132 242.05857315 9.15112396 242.06514435 7.87431335 242.07191467 C3.76386271 242.09166302 -0.34654892 242.10331449 -4.45703125 242.11328125 C-5.87312019 242.11732951 -7.28920893 242.12144645 -8.70529747 242.12563133 C-15.35813819 242.14467767 -22.01096784 242.15891029 -28.66383058 242.1672433 C-36.33920934 242.17701631 -44.01429976 242.20333949 -51.68957692 242.24374419 C-57.62514101 242.2739167 -63.56062249 242.28871321 -69.49626178 242.29202431 C-73.0400505 242.29437339 -76.58353098 242.30331478 -80.12723732 242.32848549 C-84.08207022 242.35612324 -88.03652438 242.35193155 -91.99145508 242.3449707 C-93.74736969 242.36418579 -93.74736969 242.36418579 -95.53875732 242.38378906 C-101.80496584 242.34353517 -105.63213686 242.11900612 -110.375 237.875 C-115.6757695 232.36219972 -114.97082021 226.07748555 -114.875 218.875 C-114.89046875 217.71226562 -114.9059375 216.54953125 -114.921875 215.3515625 C-114.89255716 208.94561441 -114.80871828 204.67547807 -110.375 199.875 C-101.94260822 193.76151596 -94.42839191 195.875 -83.375 195.875 C-83.375 150.335 -83.375 104.795 -83.375 57.875 C-90.635 57.875 -97.895 57.875 -105.375 57.875 C-114.83762626 53.14368687 -114.83762626 53.14368687 -117.375 47.875 C-117.89257812 44.53515625 -117.89257812 44.53515625 -117.90625 40.9375 C-117.91140625 39.63039062 -117.9165625 38.32328125 -117.921875 36.9765625 C-117.91349609 36.30270508 -117.90511719 35.62884766 -117.89648438 34.93457031 C-117.8750486 32.87965877 -117.89632507 30.82824182 -117.921875 28.7734375 C-117.91671875 27.46632812 -117.9115625 26.15921875 -117.90625 24.8125 C-117.90173828 23.62527344 -117.89722656 22.43804687 -117.89257812 21.21484375 C-117.03309484 15.66874404 -114.71759716 12.85739582 -110.2409668 9.58178711 C-105.8446071 7.32689437 -101.38560989 6.96207575 -96.51953125 6.56640625 C-95.56032272 6.47453033 -94.6011142 6.38265442 -93.61283875 6.28799438 C-90.47223594 5.98983918 -87.33008906 5.7138555 -84.1875 5.4375 C-80.88966966 5.12962628 -77.59245102 4.81572883 -74.29525757 4.50111389 C-72.0379562 4.28578184 -69.78048664 4.07220604 -67.52285767 3.8603363 C-55.01418273 2.67725284 -42.53851847 1.21962984 -30.06362915 -0.2741394 C-27.42830758 -0.58925169 -24.79233989 -0.8984241 -22.15625 -1.20703125 C-21.39575851 -1.30051849 -20.63526703 -1.39400574 -19.85173035 -1.49032593 C-4.82553024 -3.23738105 -4.82553024 -3.23738105 0 0 Z " fill="#FEFEFE" transform="translate(297.375,201.125)"/>
<path d="M0 0 C6.7727328 -0.10297361 13.54525783 -0.17211078 20.31860352 -0.21972656 C22.61392762 -0.23961477 24.90920264 -0.26673512 27.2043457 -0.30175781 C63.89699859 -0.84689664 93.9706808 9.74414144 120.6875 35.25 C131.16815311 46.11597124 138.88384187 58.24044944 145 72 C145.72316406 73.59908203 145.72316406 73.59908203 146.4609375 75.23046875 C154.1376307 93.58474431 154.59215404 111.97972227 154.50823963 131.58722794 C154.49698231 135.25937538 154.50912027 138.93146359 154.51808167 142.60360718 C154.53191595 149.76999487 154.52453185 156.93620472 154.50940608 164.10258373 C154.4924294 172.4685316 154.49577072 180.8344366 154.49950016 189.2003964 C154.50536049 204.13696984 154.49127784 219.07345863 154.46655273 234.01000977 C154.44262444 248.46707327 154.43555588 262.92402376 154.44604492 277.38110352 C154.45748054 293.17086492 154.45935261 308.96057424 154.44494683 324.75033504 C154.44342117 326.43710601 154.44190081 328.12387698 154.44038582 329.81064796 C154.439628 330.64031722 154.43887019 331.46998647 154.43808941 332.32479721 C154.43336799 338.14143756 154.43518263 343.95805447 154.43945122 349.77469444 C154.4444019 356.87123163 154.43828693 363.96766247 154.41855692 371.06417545 C154.40875522 374.67739102 154.40350174 378.29044545 154.41144943 381.90366936 C154.46635215 409.79112656 154.46635215 409.79112656 151 423 C150.78278007 423.82859874 150.56556013 424.65719748 150.34175777 425.51090527 C145.71712674 441.43918628 137.59224842 456.29633993 127 469 C126.20335937 469.97195313 125.40671875 470.94390625 124.5859375 471.9453125 C111.33259667 487.28074917 94.42527433 498.4272741 75.4375 505.3125 C74.80199219 505.54316162 74.16648437 505.77382324 73.51171875 506.01147461 C71.35653171 506.7445076 69.1917141 507.38424323 67 508 C66.05125 508.27287842 65.1025 508.54575684 64.125 508.8269043 C53.15344452 511.59670022 42.36790533 511.33932792 31.125 511.1875 C29.16537494 511.17241598 27.20573857 511.1587342 25.24609375 511.14648438 C20.49711076 511.11379624 15.74868407 511.06222238 11 511 C11 510.67 11 510.34 11 510 C12.26972656 509.70867187 13.53945313 509.41734375 14.84765625 509.1171875 C48.03600072 501.29863929 77.02704483 484.61001448 95.4453125 455.1796875 C110.22383665 430.52823244 113.63569726 405.65157742 113.50823963 377.26845193 C113.49694867 373.75507256 113.50913112 370.24175374 113.51808167 366.7283783 C113.53189512 359.87608269 113.52454704 353.02397347 113.50940608 346.17168701 C113.49239806 338.16435098 113.49577472 330.15705949 113.49950016 322.14971095 C113.50535697 307.84667759 113.49129333 293.5437327 113.46655273 279.24072266 C113.44263845 265.41354049 113.43555132 251.58647648 113.44604492 237.75927734 C113.45749657 222.64295699 113.45933202 207.52669105 113.44494683 192.4103713 C113.44342125 190.79347325 113.44190089 189.17657519 113.44038582 187.55967712 C113.4392491 186.36686754 113.4392491 186.36686754 113.43808941 185.14996079 C113.43337927 179.59012361 113.43517457 174.03031101 113.43945122 168.47047424 C113.44441691 161.67971833 113.43822202 154.8890733 113.41855692 148.09834254 C113.40879598 144.64448754 113.40345572 141.19080006 113.41144943 137.73693657 C113.43636239 122.21725388 112.76205598 107.28729869 110 92 C109.8082894 90.87893608 109.61657881 89.75787216 109.4190588 88.60283661 C104.64672064 62.80823689 84.65748699 37.78191222 63.859375 22.7265625 C44.22339454 9.33657989 23.56662902 2.73322079 0 1 C0 0.67 0 0.34 0 0 Z " fill="#DEAC05" transform="translate(358,1)"/>
<path d="M0 0 C0.62648438 0.39445313 1.25296875 0.78890625 1.8984375 1.1953125 C5.31436508 4.51849997 6.53879212 7.98237762 6.99249268 12.68013 C7.00415449 14.13607652 6.99943798 15.59221366 6.98144531 17.0480957 C6.98346703 17.85385009 6.98548874 18.65960447 6.98757172 19.48977566 C6.99053492 22.17700174 6.97191877 24.86362585 6.953125 27.55078125 C6.95038977 29.47560494 6.94889395 31.40043074 6.94854736 33.32525635 C6.94351771 38.53044141 6.91919666 43.73537523 6.89089966 48.94047928 C6.86969516 53.27085215 6.8596484 57.60122116 6.84960938 61.93163204 C6.74421152 106.2482503 6.24210308 150.5628815 5.625 194.875 C6.65415527 194.86122314 7.68331055 194.84744629 8.74365234 194.83325195 C10.10774483 194.82210932 11.47184009 194.81130352 12.8359375 194.80078125 C13.85095337 194.78585632 13.85095337 194.78585632 14.88647461 194.77062988 C21.7932113 194.7306944 26.13667296 195.76533142 31.5 200.3125 C36.28985577 206.08850255 35.96010925 210.97886403 35.9375 218.25 C35.95361328 219.27867187 35.96972656 220.30734375 35.98632812 221.3671875 C35.99045769 227.77627631 35.63416105 232.57589375 31.125 237.51953125 C25.63062033 241.79770709 21.59578776 242.01712177 14.83911133 241.98852539 C13.49246147 241.98874443 13.49246147 241.98874443 12.11860657 241.9889679 C9.14805697 241.98827064 6.17756991 241.98048697 3.20703125 241.97265625 C1.14865656 241.97079141 -0.90971858 241.96936782 -2.96809387 241.96836853 C-8.38830794 241.96454859 -13.80849524 241.95472273 -19.22869873 241.94366455 C-24.75858193 241.93343921 -30.28846945 241.9288685 -35.81835938 241.92382812 C-46.67058468 241.91310003 -57.52279011 241.89602984 -68.375 241.875 C-68.375 241.545 -68.375 241.215 -68.375 240.875 C-67.71180756 240.87135437 -67.04861511 240.86770874 -66.36532593 240.86395264 C-59.45429614 240.82209853 -52.54392865 240.75273176 -45.63330078 240.66748047 C-43.05524321 240.63927841 -40.47709929 240.61806013 -37.89892578 240.60400391 C-34.18998025 240.58256491 -30.48207207 240.53590604 -26.7734375 240.484375 C-25.62322113 240.48314636 -24.47300476 240.48191772 -23.28793335 240.48065186 C-17.04538538 240.36674588 -13.082115 240.14223442 -8.375 235.875 C-4.56838811 230.60677764 -4.92546408 225.11945347 -5 218.875 C-4.98839844 217.90304687 -4.97679687 216.93109375 -4.96484375 215.9296875 C-4.98701097 210.50610856 -5.2819968 206.52930385 -8.375 201.875 C-12.26337578 198.2782524 -15.40221279 196.89338162 -20.60546875 196.33984375 C-21.40791016 196.25283203 -22.21035156 196.16582031 -23.03710938 196.07617188 C-23.87048828 195.98916016 -24.70386719 195.90214844 -25.5625 195.8125 C-26.40748047 195.72162109 -27.25246094 195.63074219 -28.12304688 195.53710938 C-30.20671485 195.3134388 -32.29081795 195.09382849 -34.375 194.875 C-34.37085193 193.45313542 -34.37085193 193.45313542 -34.36662006 192.00254631 C-34.30003487 168.94267159 -34.25072911 145.88280934 -34.21956348 122.82285881 C-34.20409161 111.67125915 -34.1829959 100.51972298 -34.14868164 89.36816406 C-34.11878918 79.64898484 -34.09942733 69.92985159 -34.09273452 60.21062768 C-34.08882202 55.06390258 -34.07962031 49.91730903 -34.05780983 44.77062607 C-34.03744716 39.92633942 -34.03116579 35.08223851 -34.03567696 30.23791313 C-34.03485166 28.46015984 -34.02888471 26.68240034 -34.01738358 24.90468407 C-34.00244279 22.47617572 -34.00605198 20.0483673 -34.01423645 17.61984253 C-34.00112866 16.56631995 -34.00112866 16.56631995 -33.98775607 15.49151409 C-34.02955126 10.89874238 -34.97902731 7.78345769 -37.375 3.875 C-39.42446399 2.02184743 -39.42446399 2.02184743 -41.375 0.875 C-36.89670835 0.36695283 -32.41724835 -0.12997554 -27.9375 -0.625 C-26.67744141 -0.76808594 -25.41738281 -0.91117188 -24.11914062 -1.05859375 C-4.74476774 -3.18319861 -4.74476774 -3.18319861 0 0 Z " fill="#E6E6E5" transform="translate(297.375,201.125)"/>
<path d="M0 0 C1.30988892 0.01244751 1.30988892 0.01244751 2.64624023 0.02514648 C17.09340089 0.39961859 28.38759087 6.10476557 39.25 15.4375 C51.0258022 28.64494939 55.13653045 42.76149627 54.43359375 60.15917969 C53.25570566 74.77626967 44.75618885 87.1485029 33.90234375 96.44921875 C21.69587915 105.59910523 8.2281487 108.33196056 -6.75 107.4375 C-21.43241546 105.01270577 -34.49217816 96.79459006 -43.22265625 84.77734375 C-51.65673412 71.8565953 -55.03012012 57.32669779 -52.09375 42.015625 C-47.87407956 26.81026083 -39.37471315 14.97374202 -25.75 7.0625 C-17.34662121 2.33559943 -9.69486576 -0.11987615 0 0 Z " fill="#FEFEFE" transform="translate(251.75,63.5625)"/>
<path d="M0 0 C12.05223542 8.80740281 19.18890966 20.19619956 22.4375 34.78125 C23.49513173 51.96343106 20.68474811 66.51873681 9.25 79.90625 C-0.70251863 90.48182581 -13.18793744 97.07289401 -27.82421875 97.984375 C-36.57669769 98.10413526 -45.08982948 97.76303035 -52.5625 92.78125 C-51.634375 92.61625 -50.70625 92.45125 -49.75 92.28125 C-39.5123065 89.33246201 -30.81293849 80.4578849 -25.65234375 71.4453125 C-18.0884017 57.21035377 -16.32631614 43.74461672 -20.53125 27.83984375 C-24.95637853 14.71531482 -33.69992285 4.73359212 -45.5625 -2.21875 C-46.573125 -2.8375 -47.58375 -3.45625 -48.625 -4.09375 C-49.264375 -4.465 -49.90375 -4.83625 -50.5625 -5.21875 C-38.68739352 -17.09385648 -11.29413883 -7.57533702 0 0 Z " fill="#E6E5E5" transform="translate(283.5625,73.21875)"/>
</svg>
