<?xml version="1.0" encoding="UTF-8"?>
<!DOCTYPE svg PUBLIC "-//W3C//DTD SVG 1.1//EN" "http://www.w3.org/Graphics/SVG/1.1/DTD/svg11.dtd">
<svg xmlns="http://www.w3.org/2000/svg" version="1.1" width="512px" height="512px" style="shape-rendering:geometricPrecision; text-rendering:geometricPrecision; image-rendering:optimizeQuality; fill-rule:evenodd; clip-rule:evenodd" xmlns:xlink="http://www.w3.org/1999/xlink">
<g><path style="opacity:0.965" fill="#000039" d="M 398.5,108.5 C 395.325,108.16 393.159,106.493 392,103.5C 391.949,84.4484 391.283,65.4484 390,46.5C 386.401,34.5675 378.568,27.0675 366.5,24C 292.833,23.3333 219.167,23.3333 145.5,24C 133.834,27.0002 126.001,34.1669 122,45.5C 120.537,71.4487 120.037,97.4487 120.5,123.5C 213.167,123.5 305.833,123.5 398.5,123.5C 421.169,123.333 443.836,123.5 466.5,124C 486.769,129.269 499.269,142.102 504,162.5C 504.667,244.833 504.667,327.167 504,409.5C 500.033,429.61 488.2,442.443 468.5,448C 448.212,449.44 427.879,449.94 407.5,449.5C 408.858,478.62 395.525,496.787 367.5,504C 291.464,504.985 215.464,504.652 139.5,503C 122.333,497.833 111.167,486.667 106,469.5C 104.848,437.546 104.348,405.546 104.5,373.5C 104.667,342.833 104.833,312.167 105,281.5C 105.5,279.667 106.667,278.5 108.5,278C 206.833,277.333 305.167,277.333 403.5,278C 404.667,279.167 405.833,280.333 407,281.5C 407.5,331.832 407.667,382.166 407.5,432.5C 426.888,432.95 446.221,432.45 465.5,431C 476.842,426.991 484.009,419.158 487,407.5C 487.667,326.5 487.667,245.5 487,164.5C 482.335,149.573 472.169,141.407 456.5,140C 322.833,139.333 189.167,139.333 55.5,140C 39.4651,140.926 29.2984,149.093 25,164.5C 24.3333,245.833 24.3333,327.167 25,408.5C 29.0151,421.181 37.5151,429.014 50.5,432C 60.8333,432.333 71.1667,432.667 81.5,433C 86.1549,435.897 87.6549,440.063 86,445.5C 84.786,447.049 83.286,448.215 81.5,449C 70.5,449.667 59.5,449.667 48.5,449C 26.5672,445.068 13.0672,432.234 8,410.5C 7.01089,326.123 7.34422,241.79 9,157.5C 15.1076,139.725 27.2743,128.559 45.5,124C 65.1638,123.5 84.8305,123.333 104.5,123.5C 104.333,97.8312 104.5,72.1645 105,46.5C 110.885,22.6131 126.052,9.44648 150.5,7C 220.833,6.33333 291.167,6.33333 361.5,7C 384.074,9.19592 398.908,21.0293 406,42.5C 407.607,63.1236 407.941,83.7903 407,104.5C 405.106,107.844 402.273,109.178 398.5,108.5 Z M 121.5,293.5 C 130.167,293.5 138.833,293.5 147.5,293.5C 147.03,309.929 147.53,326.262 149,342.5C 166.559,360.728 184.726,378.228 203.5,395C 215.365,399.911 226.698,398.911 237.5,392C 252.333,377.167 267.167,362.333 282,347.5C 296.009,364.303 312.509,367.469 331.5,357C 342,346.5 352.5,336 363,325.5C 364.453,314.937 364.953,304.27 364.5,293.5C 373.167,293.5 381.833,293.5 390.5,293.5C 390.667,349.834 390.5,406.168 390,462.5C 386.491,475.342 378.325,483.509 365.5,487C 292.5,487.667 219.5,487.667 146.5,487C 133.64,483.474 125.474,475.307 122,462.5C 121.5,406.168 121.333,349.834 121.5,293.5 Z"/></g>
<g><path style="opacity:1" fill="#fec000" d="M 398.5,108.5 C 398.5,113.5 398.5,118.5 398.5,123.5C 305.833,123.5 213.167,123.5 120.5,123.5C 120.037,97.4487 120.537,71.4487 122,45.5C 126.001,34.1669 133.834,27.0002 145.5,24C 219.167,23.3333 292.833,23.3333 366.5,24C 378.568,27.0675 386.401,34.5675 390,46.5C 391.283,65.4484 391.949,84.4484 392,103.5C 393.159,106.493 395.325,108.16 398.5,108.5 Z"/></g>
<g><path style="opacity:0.966" fill="#010039" d="M 427.5,169.5 C 448.792,171.292 460.126,182.792 461.5,204C 459.738,224.429 448.572,235.595 428,237.5C 402.677,233.508 392.01,218.842 396,193.5C 401.546,178.765 412.046,170.765 427.5,169.5 Z"/></g>
<g><path style="opacity:0.967" fill="#010039" d="M 341.5,169.5 C 368.892,173.74 379.392,189.407 373,216.5C 363.595,234.31 349.095,240.477 329.5,235C 311.853,226.095 305.353,211.928 310,192.5C 315.911,178.407 326.411,170.74 341.5,169.5 Z"/></g>
<g><path style="opacity:1" fill="#f9bc03" d="M 336.5,186.5 C 351.15,185.323 358.65,191.99 359,206.5C 354.263,219.785 345.43,223.618 332.5,218C 320.912,205.871 322.245,195.371 336.5,186.5 Z"/></g>
<g><path style="opacity:1" fill="#fabd02" d="M 422.5,186.5 C 435.599,184.943 443.266,190.61 445.5,203.5C 443.358,216.453 435.692,221.953 422.5,220C 411.246,213.969 408.413,205.136 414,193.5C 416.441,190.546 419.275,188.213 422.5,186.5 Z"/></g>
<g><path style="opacity:0.986" fill="#00003a" d="M 57.5,187.5 C 82.8355,187.333 108.169,187.5 133.5,188C 135.333,188.5 136.5,189.667 137,191.5C 137.667,194.167 137.667,196.833 137,199.5C 136.5,201.333 135.333,202.5 133.5,203C 108.167,203.667 82.8333,203.667 57.5,203C 52.2215,197.836 52.2215,192.669 57.5,187.5 Z"/></g>
<g><path style="opacity:1" fill="#fdbf01" d="M 163.5,293.5 C 224.833,293.5 286.167,293.5 347.5,293.5C 347.666,301.84 347.5,310.173 347,318.5C 338.833,326.667 330.667,334.833 322.5,343C 316.04,347.179 309.373,347.512 302.5,344C 297.5,339 292.5,334 287.5,329C 284.97,327.578 282.303,327.245 279.5,328C 261.862,344.638 244.528,361.638 227.5,379C 220.049,382.801 213.049,382.135 206.5,377C 192.333,362.833 178.167,348.667 164,334.5C 163.5,320.837 163.333,307.171 163.5,293.5 Z"/></g>
<g><path style="opacity:0.968" fill="#00013a" d="M 296.5,386.5 C 325.976,387.143 340.81,402.143 341,431.5C 335.123,457.362 318.957,468.862 292.5,466C 269.383,458.62 259.216,442.786 262,418.5C 266.983,400.68 278.483,390.013 296.5,386.5 Z"/></g>
<g><path style="opacity:1" fill="#fbc560" d="M 294.5,403.5 C 308.464,401.396 318.297,406.729 324,419.5C 326.168,440.663 316.668,450.83 295.5,450C 279.15,442.807 274.317,430.974 281,414.5C 284.336,409.269 288.836,405.602 294.5,403.5 Z"/></g>
</svg>
