<?xml version="1.0" encoding="UTF-8"?>
<svg version="1.1" xmlns="http://www.w3.org/2000/svg" width="512" height="512">
<path d="M0 0 C0.85999816 -0.00226556 1.71999631 -0.00453111 2.60605502 -0.00686532 C5.46913441 -0.01316262 8.33216594 -0.01237871 11.19525146 -0.0115509 C13.25575318 -0.01454507 15.31625434 -0.0179482 17.37675476 -0.02172852 C22.96162239 -0.03054675 28.54647469 -0.03290572 34.13134861 -0.0335443 C37.62439953 -0.03425607 41.11744657 -0.0363928 44.61049652 -0.03904152 C56.80753323 -0.04828793 69.00455902 -0.05237731 81.20159912 -0.05158997 C92.55320318 -0.05098945 103.90475968 -0.06153798 115.25635171 -0.07733363 C125.01713161 -0.09042944 134.777896 -0.095773 144.53868461 -0.09513456 C150.36172646 -0.09488016 156.18472603 -0.09769918 162.00775909 -0.10831261 C167.48742844 -0.11802789 172.96701537 -0.11804929 178.4466877 -0.11079597 C180.45090163 -0.10975437 182.45512078 -0.11208764 184.45932579 -0.11815643 C204.17496903 -0.17396061 221.02506918 1.19171856 235.9208374 15.62199402 C245.94380656 27.13051039 248.57902069 39.65946021 248.54193115 54.53605652 C248.547173 55.77617996 248.55241486 57.01630341 248.55781555 58.29400635 C248.56419967 60.89494583 248.562946 63.49591432 248.55438232 66.09684753 C248.54865675 68.7598933 248.55228639 71.42047045 248.57489014 74.08317566 C248.60547456 77.94273967 248.60898489 81.8013912 248.60443115 85.66105652 C248.61566513 86.8527092 248.62689911 88.04436188 248.63847351 89.27212524 C248.62909256 90.37750137 248.61971161 91.4828775 248.61004639 92.62174988 C248.60979713 94.07755714 248.60979713 94.07755714 248.60954285 95.56277466 C247.96563423 98.86571005 246.69877533 100.05515386 244.1083374 102.13371277 C241.8895874 102.70011902 241.8895874 102.70011902 239.6083374 102.69621277 C238.8555249 102.71812683 238.1027124 102.74004089 237.3270874 102.76261902 C233.79315792 101.76092422 232.97891904 100.30722794 231.1083374 97.13371277 C230.5281699 93.15243369 230.59913432 89.20138782 230.6395874 85.18449402 C230.63253784 84.01669907 230.62548828 82.84890411 230.6182251 81.64572144 C230.58877206 76.65861106 230.60531437 71.67189181 230.61761475 66.68473816 C230.62000708 63.03858938 230.59900764 59.39306506 230.5770874 55.74699402 C230.58840698 54.63310806 230.59972656 53.51922211 230.61138916 52.37158203 C230.55008439 42.78822206 228.10683018 33.11513605 221.1083374 26.13371277 C212.4542935 19.55967591 203.74268608 17.81940356 193.07623291 17.87974548 C192.21326363 17.8766255 191.35029435 17.87350552 190.46117449 17.87029099 C187.59414191 17.86236809 184.72732436 17.86861223 181.86029053 17.87492371 C179.79477312 17.87221131 177.72925668 17.86864898 175.66374207 17.86430359 C170.07084964 17.85520695 164.47803123 17.85871262 158.88513756 17.86506176 C153.02370382 17.87013585 147.16227628 17.86542639 141.30084229 17.86228943 C131.45883042 17.8586539 121.61684861 17.86343806 111.77484131 17.87297058 C100.40667898 17.88385432 89.03858839 17.88032845 77.6704278 17.86931777 C67.89863043 17.86023315 58.12685461 17.85896537 48.35505438 17.86419511 C42.52374439 17.86730833 36.69246809 17.86774193 30.86116028 17.86112213 C25.37819636 17.85533223 19.89532467 17.85937571 14.41237068 17.87091064 C12.40367346 17.87354843 10.39496843 17.87280725 8.38627434 17.86838531 C5.63755977 17.86289356 2.88913798 17.86980784 0.14044189 17.87974548 C-0.64819355 17.87528404 -1.43682899 17.8708226 -2.24936247 17.86622596 C-11.99956947 17.93426783 -20.08552355 20.13307527 -27.8916626 26.13371277 C-34.48267565 32.83549915 -37.24541093 40.61751545 -37.32403564 49.92668152 C-37.33422729 50.65936752 -37.34441895 51.39205353 -37.35491943 52.14694214 C-37.38481068 54.53844587 -37.3942782 56.92954756 -37.40338135 59.32121277 C-37.42024583 60.99131069 -37.43839844 62.66139606 -37.45777893 64.33146667 C-37.50509318 68.70433121 -37.53502224 73.07714482 -37.56121826 77.45018005 C-37.59111801 81.92161614 -37.63761579 86.39287708 -37.68267822 90.86418152 C-37.76849976 99.6206055 -37.83593853 108.37704576 -37.8916626 117.13371277 C-37.16582999 117.13219389 -36.43999738 117.13067501 -35.69216985 117.1291101 C7.33836599 117.03957376 50.36889168 116.97095438 93.39950203 116.92945145 C98.56766541 116.9244487 103.7358286 116.9192714 108.9039917 116.91398621 C109.93286838 116.91293696 110.96174506 116.91188772 112.02179983 116.91080669 C128.67540338 116.89340733 145.32895164 116.8618722 161.98252241 116.82510158 C179.07400963 116.78767914 196.16546791 116.76547415 213.25699443 116.75735879 C223.80112555 116.75187373 234.34510036 116.7345573 244.88918336 116.7020469 C252.12227297 116.68088294 259.35528191 116.67451699 266.58840022 116.67970726 C270.75989403 116.6822661 274.93111491 116.67837773 279.10256004 116.65689087 C282.92687066 116.63733655 286.7507264 116.63649976 290.57505854 116.65011719 C292.602973 116.65259098 294.6308826 116.63541883 296.65871841 116.61738753 C310.02020899 116.7043499 321.99126594 121.18742906 331.8583374 130.38371277 C345.43125127 144.9785872 345.69689488 161.16893642 345.62591553 179.96354675 C345.63134183 182.37769492 345.63846733 184.79183977 345.64715576 187.20597839 C345.66344867 193.06020393 345.6611373 198.91419863 345.6495052 204.768431 C345.64043813 209.53063594 345.63926095 214.29278347 345.64360046 219.05499458 C345.6442134 219.73512953 345.64482633 220.41526448 345.64545783 221.11600958 C345.64673686 222.49809568 345.64803371 223.88018177 345.6493482 225.26226784 C345.66073048 238.19562028 345.64767781 251.12885897 345.62614673 264.06219275 C345.6082819 275.13565025 345.6113793 286.20893994 345.62982178 297.28239441 C345.6512772 310.1707798 345.65962783 323.05906567 345.64737272 335.94746643 C345.64609866 337.324516 345.64484117 338.70156559 345.64360046 340.07861519 C345.64267481 341.09466438 345.64267481 341.09466438 345.64173046 342.13123981 C345.63829123 346.88172179 345.64407501 351.63214012 345.65351868 356.38261223 C345.66511748 362.7890835 345.65697754 369.19523954 345.63394165 375.60167694 C345.62867589 377.94571727 345.63013153 380.28978436 345.63899231 382.63381386 C345.69380645 398.61402454 345.35086335 412.02327955 335.1083374 425.13371277 C334.49087646 425.95742371 333.87341553 426.78113464 333.23724365 427.62980652 C325.76430848 436.41907523 315.31127667 441.20897425 304.1083374 443.13371277 C302.20705788 443.21754723 300.30320751 443.25153415 298.40008545 443.24723816 C297.27930099 443.24716263 296.15851654 443.2470871 295.00376892 443.24700928 C293.80464371 443.24184799 292.60551849 443.23668671 291.37005615 443.23136902 C290.13415237 443.22995407 288.8982486 443.22853912 287.62489319 443.2270813 C284.35175395 443.22243895 281.07866453 443.21346588 277.80554199 443.20237732 C274.46051492 443.19211681 271.11548567 443.18765908 267.77044678 443.18254089 C261.2163909 443.17152184 254.66236823 443.15479113 248.1083374 443.13371277 C248.13661621 444.63829041 248.13661621 444.63829041 248.16546631 446.17326355 C248.18072095 447.51684583 248.1955071 448.86043348 248.2098999 450.20402527 C248.23817871 452.17266541 248.23817871 452.17266541 248.26702881 454.18107605 C247.86723627 464.13898568 244.11029024 472.3442931 238.1083374 480.13371277 C237.4895874 481.02058777 236.8708374 481.90746277 236.2333374 482.82121277 C228.53769141 491.19588635 217.3334655 497.34260742 205.9238373 498.32104564 C203.53648587 498.39537504 201.15633378 498.40999236 198.76783752 498.40113831 C197.8595423 498.40566942 196.95124709 498.41020053 196.01542777 498.41486895 C192.9888093 498.42747269 189.9623717 498.42589517 186.93572998 498.42424011 C184.75862396 498.43022793 182.58152007 498.43703406 180.40441895 498.44459534 C174.50130412 498.46223812 168.5982473 498.46695004 162.69510865 498.46822691 C159.0030439 498.4696502 155.31099382 498.47392322 151.61893272 498.47922134 C138.72696372 498.49771693 125.83503603 498.50589267 112.9430542 498.50431824 C100.94497716 498.50311743 88.94712124 498.52420913 76.9490822 498.55580556 C66.63287095 498.58200027 56.31671839 498.59268417 46.00047415 498.59140742 C39.84591729 498.59089867 33.69152045 498.5965338 27.53699684 498.61776352 C21.74453511 498.63719924 15.95238516 498.63723376 10.15991211 498.62273026 C8.04162322 498.62064759 5.92331455 498.62531046 3.80505943 498.63745117 C-13.38341439 498.72953537 -27.76794431 497.17595844 -41.1416626 485.10246277 C-49.94300427 475.90106011 -55.21612437 464.09197827 -55.15908813 451.33349609 C-55.16361925 450.57896375 -55.16815036 449.8244314 -55.17281878 449.04703444 C-55.18541322 446.53525508 -55.18384569 444.02369391 -55.18218994 441.5118866 C-55.18817798 439.70455651 -55.19498416 437.89722898 -55.20254517 436.08990479 C-55.22017663 431.19349892 -55.22489913 426.297163 -55.22617674 421.40072846 C-55.22759963 418.34175723 -55.23187166 415.28280372 -55.23717117 412.2238369 C-55.25565652 401.55324043 -55.26384298 390.88269386 -55.26226807 380.21208191 C-55.26106456 370.26161694 -55.2822116 360.31136814 -55.31375539 350.36095792 C-55.33987848 341.81644093 -55.35063715 333.27199478 -55.34935725 324.72743815 C-55.34884678 319.62445667 -55.3545778 314.5216677 -55.37571335 309.41872597 C-55.39503088 304.62434761 -55.3952649 299.83034686 -55.38068008 295.03595543 C-55.37858334 293.27509893 -55.38334413 291.51421918 -55.395401 289.75340271 C-55.41077674 287.35281317 -55.40159782 284.95353856 -55.38613892 282.55297852 C-55.39642604 281.85347023 -55.40671317 281.15396195 -55.41731203 280.43325645 C-55.37201511 277.25872614 -55.16640581 275.48296374 -53.17856038 272.95603341 C-50.45607174 270.78661102 -49.24266829 270.63285076 -45.8035202 270.63034821 C-44.25387156 270.61470172 -44.25387156 270.61470172 -42.67291689 270.59873915 C-41.53946699 270.60766203 -40.40601708 270.61658492 -39.23822021 270.6257782 C-38.03297683 270.61953824 -36.82773345 270.61329827 -35.58596754 270.60686922 C-32.23894662 270.59365749 -28.89282118 270.598435 -25.54585433 270.61081409 C-21.93705749 270.6198502 -18.3283399 270.60590205 -14.71955872 270.59489441 C-7.64939825 270.57708911 -0.57940744 270.58095806 6.49075973 270.59254497 C12.23578211 270.60157115 17.98075687 270.60280684 23.7257843 270.59844971 C24.95133637 270.59753031 24.95133637 270.59753031 26.20164707 270.59659234 C27.86133303 270.59531346 29.52101897 270.59401661 31.18070489 270.59270197 C46.75095998 270.58129029 62.32112093 270.59441908 77.89136058 270.61590344 C91.25719037 270.63377497 104.62288121 270.63067102 117.9887085 270.61222839 C133.50247661 270.59083205 149.01616218 270.58238898 164.52994299 270.59467745 C166.18359215 270.59595167 167.83724132 270.59720915 169.4908905 270.59844971 C170.30456023 270.59906681 171.11822996 270.59968391 171.95655635 270.60031971 C177.69601802 270.60377633 183.43542741 270.59793758 189.17488098 270.58853149 C196.16747845 270.57732383 203.15989626 270.58032544 210.15247309 270.60165447 C213.72161666 270.61218167 217.29046049 270.61625869 220.85960197 270.60305786 C224.72486991 270.58897778 228.58964485 270.60576646 232.45489502 270.6257782 C234.15506987 270.61239387 234.15506987 270.61239387 235.88959169 270.59873915 C236.92269079 270.60917014 237.95578988 270.61960113 239.02019501 270.63034821 C239.91264781 270.63099761 240.80510062 270.63164702 241.72459745 270.63231611 C244.9015322 271.30055363 246.10911949 272.6279795 248.1083374 275.13371277 C248.60052872 277.98412704 248.60052872 277.98412704 248.58935547 281.34727478 C248.59760345 283.26132866 248.59760345 283.26132866 248.60601807 285.21405029 C248.59186234 286.62575145 248.57732311 288.0374488 248.56243896 289.44914246 C248.56131053 290.93739796 248.56194426 292.4256557 248.56420898 293.91390991 C248.56535725 297.95299541 248.54183015 301.99160633 248.51391315 306.03058147 C248.48891802 310.2519662 248.486559 314.47336165 248.48181152 318.69480896 C248.46937617 326.68816457 248.43654706 334.6813015 248.39641356 342.67456079 C248.35171321 351.77481226 248.32971319 360.87507415 248.30963182 369.97540808 C248.26781487 388.69496698 248.197452 407.4143223 248.1083374 426.13371277 C255.59774921 426.09184179 263.08643 426.01931906 270.57537842 425.92619324 C273.11925651 425.89809123 275.66322016 425.87682355 278.20721436 425.86271667 C281.87912467 425.84113836 285.55001769 425.79440932 289.22161865 425.74308777 C290.34602859 425.74185913 291.47043854 425.74063049 292.62892151 425.73936462 C303.52265245 425.54052036 312.28994025 422.9027841 320.22943115 415.28996277 C324.86426469 409.9709854 327.22534304 403.91519655 327.24255848 396.87164021 C327.24924525 395.59832166 327.24924525 395.59832166 327.2560671 394.29927951 C327.25588273 393.37156952 327.25569837 392.44385953 327.25550842 391.48803711 C327.26102345 390.00398086 327.26102345 390.00398086 327.2666499 388.48994368 C327.27768814 385.16522152 327.28153083 381.8405306 327.28533936 378.51579285 C327.29160387 376.13574626 327.29825066 373.75570066 327.30525208 371.37565613 C327.32447832 364.22705584 327.33507985 357.07845498 327.34397987 349.92983606 C327.34836589 346.56136405 327.35373186 343.19289361 327.35896873 339.82442284 C327.37597856 328.62351845 327.39047224 317.42261503 327.39771748 306.22169971 C327.39962729 303.31631278 327.40154763 300.41092585 327.40350342 297.50553894 C327.40398716 296.78344235 327.4044709 296.06134576 327.4049693 295.31736746 C327.41326787 283.62247322 327.43860293 271.92768132 327.4710841 260.23283175 C327.50417718 248.21949778 327.52216824 236.20621578 327.52536172 224.19283599 C327.52752468 217.4503699 327.53624189 210.70805308 327.56182289 203.96563148 C327.58509148 197.62169507 327.58934148 191.27802716 327.57906151 184.93405914 C327.57856576 182.60768173 327.58489763 180.28129115 327.59861755 177.95495415 C327.61632338 174.77441698 327.609236 171.59484476 327.59608459 168.41430664 C327.60705384 167.49775026 327.61802309 166.58119387 327.62932473 165.63686305 C327.54274015 156.93977407 324.25896979 148.43509595 318.1083374 142.13371277 C306.99562357 133.39654283 294.1737262 133.83846818 280.63604736 133.87974548 C278.98034704 133.87743788 277.32464774 133.87425935 275.66895056 133.87029099 C271.14298091 133.86197555 266.61709608 133.86605344 262.0911262 133.87226343 C257.20080551 133.87680026 252.3104991 133.86979806 247.42018127 133.86430359 C237.84941704 133.85542108 228.27868422 133.85732652 218.70791876 133.86312887 C210.92795214 133.86764984 203.1479943 133.86825638 195.36802673 133.86608124 C194.25977322 133.86577477 193.1515197 133.86546831 192.00968274 133.86515255 C189.75812566 133.86451309 187.50656858 133.86386466 185.2550115 133.86320737 C164.1535381 133.85750742 143.05208208 133.86405671 121.95061153 133.8748081 C103.85360129 133.88374331 85.75661671 133.88219117 67.65960693 133.87297058 C46.63245105 133.86226204 25.60531041 133.85805671 4.57815218 133.86419511 C2.33498415 133.86483219 0.09181611 133.86546093 -2.15135193 133.86608124 C-3.25496745 133.86638979 -4.35858297 133.86669834 -5.49564138 133.86701624 C-13.26419291 133.86874143 -21.03273476 133.86583188 -28.80128479 133.86112213 C-38.27149514 133.85550682 -47.74167234 133.85704345 -57.2118789 133.86768362 C-62.04157213 133.87293155 -66.87121014 133.87501204 -71.70090294 133.86838531 C-76.12605621 133.86240558 -80.55110331 133.86573429 -84.97624701 133.87634042 C-86.57300674 133.87856588 -88.16977552 133.87745745 -89.76652938 133.87258884 C-102.59683041 133.83648357 -114.45444479 133.85718215 -124.8916626 142.13371277 C-132.29249619 149.69068209 -134.34643176 158.02913051 -134.27934265 168.29837036 C-134.28472819 169.29524244 -134.29011373 170.29211453 -134.29566246 171.31919485 C-134.3099216 174.64543407 -134.30284322 177.97127418 -134.29571533 181.29753113 C-134.30141993 183.68802204 -134.30838454 186.07851024 -134.31651306 188.46899414 C-134.33258774 194.27960709 -134.33454722 200.09009578 -134.32930016 205.90072625 C-134.3252519 210.6253932 -134.32670979 215.35002825 -134.33204842 220.07469368 C-134.33317105 221.08495226 -134.33317105 221.08495226 -134.33431636 222.1156201 C-134.3358479 223.48402425 -134.33738625 224.8524284 -134.33893133 226.22083253 C-134.35264569 239.04099915 -134.34722609 251.86110468 -134.33574612 264.68126989 C-134.32581396 276.39855443 -134.33875593 288.11568105 -134.36268031 299.83294123 C-134.38708794 311.87805655 -134.39667516 323.92309838 -134.39002758 335.96823794 C-134.38653916 342.72515841 -134.38874246 349.48195746 -134.40627861 356.23885918 C-134.4217468 362.59272342 -134.41779313 368.94628614 -134.39897346 375.30013847 C-134.39528737 377.62973473 -134.3983966 379.95935331 -134.40885925 382.28892899 C-134.42206876 385.47365679 -134.41052103 388.65738632 -134.39286804 391.84207153 C-134.40247305 392.75979039 -134.41207806 393.67750924 -134.42197412 394.62303776 C-134.31936568 403.64501992 -131.05654597 410.74174394 -124.95806885 417.34074402 C-118.15100716 423.24706031 -110.68719908 425.24022863 -101.89556885 425.27433777 C-100.51859911 425.29266028 -99.1416455 425.31223008 -97.76470947 425.33293152 C-95.60744766 425.36190783 -93.45123144 425.38371343 -91.29376221 425.38420105 C-89.20176838 425.3875448 -87.11214845 425.42212632 -85.02056885 425.46183777 C-83.14993774 425.47585632 -83.14993774 425.47585632 -81.24151611 425.49015808 C-77.03346533 426.29858472 -75.55103116 427.84861043 -72.8916626 431.13371277 C-71.91792409 434.20958086 -72.36406821 435.80986813 -72.8916626 439.13371277 C-75.6452703 442.06398284 -77.31146904 443.048658 -81.31402588 443.63542175 C-82.60034912 443.63356873 -83.88667236 443.6317157 -85.2119751 443.62980652 C-85.91128143 443.63126175 -86.61058777 443.63271698 -87.33108521 443.63421631 C-88.80867685 443.63256136 -90.28628646 443.62104511 -91.76373291 443.6002655 C-93.98944242 443.57156379 -96.21272632 443.57961285 -98.4385376 443.59269714 C-113.7765326 443.57005321 -127.37604935 440.19150866 -138.7901001 429.42277527 C-152.3164464 414.68961739 -152.47990894 398.98269832 -152.40924072 380.08854675 C-152.41466686 377.65144941 -152.42179226 375.21435535 -152.43048096 372.77726746 C-152.44677401 366.86757556 -152.44446276 360.95807054 -152.43283039 355.048384 C-152.42376511 350.24230238 -152.42258537 345.43627764 -152.42692566 340.6301899 C-152.42753859 339.94392678 -152.42815152 339.25766366 -152.42878303 338.55060469 C-152.43006204 337.15611313 -152.43135889 335.76162158 -152.43267339 334.36713005 C-152.44405527 321.31843049 -152.43100275 308.26984369 -152.40947193 295.22116262 C-152.39159909 284.04360016 -152.39471118 272.86620389 -152.41314697 261.68864441 C-152.43458921 248.68235116 -152.44296105 235.67615648 -152.43069792 222.66984802 C-152.42942383 221.28103866 -152.42816634 219.89222927 -152.42692566 218.50341988 C-152.42630856 217.82024411 -152.42569146 217.13706833 -152.42505565 216.43319027 C-152.42161309 211.6366843 -152.42740731 206.84024126 -152.43684387 202.04374504 C-152.44928237 195.5798531 -152.44033234 189.11620037 -152.41726685 182.65233612 C-152.41199283 180.28487987 -152.41347102 177.91739715 -152.4223175 175.54995155 C-152.43330782 172.30920479 -152.41946651 169.06945006 -152.39959717 165.82876587 C-152.40852005 164.90014644 -152.41744294 163.971527 -152.42663622 163.01476759 C-152.28041732 150.65299035 -146.63595615 139.1831568 -138.5166626 130.00871277 C-130.66967115 122.51285129 -118.8494573 116.99705081 -108.02154541 117.02018738 C-106.84062317 117.02026291 -105.65970093 117.02033844 -104.44299316 117.02041626 C-103.17308533 117.02557755 -101.90317749 117.03073883 -100.5947876 117.03605652 C-98.63892731 117.03817894 -98.63892731 117.03817894 -96.64355469 117.04034424 C-93.18463204 117.0441541 -89.72575169 117.05397126 -86.2668457 117.06504822 C-82.7342384 117.07529531 -79.20162424 117.07984892 -75.66900635 117.08488464 C-68.74320778 117.09559495 -61.81743722 117.11265293 -54.8916626 117.13371277 C-54.90165535 115.72002914 -54.90165535 115.72002914 -54.91184998 114.27778625 C-54.97286629 105.36295542 -55.01773328 96.44816738 -55.04709911 87.53317451 C-55.0627043 82.95071279 -55.0838477 78.36842066 -55.11798096 73.78605652 C-55.15075908 69.35752081 -55.16855425 64.92914746 -55.17629433 60.50049973 C-55.1818049 58.81734031 -55.1925651 57.13418902 -55.20885277 55.4510994 C-55.36625987 38.49951411 -52.26298991 26.13497887 -40.41119385 13.49699402 C-28.78923859 2.59578017 -15.41629122 -0.03023894 0 0 Z M5.1083374 287.13371277 C1.24615646 325.13317728 1.24615646 325.13317728 14.04974365 341.18449402 C17.87187936 344.76336685 21.65842352 348.11237608 25.6708374 351.44621277 C27.65684612 353.2263423 29.60754535 355.04077896 31.56341553 356.85441589 C43.64892808 369.15814764 43.64892808 369.15814764 59.1708374 374.63371277 C59.96618896 374.64402527 60.76154053 374.65433777 61.58099365 374.66496277 C67.16600978 373.4909872 71.21830753 369.26207238 75.08465576 365.28923035 C75.54245926 364.82208115 76.00026276 364.35493195 76.47193909 363.87362671 C77.45618854 362.8685267 78.43820621 361.86123711 79.41816521 360.85195351 C80.97270268 359.25302222 82.53534976 357.66244675 84.10066223 356.07406616 C88.54709475 351.56075781 92.98490017 347.03923356 97.40203857 342.49723816 C100.11276796 339.71107181 102.83804153 336.93985872 105.57309151 334.17757225 C106.608471 333.12613215 107.63827875 332.06917396 108.66221428 331.00658607 C110.09538093 329.52024648 111.54636057 328.05367932 113.00262451 326.5900116 C113.82169785 325.75158218 114.64077118 324.91315277 115.48466492 324.04931641 C118.73921527 321.67309432 121.11802428 321.32135213 125.1083374 321.13371277 C130.50050025 323.32713494 134.28232247 328.22889479 138.20404053 332.39543152 C142.03589979 336.35879837 145.67207936 339.70270446 151.3817749 340.41886902 C157.80211497 339.73864712 161.20137694 337.13040393 166.1083374 333.13371277 C167.00085205 332.41868591 167.8933667 331.70365906 168.81292725 330.96696472 C171.30760178 328.90507427 173.72707538 326.78828445 176.11126709 324.60002136 C177.59102381 323.27422498 179.13509784 322.02137638 180.6786499 320.77043152 C184.22969284 317.69066633 184.22969284 317.69066633 188.1083374 311.13371277 C188.1083374 303.21371277 188.1083374 295.29371277 188.1083374 287.13371277 C127.7183374 287.13371277 67.3283374 287.13371277 5.1083374 287.13371277 Z M-37.8916626 287.13371277 C-37.98435258 308.99583279 -38.05568921 330.85790529 -38.09891129 352.72018242 C-38.1195156 362.87176589 -38.14759543 373.02322485 -38.19342041 383.17472839 C-38.23335345 392.02523927 -38.2591109 400.87565993 -38.26801658 409.7262584 C-38.27322038 414.41038631 -38.28540667 419.09425621 -38.31458282 423.77830124 C-38.3418542 428.19256035 -38.35008404 432.60645665 -38.34409332 437.02079201 C-38.34518834 438.63561923 -38.35307223 440.25045935 -38.3684845 441.86521339 C-38.47640555 453.76174358 -37.29914412 463.38956747 -28.81744385 472.37980652 C-21.39549413 479.13935098 -13.80169784 481.4380972 -3.92333984 481.40113831 C-3.03097099 481.40566942 -2.13860213 481.41020053 -1.21919179 481.41486895 C1.76536305 481.42751005 4.74973534 481.42589275 7.73431396 481.42424011 C9.87658421 481.43022558 12.0188523 481.43703117 14.16111755 481.44459534 C19.97737544 481.46226167 25.79357448 481.46695102 31.60985661 481.46822691 C35.245269 481.46964882 38.88066645 481.47391922 42.51607513 481.47922134 C55.20357716 481.49772444 67.89103717 481.50589169 80.57855225 481.50431824 C92.39713742 481.5031171 104.21553989 481.52421345 116.03407884 481.55580556 C126.18714704 481.5819766 136.34015561 481.59268517 146.49325728 481.59140742 C152.55441062 481.59089799 158.61540162 481.59657086 164.6765213 481.61776352 C170.37948433 481.63715938 176.0821304 481.63726089 181.78510475 481.62273026 C183.87401353 481.62064268 185.96294222 481.62533992 188.05181694 481.63745117 C201.33401524 481.70945113 212.18845725 481.65042293 222.35443115 472.05949402 C228.52651814 465.28257 231.36251733 458.19680103 231.34884644 448.99629211 C231.35055529 448.30104522 231.35226413 447.60579832 231.35402477 446.88948333 C231.35730474 444.57251173 231.34634086 442.25583323 231.33538818 439.93888855 C231.33482375 438.27300015 231.33514127 436.60711125 231.33627319 434.94122314 C231.33684644 430.42721585 231.32509668 425.91331509 231.31112528 421.39933252 C231.29861322 416.67878924 231.29744704 411.95824346 231.29507446 407.23768616 C231.2888611 398.3024139 231.2724522 389.36719065 231.25237548 380.43193996 C231.23001204 370.25787793 231.21902193 360.08381355 231.20898461 349.90973306 C231.18808586 328.98436488 231.15250924 308.05904364 231.1083374 287.13371277 C222.5283374 287.13371277 213.9483374 287.13371277 205.1083374 287.13371277 C205.11736084 289.20652527 205.12638428 291.27933777 205.13568115 293.41496277 C205.11480184 295.44721629 205.09366707 297.47947532 205.06561279 299.51164246 C205.05256324 300.91197243 205.05165582 302.312475 205.06365967 303.71281433 C205.16187681 316.82714195 205.16187681 316.82714195 201.3192749 321.30949402 C199.93457848 322.60479262 198.52797937 323.87681209 197.1083374 325.13371277 C195.68676865 326.61004924 194.26599514 328.08722779 192.85816956 329.57667542 C190.75021367 331.7942597 188.59999129 333.96854452 186.44842529 336.14372253 C185.34664727 337.26210291 184.2502681 338.38582776 183.15936279 339.51481628 C174.45008736 348.52463685 166.16164874 356.0856082 152.9208374 356.38371277 C140.19079151 356.21397882 132.09334119 349.35998291 123.1083374 341.13371277 C117.53337722 345.76384257 112.43247109 350.72174924 107.3583374 355.89152527 C105.68154597 357.58582462 104.00445354 359.27982613 102.3270874 360.97355652 C99.7104555 363.62117485 97.09622754 366.27103695 94.48724365 368.92619324 C91.95107472 371.50479056 89.40546986 374.0737633 86.8583374 376.64152527 C86.08522217 377.43326141 85.31210693 378.22499756 84.51556396 379.04072571 C76.80240084 386.79000743 69.49336301 391.0272738 58.33880615 391.16886902 C41.74230256 390.2171814 32.30795571 378.49284993 21.19818115 367.35636902 C20.30466446 366.46380905 19.41114777 365.57124908 18.49055481 364.65164185 C16.14979329 362.31172631 13.81145674 359.96942023 11.47393799 357.62626648 C9.55495016 355.70465417 7.63223577 353.78679136 5.70955563 351.86887455 C3.41167412 349.57546068 1.11758888 347.27825737 -1.17681885 344.98136902 C-2.03711197 344.12310013 -2.89740509 343.26483124 -3.7837677 342.3805542 C-4.96651527 341.19307838 -4.96651527 341.19307838 -6.17315674 339.98161316 C-6.86913467 339.28483963 -7.56511261 338.5880661 -8.28218079 337.87017822 C-10.85758111 335.09158597 -11.02790617 333.28298478 -11.09698486 329.59220886 C-11.11693008 328.65138458 -11.13687531 327.7105603 -11.15742493 326.7412262 C-11.17413742 325.72348114 -11.19084991 324.70573608 -11.20806885 323.65715027 C-11.22884995 322.61676605 -11.24963104 321.57638184 -11.27104187 320.50447083 C-11.33656132 317.17262028 -11.39543352 313.84068927 -11.4541626 310.50871277 C-11.49734553 308.25349603 -11.54095975 305.9982875 -11.58502197 303.74308777 C-11.69305878 298.20671079 -11.79211462 292.67027501 -11.8916626 287.13371277 C-20.4716626 287.13371277 -29.0516626 287.13371277 -37.8916626 287.13371277 Z " fill="#000039" transform="translate(159.89166259765625,6.8662872314453125)"/>
<path d="M0 0 C8.61533526 7.04048903 13.71343103 16.15219415 15.54296875 27.078125 C16.65968752 39.66268649 12.66150257 50.17109668 5.01953125 60.046875 C-1.32737801 67.10587652 -10.72353404 71.6529716 -20.14453125 72.3515625 C-32.83877251 72.7751959 -42.54454614 70.32795423 -52.4921875 61.9453125 C-60.56102663 54.27750911 -64.44001876 45.26315883 -64.9296875 34.0859375 C-65.07908531 22.7743888 -62.17507139 13.47193824 -54.45703125 5.078125 C-39.36306531 -10.20373263 -17.89680825 -12.29275718 0 0 Z M-43.45703125 18.078125 C-47.56459819 24.3123908 -48.50035642 30.74224489 -47.45703125 38.078125 C-45.59611522 44.71926909 -41.04063314 49.23095051 -35.45703125 53.078125 C-29.415584 55.98229337 -23.13065536 56.20968543 -16.73046875 54.23828125 C-9.25622881 50.88503463 -5.19616176 46.16130098 -2.01953125 38.703125 C-0.85968005 31.22852839 -1.59760327 25.08355722 -6.01171875 18.828125 C-10.96618231 12.82920696 -16.76713738 9.67683486 -24.39453125 8.703125 C-32.01743367 9.63654162 -38.41728705 12.11138122 -43.45703125 18.078125 Z " fill="#000039" transform="translate(326.45703125,394.921875)"/>
<path d="M0 0 C7.42272025 7.2273855 11.40007257 15.87681435 11.8125 26.1875 C11.53277741 35.74671541 8.10044826 44.45164003 1.375 51.3125 C-6.14501204 57.89064175 -15.28612739 60.81293066 -25.25 60.25 C-34.59359808 58.97281753 -42.34020136 55.45113542 -48.625 48.3125 C-54.90964694 39.13339735 -56.5995872 30.34970005 -55.625 19.3125 C-53.21997277 9.33710295 -47.44125615 1.8284825 -38.78515625 -3.50390625 C-25.82622332 -10.6043704 -11.86231035 -7.62577094 0 0 Z M-31.625 12.3125 C-36.13822711 16.4823294 -38.46383303 19.85470371 -38.875 26.125 C-38.78670211 31.48173878 -36.73965559 34.82629255 -33.5625 39.0625 C-29.47580877 42.19273158 -25.74130148 43.11722132 -20.625 43.3125 C-14.75261577 42.49430184 -11.3854082 39.54341591 -7.75390625 35.03125 C-5.18397459 31.11855127 -5.02628402 26.83613183 -5.625 22.3125 C-7.39783431 17.53355535 -10.25774551 13.9328527 -14.625 11.3125 C-20.78197033 8.92991761 -25.95266283 8.67791421 -31.625 12.3125 Z " fill="#000039" transform="translate(364.625,177.6875)"/>
<path d="M0 0 C7.62175168 8.08649264 9.08494134 17.19893631 8.9140625 28.0390625 C8.49064438 32.9983472 7.24180864 36.5208853 4.6015625 40.69921875 C4.17746094 41.3953125 3.75335938 42.09140625 3.31640625 42.80859375 C-2.25305983 51.06195295 -9.70800114 55.23520247 -19.34765625 57.29296875 C-27.82678358 58.42207149 -34.97558618 56.83400095 -42.3984375 52.69921875 C-43.32269531 52.21001953 -43.32269531 52.21001953 -44.265625 51.7109375 C-50.93824248 47.63322682 -55.6883187 40.07776415 -57.8359375 32.63671875 C-59.2814625 22.51804373 -58.78845403 13.10635385 -52.7109375 4.51171875 C-46.10471478 -3.5462418 -39.78406778 -7.91722802 -29.6484375 -10.11328125 C-18.48904355 -11.16771217 -8.19856284 -7.43111746 0 0 Z M-35.9375 11.06640625 C-40.03917197 15.69577871 -41.63824227 19.46842039 -41.3984375 25.57421875 C-40.6929171 31.01564617 -38.71358883 34.32742301 -34.3984375 37.69921875 C-30.50755608 39.97546315 -27.34343031 40.71579757 -22.8359375 40.63671875 C-17.1168799 39.07697577 -13.64565347 37.29821359 -9.9609375 32.57421875 C-7.7403354 28.10417557 -7.60111788 23.57172752 -8.3984375 18.69921875 C-10.893783 13.70852776 -14.15216596 9.96165768 -19.4375 7.90625 C-25.70137474 6.13040922 -30.94288713 6.62956741 -35.9375 11.06640625 Z " fill="#000039" transform="translate(453.3984375,180.30078125)"/>
<path d="M0 0 C0.68999084 0.0116922 1.37998169 0.0233844 2.09088135 0.03543091 C3.19402679 0.02469795 3.19402679 0.02469795 4.31945801 0.01374817 C6.74650503 -0.00313839 9.17170463 0.01626104 11.59869385 0.03762817 C13.28733472 0.03679946 14.97597552 0.03433998 16.66461182 0.03031921 C20.20213122 0.02746127 23.73901745 0.04216141 27.27642822 0.0696106 C31.80961429 0.10369394 36.34166818 0.09767546 40.87490845 0.07894802 C44.36140367 0.06837654 47.84763569 0.07731708 51.33410645 0.09233284 C53.00544452 0.09751406 54.67681009 0.09703356 56.34814453 0.09078789 C58.68486575 0.08533364 61.01996949 0.10571462 63.35650635 0.13308716 C64.04649719 0.12656128 64.73648804 0.1200354 65.4473877 0.11331177 C68.80937835 0.18023906 70.47387243 0.47012075 73.15093994 2.57487488 C74.85877877 4.84618851 75.26750853 5.86239501 75.22369385 8.66653442 C75.2391626 9.65653442 75.2391626 9.65653442 75.25494385 10.66653442 C74.46175995 13.65263853 73.14548493 14.76248279 70.72369385 16.66653442 C68.12720948 17.06670633 65.95132241 17.22452325 63.35650635 17.19998169 C62.62107605 17.20859726 61.88564575 17.21721283 61.12792969 17.22608948 C58.70115798 17.24876043 56.27553992 17.24200964 53.84869385 17.23294067 C52.16005103 17.23817554 50.47141115 17.24445152 48.78277588 17.25172424 C45.24536367 17.26213028 41.70835369 17.2575639 38.17095947 17.24295044 C33.63766341 17.22575574 29.10563397 17.24926419 24.57247925 17.28444004 C21.08599448 17.306399 17.59981356 17.30497642 14.11328125 17.29667473 C12.44192108 17.29585449 10.77053876 17.30273172 9.09924316 17.31744576 C6.76232995 17.33486677 4.42770252 17.32037383 2.09088135 17.29763794 C1.4008905 17.30933014 0.71089966 17.32102234 0 17.33306885 C-3.65334739 17.26074443 -5.04104838 16.89431035 -7.70550537 14.31459045 C-9.6403837 11.05277248 -9.89872391 9.40104099 -9.27630615 5.66653442 C-6.77006259 1.44150891 -4.96641183 0.09831884 0 0 Z " fill="#00003A" transform="translate(63.27630615234375,187.33346557617188)"/>
</svg>
